<svg width="788" height="110" viewBox="0 0 788 110" fill="none" xmlns="http://www.w3.org/2000/svg">
<mask id="path-1-outside-1_348_1557" maskUnits="userSpaceOnUse" x="0" y="14" width="556" height="93" fill="black">
<rect fill="white" y="14" width="556" height="93"/>
<path d="M3.19 87L31.27 24H45.67L73.84 87H58.54L35.5 31.38H41.26L18.13 87H3.19ZM17.23 73.5L21.1 62.43H53.5L57.46 73.5H17.23ZM99.7368 87.72C95.1768 87.72 91.0668 86.7 87.4068 84.66C83.7468 82.56 80.8368 79.65 78.6768 75.93C76.5768 72.21 75.5268 67.83 75.5268 62.79C75.5268 57.69 76.5768 53.28 78.6768 49.56C80.8368 45.84 83.7468 42.96 87.4068 40.92C91.0668 38.88 95.1768 37.86 99.7368 37.86C103.817 37.86 107.387 38.76 110.447 40.56C113.507 42.36 115.877 45.09 117.557 48.75C119.237 52.41 120.077 57.09 120.077 62.79C120.077 68.43 119.267 73.11 117.647 76.83C116.027 80.49 113.687 83.22 110.627 85.02C107.627 86.82 103.997 87.72 99.7368 87.72ZM102.167 76.2C104.447 76.2 106.517 75.66 108.377 74.58C110.237 73.5 111.707 71.97 112.787 69.99C113.927 67.95 114.497 65.55 114.497 62.79C114.497 59.97 113.927 57.57 112.787 55.59C111.707 53.61 110.237 52.08 108.377 51C106.517 49.92 104.447 49.38 102.167 49.38C99.8268 49.38 97.7268 49.92 95.8668 51C94.0068 52.08 92.5068 53.61 91.3668 55.59C90.2868 57.57 89.7468 59.97 89.7468 62.79C89.7468 65.55 90.2868 67.95 91.3668 69.99C92.5068 71.97 94.0068 73.5 95.8668 74.58C97.7268 75.66 99.8268 76.2 102.167 76.2ZM114.857 87V77.1L115.127 62.7L114.227 48.39V20.22H128.267V87H114.857ZM170.961 87V77.55L170.061 75.48V58.56C170.061 55.56 169.131 53.22 167.271 51.54C165.471 49.86 162.681 49.02 158.901 49.02C156.321 49.02 153.771 49.44 151.251 50.28C148.791 51.06 146.691 52.14 144.951 53.52L139.911 43.71C142.551 41.85 145.731 40.41 149.451 39.39C153.171 38.37 156.951 37.86 160.791 37.86C168.171 37.86 173.901 39.6 177.981 43.08C182.061 46.56 184.101 51.99 184.101 59.37V87H170.961ZM156.201 87.72C152.421 87.72 149.181 87.09 146.481 85.83C143.781 84.51 141.711 82.74 140.271 80.52C138.831 78.3 138.111 75.81 138.111 73.05C138.111 70.17 138.801 67.65 140.181 65.49C141.621 63.33 143.871 61.65 146.931 60.45C149.991 59.19 153.981 58.56 158.901 58.56H171.771V66.75H160.431C157.131 66.75 154.851 67.29 153.591 68.37C152.391 69.45 151.791 70.8 151.791 72.42C151.791 74.22 152.481 75.66 153.861 76.74C155.301 77.76 157.251 78.27 159.711 78.27C162.051 78.27 164.151 77.73 166.011 76.65C167.871 75.51 169.221 73.86 170.061 71.7L172.221 78.18C171.201 81.3 169.341 83.67 166.641 85.29C163.941 86.91 160.461 87.72 156.201 87.72ZM225.428 87.72C221.348 87.72 217.778 86.82 214.718 85.02C211.658 83.22 209.258 80.49 207.518 76.83C205.838 73.11 204.998 68.43 204.998 62.79C204.998 57.09 205.808 52.41 207.428 48.75C209.048 45.09 211.388 42.36 214.448 40.56C217.508 38.76 221.168 37.86 225.428 37.86C229.988 37.86 234.068 38.91 237.668 41.01C241.328 43.05 244.208 45.93 246.308 49.65C248.468 53.37 249.548 57.75 249.548 62.79C249.548 67.89 248.468 72.3 246.308 76.02C244.208 79.74 241.328 82.62 237.668 84.66C234.068 86.7 229.988 87.72 225.428 87.72ZM196.808 104.46V38.58H210.218V48.48L209.948 62.88L210.848 77.19V104.46H196.808ZM222.998 76.2C225.338 76.2 227.408 75.66 229.208 74.58C231.068 73.5 232.538 71.97 233.618 69.99C234.758 67.95 235.328 65.55 235.328 62.79C235.328 59.97 234.758 57.57 233.618 55.59C232.538 53.61 231.068 52.08 229.208 51C227.408 49.92 225.338 49.38 222.998 49.38C220.658 49.38 218.558 49.92 216.698 51C214.838 52.08 213.368 53.61 212.288 55.59C211.208 57.57 210.668 59.97 210.668 62.79C210.668 65.55 211.208 67.95 212.288 69.99C213.368 71.97 214.838 73.5 216.698 74.58C218.558 75.66 220.658 76.2 222.998 76.2ZM278.747 87.72C273.047 87.72 268.607 86.28 265.427 83.4C262.247 80.46 260.657 76.11 260.657 70.35V27.87H274.697V70.17C274.697 72.21 275.237 73.8 276.317 74.94C277.397 76.02 278.867 76.56 280.727 76.56C282.947 76.56 284.837 75.96 286.397 74.76L290.177 84.66C288.737 85.68 286.997 86.46 284.957 87C282.977 87.48 280.907 87.72 278.747 87.72ZM253.187 49.38V38.58H286.757V49.38H253.187ZM326.176 87V77.55L325.276 75.48V58.56C325.276 55.56 324.346 53.22 322.486 51.54C320.686 49.86 317.896 49.02 314.116 49.02C311.536 49.02 308.986 49.44 306.466 50.28C304.006 51.06 301.906 52.14 300.166 53.52L295.126 43.71C297.766 41.85 300.946 40.41 304.666 39.39C308.386 38.37 312.166 37.86 316.006 37.86C323.386 37.86 329.116 39.6 333.196 43.08C337.276 46.56 339.316 51.99 339.316 59.37V87H326.176ZM311.416 87.72C307.636 87.72 304.396 87.09 301.696 85.83C298.996 84.51 296.926 82.74 295.486 80.52C294.046 78.3 293.326 75.81 293.326 73.05C293.326 70.17 294.016 67.65 295.396 65.49C296.836 63.33 299.086 61.65 302.146 60.45C305.206 59.19 309.196 58.56 314.116 58.56H326.986V66.75H315.646C312.346 66.75 310.066 67.29 308.806 68.37C307.606 69.45 307.006 70.8 307.006 72.42C307.006 74.22 307.696 75.66 309.076 76.74C310.516 77.76 312.466 78.27 314.926 78.27C317.266 78.27 319.366 77.73 321.226 76.65C323.086 75.51 324.436 73.86 325.276 71.7L327.436 78.18C326.416 81.3 324.556 83.67 321.856 85.29C319.156 86.91 315.676 87.72 311.416 87.72ZM371.823 87.72C366.123 87.72 361.683 86.28 358.503 83.4C355.323 80.46 353.733 76.11 353.733 70.35V27.87H367.773V70.17C367.773 72.21 368.313 73.8 369.393 74.94C370.473 76.02 371.943 76.56 373.803 76.56C376.023 76.56 377.913 75.96 379.473 74.76L383.253 84.66C381.813 85.68 380.073 86.46 378.033 87C376.053 87.48 373.983 87.72 371.823 87.72ZM346.263 49.38V38.58H379.833V49.38H346.263ZM391.134 87V38.58H405.174V87H391.134ZM398.154 31.83C395.574 31.83 393.474 31.08 391.854 29.58C390.234 28.08 389.424 26.22 389.424 24C389.424 21.78 390.234 19.92 391.854 18.42C393.474 16.92 395.574 16.17 398.154 16.17C400.734 16.17 402.834 16.89 404.454 18.33C406.074 19.71 406.884 21.51 406.884 23.73C406.884 26.07 406.074 28.02 404.454 29.58C402.894 31.08 400.794 31.83 398.154 31.83ZM441.245 87.72C436.085 87.72 431.495 86.64 427.475 84.48C423.515 82.32 420.365 79.38 418.025 75.66C415.745 71.88 414.605 67.59 414.605 62.79C414.605 57.93 415.745 53.64 418.025 49.92C420.365 46.14 423.515 43.2 427.475 41.1C431.495 38.94 436.085 37.86 441.245 37.86C446.345 37.86 450.905 38.94 454.925 41.1C458.945 43.2 462.095 46.11 464.375 49.83C466.655 53.55 467.795 57.87 467.795 62.79C467.795 67.59 466.655 71.88 464.375 75.66C462.095 79.38 458.945 82.32 454.925 84.48C450.905 86.64 446.345 87.72 441.245 87.72ZM441.245 76.2C443.585 76.2 445.685 75.66 447.545 74.58C449.405 73.5 450.875 71.97 451.955 69.99C453.035 67.95 453.575 65.55 453.575 62.79C453.575 59.97 453.035 57.57 451.955 55.59C450.875 53.61 449.405 52.08 447.545 51C445.685 49.92 443.585 49.38 441.245 49.38C438.905 49.38 436.805 49.92 434.945 51C433.085 52.08 431.585 53.61 430.445 55.59C429.365 57.57 428.825 59.97 428.825 62.79C428.825 65.55 429.365 67.95 430.445 69.99C431.585 71.97 433.085 73.5 434.945 74.58C436.805 75.66 438.905 76.2 441.245 76.2ZM477.179 87V38.58H490.589V51.99L488.069 47.94C489.809 44.7 492.299 42.21 495.539 40.47C498.779 38.73 502.469 37.86 506.609 37.86C510.449 37.86 513.869 38.64 516.869 40.2C519.929 41.7 522.329 44.04 524.069 47.22C525.809 50.34 526.679 54.36 526.679 59.28V87H512.639V61.44C512.639 57.54 511.769 54.66 510.029 52.8C508.349 50.94 505.949 50.01 502.829 50.01C500.609 50.01 498.599 50.49 496.799 51.45C495.059 52.35 493.679 53.76 492.659 55.68C491.699 57.6 491.219 60.06 491.219 63.06V87H477.179ZM544.716 87.72C542.316 87.72 540.246 86.91 538.506 85.29C536.826 83.61 535.986 81.48 535.986 78.9C535.986 76.32 536.826 74.25 538.506 72.69C540.246 71.07 542.316 70.26 544.716 70.26C547.176 70.26 549.246 71.07 550.926 72.69C552.606 74.25 553.446 76.32 553.446 78.9C553.446 81.48 552.606 83.61 550.926 85.29C549.246 86.91 547.176 87.72 544.716 87.72Z"/>
</mask>
<path d="M3.19 87L1.36324 86.1858L0.108904 89H3.19V87ZM31.27 24V22H29.9718L29.4432 23.1858L31.27 24ZM45.67 24L47.4958 23.1836L46.9665 22H45.67V24ZM73.84 87V89H76.9251L75.6658 86.1836L73.84 87ZM58.54 87L56.6923 87.7654L57.2037 89H58.54V87ZM35.5 31.38V29.38H32.5067L33.6523 32.1454L35.5 31.38ZM41.26 31.38L43.1067 32.148L44.2578 29.38H41.26V31.38ZM18.13 87V89H19.4643L19.9767 87.768L18.13 87ZM17.23 73.5L15.342 72.84L14.4121 75.5H17.23V73.5ZM21.1 62.43V60.43H19.6805L19.212 61.77L21.1 62.43ZM53.5 62.43L55.3831 61.7564L54.9087 60.43H53.5V62.43ZM57.46 73.5V75.5H60.2996L59.3431 72.8264L57.46 73.5ZM5.01676 87.8142L33.0968 24.8142L29.4432 23.1858L1.36324 86.1858L5.01676 87.8142ZM31.27 26H45.67V22H31.27V26ZM43.8442 24.8164L72.0142 87.8164L75.6658 86.1836L47.4958 23.1836L43.8442 24.8164ZM73.84 85H58.54V89H73.84V85ZM60.3877 86.2346L37.3477 30.6146L33.6523 32.1454L56.6923 87.7654L60.3877 86.2346ZM35.5 33.38H41.26V29.38H35.5V33.38ZM39.4133 30.612L16.2833 86.232L19.9767 87.768L43.1067 32.148L39.4133 30.612ZM18.13 85H3.19V89H18.13V85ZM19.118 74.16L22.988 63.09L19.212 61.77L15.342 72.84L19.118 74.16ZM21.1 64.43H53.5V60.43H21.1V64.43ZM51.6169 63.1036L55.5769 74.1736L59.3431 72.8264L55.3831 61.7564L51.6169 63.1036ZM57.46 71.5H17.23V75.5H57.46V71.5ZM87.4068 84.66L86.4115 86.3947L86.4222 86.4009L86.4331 86.407L87.4068 84.66ZM78.6768 75.93L76.9352 76.9132L76.9411 76.9238L76.9472 76.9343L78.6768 75.93ZM78.6768 49.56L76.9472 48.5557L76.9411 48.5662L76.9352 48.5768L78.6768 49.56ZM87.4068 40.92L86.4331 39.173L87.4068 40.92ZM110.447 40.56L111.461 38.8361L110.447 40.56ZM117.557 48.75L119.374 47.9157L117.557 48.75ZM117.647 76.83L119.476 77.6395L119.48 77.6285L117.647 76.83ZM110.627 85.02L109.613 83.2961L109.605 83.3005L109.598 83.305L110.627 85.02ZM108.377 74.58L107.373 72.8504L108.377 74.58ZM112.787 69.99L111.041 69.0144L111.036 69.0233L111.031 69.0323L112.787 69.99ZM112.787 55.59L111.031 56.5477L111.042 56.5679L111.054 56.5879L112.787 55.59ZM108.377 51L107.373 52.7296L108.377 51ZM95.8668 51L96.8711 52.7296L95.8668 51ZM91.3668 55.59L89.6336 54.5921L89.622 54.6121L89.611 54.6323L91.3668 55.59ZM91.3668 69.99L89.5992 70.9258L89.6158 70.9572L89.6336 70.9879L91.3668 69.99ZM95.8668 74.58L96.8711 72.8504L95.8668 74.58ZM114.857 87H112.857V89H114.857V87ZM114.857 77.1L112.857 77.0625L112.857 77.0813V77.1H114.857ZM115.127 62.7L117.126 62.7375L117.128 62.6559L117.123 62.5745L115.127 62.7ZM114.227 48.39H112.227V48.4528L112.231 48.5155L114.227 48.39ZM114.227 20.22V18.22H112.227V20.22H114.227ZM128.267 20.22H130.267V18.22H128.267V20.22ZM128.267 87V89H130.267V87H128.267ZM99.7368 85.72C95.4867 85.72 91.7169 84.7727 88.3805 82.913L86.4331 86.407C90.4167 88.6273 94.8669 89.72 99.7368 89.72V85.72ZM88.4021 82.9253C85.0529 81.0036 82.3936 78.3482 80.4064 74.9257L76.9472 76.9343C79.28 80.9518 82.4407 84.1164 86.4115 86.3947L88.4021 82.9253ZM80.4184 74.9468C78.516 71.5767 77.5268 67.5477 77.5268 62.79H73.5268C73.5268 68.1123 74.6376 72.8433 76.9352 76.9132L80.4184 74.9468ZM77.5268 62.79C77.5268 57.9677 78.5179 53.9099 80.4184 50.5432L76.9352 48.5768C74.6357 52.6501 73.5268 57.4123 73.5268 62.79H77.5268ZM80.4064 50.5643C82.3908 47.1466 85.0433 44.527 88.3805 42.667L86.4331 39.173C82.4503 41.393 79.2828 44.5334 76.9472 48.5557L80.4064 50.5643ZM88.3805 42.667C91.7169 40.8073 95.4867 39.86 99.7368 39.86V35.86C94.8669 35.86 90.4167 36.9527 86.4331 39.173L88.3805 42.667ZM99.7368 39.86C103.514 39.86 106.724 40.6902 109.433 42.2839L111.461 38.8361C108.05 36.8298 104.119 35.86 99.7368 35.86V39.86ZM109.433 42.2839C112.094 43.8494 114.206 46.2442 115.739 49.5843L119.374 47.9157C117.548 43.9358 114.919 40.8706 111.461 38.8361L109.433 42.2839ZM115.739 49.5843C117.26 52.8974 118.077 57.2667 118.077 62.79H122.077C122.077 56.9133 121.214 51.9226 119.374 47.9157L115.739 49.5843ZM118.077 62.79C118.077 68.2553 117.289 72.6413 115.813 76.0315L119.48 77.6285C121.244 73.5787 122.077 68.6047 122.077 62.79H118.077ZM115.818 76.0205C114.345 79.3488 112.267 81.7347 109.613 83.2961L111.641 86.7439C115.106 84.7052 117.709 81.6312 119.476 77.6395L115.818 76.0205ZM109.598 83.305C106.97 84.8817 103.713 85.72 99.7368 85.72V89.72C104.28 89.72 108.284 88.7583 111.656 86.735L109.598 83.305ZM102.167 78.2C104.778 78.2 107.198 77.5774 109.381 76.3096L107.373 72.8504C105.836 73.7426 104.116 74.2 102.167 74.2V78.2ZM109.381 76.3096C111.573 75.0368 113.296 73.2326 114.543 70.9477L111.031 69.0323C110.117 70.7074 108.9 71.9632 107.373 72.8504L109.381 76.3096ZM114.533 70.9656C115.867 68.5776 116.497 65.8295 116.497 62.79H112.497C112.497 65.2705 111.986 67.3224 111.041 69.0144L114.533 70.9656ZM116.497 62.79C116.497 59.7011 115.871 56.9391 114.52 54.5921L111.054 56.5879C111.982 58.2009 112.497 60.2389 112.497 62.79H116.497ZM114.543 54.6323C113.296 52.3474 111.573 50.5433 109.381 49.2704L107.373 52.7296C108.9 53.6167 110.117 54.8726 111.031 56.5477L114.543 54.6323ZM109.381 49.2704C107.198 48.0026 104.778 47.38 102.167 47.38V51.38C104.116 51.38 105.836 51.8374 107.373 52.7296L109.381 49.2704ZM102.167 47.38C99.506 47.38 97.0541 47.9979 94.8625 49.2704L96.8711 52.7296C98.3995 51.8421 100.148 51.38 102.167 51.38V47.38ZM94.8625 49.2704C92.6807 50.5373 90.937 52.3282 89.6336 54.5921L93.1 56.5879C94.0766 54.8918 95.3329 53.6227 96.8711 52.7296L94.8625 49.2704ZM89.611 54.6323C88.3355 56.9708 87.7468 59.7177 87.7468 62.79H91.7468C91.7468 60.2223 92.2381 58.1692 93.1226 56.5477L89.611 54.6323ZM87.7468 62.79C87.7468 65.8127 88.3394 68.5461 89.5992 70.9258L93.1344 69.0542C92.2342 67.3539 91.7468 65.2873 91.7468 62.79H87.7468ZM89.6336 70.9879C90.937 73.2518 92.6807 75.0427 94.8625 76.3096L96.8711 72.8504C95.3329 71.9573 94.0766 70.6882 93.1 68.9921L89.6336 70.9879ZM94.8625 76.3096C97.0541 77.5821 99.506 78.2 102.167 78.2V74.2C100.148 74.2 98.3995 73.7379 96.8711 72.8504L94.8625 76.3096ZM116.857 87V77.1H112.857V87H116.857ZM116.856 77.1375L117.126 62.7375L113.127 62.6625L112.857 77.0625L116.856 77.1375ZM117.123 62.5745L116.223 48.2645L112.231 48.5155L113.131 62.8255L117.123 62.5745ZM116.227 48.39V20.22H112.227V48.39H116.227ZM114.227 22.22H128.267V18.22H114.227V22.22ZM126.267 20.22V87H130.267V20.22H126.267ZM128.267 85H114.857V89H128.267V85ZM170.961 87H168.961V89H170.961V87ZM170.961 77.55H172.961V77.134L172.795 76.7525L170.961 77.55ZM170.061 75.48H168.061V75.896L168.227 76.2775L170.061 75.48ZM167.271 51.54L165.907 53.0021L165.919 53.0133L165.931 53.0242L167.271 51.54ZM151.251 50.28L151.856 52.1865L151.87 52.182L151.884 52.1774L151.251 50.28ZM144.951 53.52L143.172 54.434L144.285 56.6007L146.194 55.087L144.951 53.52ZM139.911 43.71L138.759 42.075L137.337 43.0768L138.132 44.624L139.911 43.71ZM149.451 39.39L148.922 37.4612L149.451 39.39ZM177.981 43.08L179.279 41.5583L177.981 43.08ZM184.101 87V89H186.101V87H184.101ZM146.481 85.83L145.603 87.6268L145.619 87.6347L145.635 87.6424L146.481 85.83ZM140.271 80.52L141.949 79.4316L140.271 80.52ZM140.181 65.49L138.517 64.3806L138.506 64.3968L138.496 64.4132L140.181 65.49ZM146.931 60.45L147.661 62.3119L147.677 62.3058L147.693 62.2994L146.931 60.45ZM171.771 58.56H173.771V56.56H171.771V58.56ZM171.771 66.75V68.75H173.771V66.75H171.771ZM153.591 68.37L152.29 66.8515L152.271 66.8672L152.253 66.8834L153.591 68.37ZM153.861 76.74L152.629 78.315L152.666 78.3444L152.705 78.372L153.861 76.74ZM166.011 76.65L167.016 78.3796L167.036 78.3676L167.056 78.3552L166.011 76.65ZM170.061 71.7L171.959 71.0675L170.206 65.8097L168.197 70.9751L170.061 71.7ZM172.221 78.18L174.122 78.8015L174.327 78.1739L174.119 77.5475L172.221 78.18ZM166.641 85.29L165.612 83.575L166.641 85.29ZM172.961 87V77.55H168.961V87H172.961ZM172.795 76.7525L171.895 74.6825L168.227 76.2775L169.127 78.3475L172.795 76.7525ZM172.061 75.48V58.56H168.061V75.48H172.061ZM172.061 58.56C172.061 55.1156 170.974 52.1893 168.612 50.0558L165.931 53.0242C167.289 54.2506 168.061 56.0044 168.061 58.56H172.061ZM168.636 50.0779C166.31 47.9071 162.925 47.02 158.901 47.02V51.02C162.437 51.02 164.632 51.8129 165.907 53.0021L168.636 50.0779ZM158.901 47.02C156.1 47.02 153.337 47.4767 150.619 48.3826L151.884 52.1774C154.206 51.4033 156.543 51.02 158.901 51.02V47.02ZM150.647 48.3735C147.992 49.2153 145.667 50.3997 143.708 51.953L146.194 55.087C147.715 53.8803 149.59 52.9047 151.856 52.1865L150.647 48.3735ZM146.73 52.606L141.69 42.796L138.132 44.624L143.172 54.434L146.73 52.606ZM141.063 45.345C143.481 43.6413 146.441 42.2892 149.98 41.3188L148.922 37.4612C145.021 38.5308 141.621 40.0587 138.759 42.075L141.063 45.345ZM149.98 41.3188C153.529 40.3458 157.131 39.86 160.791 39.86V35.86C156.772 35.86 152.814 36.3942 148.922 37.4612L149.98 41.3188ZM160.791 39.86C167.874 39.86 173.081 41.5293 176.683 44.6017L179.279 41.5583C174.721 37.6707 168.468 35.86 160.791 35.86V39.86ZM176.683 44.6017C180.168 47.5738 182.101 52.3447 182.101 59.37H186.101C186.101 51.6353 183.955 45.5462 179.279 41.5583L176.683 44.6017ZM182.101 59.37V87H186.101V59.37H182.101ZM184.101 85H170.961V89H184.101V85ZM156.201 85.72C152.638 85.72 149.701 85.1255 147.327 84.0176L145.635 87.6424C148.661 89.0545 152.205 89.72 156.201 89.72V85.72ZM147.36 84.0332C144.94 82.8504 143.166 81.3078 141.949 79.4316L138.593 81.6084C140.256 84.1722 142.622 86.1696 145.603 87.6268L147.36 84.0332ZM141.949 79.4316C140.729 77.5501 140.111 75.4412 140.111 73.05H136.111C136.111 76.1788 136.934 79.0499 138.593 81.6084L141.949 79.4316ZM140.111 73.05C140.111 70.503 140.717 68.3666 141.867 66.5668L138.496 64.4132C136.886 66.9334 136.111 69.837 136.111 73.05H140.111ZM141.845 66.5994C143.005 64.8606 144.881 63.4024 147.661 62.3119L146.201 58.5881C142.862 59.8976 140.238 61.7994 138.517 64.3806L141.845 66.5994ZM147.693 62.2994C150.423 61.1749 154.127 60.56 158.901 60.56V56.56C153.835 56.56 149.559 57.205 146.17 58.6006L147.693 62.2994ZM158.901 60.56H171.771V56.56H158.901V60.56ZM169.771 58.56V66.75H173.771V58.56H169.771ZM171.771 64.75H160.431V68.75H171.771V64.75ZM160.431 64.75C157.056 64.75 154.131 65.2731 152.29 66.8515L154.893 69.8885C155.571 69.3069 157.206 68.75 160.431 68.75V64.75ZM152.253 66.8834C150.63 68.3442 149.791 70.2353 149.791 72.42H153.791C153.791 71.3647 154.152 70.5558 154.929 69.8566L152.253 66.8834ZM149.791 72.42C149.791 74.8156 150.749 76.8441 152.629 78.315L155.094 75.165C154.213 74.4759 153.791 73.6244 153.791 72.42H149.791ZM152.705 78.372C154.593 79.7091 156.996 80.27 159.711 80.27V76.27C157.507 76.27 156.01 75.8109 155.017 75.1079L152.705 78.372ZM159.711 80.27C162.372 80.27 164.824 79.6521 167.016 78.3796L165.007 74.9204C163.479 75.8079 161.73 76.27 159.711 76.27V80.27ZM167.056 78.3552C169.313 76.972 170.937 74.9653 171.925 72.4249L168.197 70.9751C167.505 72.7547 166.429 74.048 164.966 74.9448L167.056 78.3552ZM168.164 72.3325L170.324 78.8125L174.119 77.5475L171.959 71.0675L168.164 72.3325ZM170.32 77.5585C169.443 80.2422 167.881 82.2139 165.612 83.575L167.67 87.005C170.802 85.1261 172.96 82.3578 174.122 78.8015L170.32 77.5585ZM165.612 83.575C163.314 84.9538 160.222 85.72 156.201 85.72V89.72C160.7 89.72 164.568 88.8661 167.67 87.005L165.612 83.575ZM214.718 85.02L215.732 83.2961L214.718 85.02ZM207.518 76.83L205.695 77.6532L205.703 77.671L205.712 77.6887L207.518 76.83ZM207.428 48.75L209.257 49.5595L207.428 48.75ZM214.448 40.56L213.434 38.8361L214.448 40.56ZM237.668 41.01L236.66 42.7376L236.677 42.7474L236.694 42.757L237.668 41.01ZM246.308 49.65L244.566 50.6332L244.572 50.6438L244.579 50.6543L246.308 49.65ZM246.308 76.02L244.579 75.0157L244.572 75.0262L244.566 75.0368L246.308 76.02ZM237.668 84.66L236.694 82.913L236.682 82.92L237.668 84.66ZM196.808 104.46H194.808V106.46H196.808V104.46ZM196.808 38.58V36.58H194.808V38.58H196.808ZM210.218 38.58H212.218V36.58H210.218V38.58ZM210.218 48.48L212.218 48.5175L212.218 48.4987V48.48H210.218ZM209.948 62.88L207.948 62.8425L207.947 62.9241L207.952 63.0055L209.948 62.88ZM210.848 77.19H212.848V77.1272L212.844 77.0645L210.848 77.19ZM210.848 104.46V106.46H212.848V104.46H210.848ZM229.208 74.58L228.204 72.8504L228.191 72.8576L228.179 72.865L229.208 74.58ZM233.618 69.99L231.872 69.0144L231.867 69.0233L231.862 69.0323L233.618 69.99ZM233.618 55.59L231.862 56.5477L231.873 56.5679L231.885 56.5879L233.618 55.59ZM229.208 51L228.179 52.715L228.191 52.7224L228.204 52.7296L229.208 51ZM216.698 51L217.702 52.7296L216.698 51ZM212.288 55.59L214.044 56.5477L212.288 55.59ZM212.288 69.99L210.521 70.9258L210.526 70.9368L210.532 70.9477L212.288 69.99ZM216.698 74.58L217.702 72.8504L216.698 74.58ZM225.428 85.72C221.651 85.72 218.441 84.8898 215.732 83.2961L213.704 86.7439C217.115 88.7502 221.046 89.72 225.428 89.72V85.72ZM215.732 83.2961C213.064 81.7266 210.918 79.3229 209.324 75.9713L205.712 77.6887C207.598 81.6571 210.252 84.7134 213.704 86.7439L215.732 83.2961ZM209.341 76.0068C207.813 72.6244 206.998 68.2478 206.998 62.79H202.998C202.998 68.6122 203.863 73.5956 205.695 77.6532L209.341 76.0068ZM206.998 62.79C206.998 57.2593 207.787 52.8805 209.257 49.5595L205.599 47.9405C203.829 51.9395 202.998 56.9207 202.998 62.79H206.998ZM209.257 49.5595C210.73 46.2312 212.808 43.8452 215.462 42.2839L213.434 38.8361C209.968 40.8747 207.366 43.9488 205.599 47.9405L209.257 49.5595ZM215.462 42.2839C218.159 40.6978 221.453 39.86 225.428 39.86V35.86C220.883 35.86 216.858 36.8222 213.434 38.8361L215.462 42.2839ZM225.428 39.86C229.668 39.86 233.395 40.8325 236.66 42.7376L238.676 39.2824C234.742 36.9875 230.308 35.86 225.428 35.86V39.86ZM236.694 42.757C240.027 44.6142 242.644 47.227 244.566 50.6332L248.05 48.6668C245.773 44.633 242.63 41.4858 238.642 39.263L236.694 42.757ZM244.579 50.6543C246.533 54.0204 247.548 58.0417 247.548 62.79H251.548C251.548 57.4583 250.403 52.7196 248.038 48.6457L244.579 50.6543ZM247.548 62.79C247.548 67.6031 246.531 71.6531 244.579 75.0157L248.038 77.0243C250.405 72.9469 251.548 68.1769 251.548 62.79H247.548ZM244.566 75.0368C242.644 78.443 240.027 81.0558 236.694 82.913L238.642 86.407C242.63 84.1842 245.773 81.037 248.05 77.0032L244.566 75.0368ZM236.682 82.92C233.413 84.7726 229.679 85.72 225.428 85.72V89.72C230.298 89.72 234.724 88.6274 238.654 86.4L236.682 82.92ZM198.808 104.46V38.58H194.808V104.46H198.808ZM196.808 40.58H210.218V36.58H196.808V40.58ZM208.218 38.58V48.48H212.218V38.58H208.218ZM208.218 48.4425L207.948 62.8425L211.948 62.9175L212.218 48.5175L208.218 48.4425ZM207.952 63.0055L208.852 77.3155L212.844 77.0645L211.944 62.7545L207.952 63.0055ZM208.848 77.19V104.46H212.848V77.19H208.848ZM210.848 102.46H196.808V106.46H210.848V102.46ZM222.998 78.2C225.658 78.2 228.092 77.5823 230.237 76.295L228.179 72.865C226.725 73.7377 225.018 74.2 222.998 74.2V78.2ZM230.212 76.3096C232.404 75.0368 234.128 73.2326 235.374 70.9477L231.862 69.0323C230.949 70.7074 229.732 71.9632 228.204 72.8504L230.212 76.3096ZM235.364 70.9656C236.698 68.5776 237.328 65.8295 237.328 62.79H233.328C233.328 65.2705 232.818 67.3224 231.872 69.0144L235.364 70.9656ZM237.328 62.79C237.328 59.7011 236.703 56.9391 235.351 54.5921L231.885 56.5879C232.814 58.2009 233.328 60.2389 233.328 62.79H237.328ZM235.374 54.6323C234.128 52.3474 232.404 50.5433 230.212 49.2704L228.204 52.7296C229.732 53.6167 230.949 54.8726 231.862 56.5477L235.374 54.6323ZM230.237 49.285C228.092 47.9977 225.658 47.38 222.998 47.38V51.38C225.018 51.38 226.725 51.8423 228.179 52.715L230.237 49.285ZM222.998 47.38C220.337 47.38 217.885 47.9979 215.694 49.2704L217.702 52.7296C219.231 51.8421 220.979 51.38 222.998 51.38V47.38ZM215.694 49.2704C213.502 50.5433 211.779 52.3474 210.532 54.6323L214.044 56.5477C214.958 54.8726 216.174 53.6167 217.702 52.7296L215.694 49.2704ZM210.532 54.6323C209.257 56.9708 208.668 59.7177 208.668 62.79H212.668C212.668 60.2223 213.159 58.1692 214.044 56.5477L210.532 54.6323ZM208.668 62.79C208.668 65.8127 209.261 68.5461 210.521 70.9258L214.056 69.0542C213.156 67.3539 212.668 65.2873 212.668 62.79H208.668ZM210.532 70.9477C211.779 73.2326 213.502 75.0368 215.694 76.3096L217.702 72.8504C216.174 71.9632 214.958 70.7074 214.044 69.0323L210.532 70.9477ZM215.694 76.3096C217.885 77.5821 220.337 78.2 222.998 78.2V74.2C220.979 74.2 219.231 73.7379 217.702 72.8504L215.694 76.3096ZM265.427 83.4L264.069 84.8685L264.077 84.8755L264.084 84.8824L265.427 83.4ZM260.657 27.87V25.87H258.657V27.87H260.657ZM274.697 27.87H276.697V25.87H274.697V27.87ZM276.317 74.94L274.865 76.3155L274.883 76.3351L274.903 76.3542L276.317 74.94ZM286.397 74.76L288.265 74.0466L287.307 71.5367L285.177 73.1748L286.397 74.76ZM290.177 84.66L291.333 86.292L292.598 85.3956L292.045 83.9466L290.177 84.66ZM284.957 87L285.428 88.9437L285.448 88.9388L285.469 88.9334L284.957 87ZM253.187 49.38H251.187V51.38H253.187V49.38ZM253.187 38.58V36.58H251.187V38.58H253.187ZM286.757 38.58H288.757V36.58H286.757V38.58ZM286.757 49.38V51.38H288.757V49.38H286.757ZM278.747 85.72C273.377 85.72 269.475 84.3676 266.769 81.9176L264.084 84.8824C267.739 88.1924 272.717 89.72 278.747 89.72V85.72ZM266.785 81.9315C264.137 79.4835 262.657 75.745 262.657 70.35H258.657C258.657 76.475 260.357 81.4365 264.069 84.8685L266.785 81.9315ZM262.657 70.35V27.87H258.657V70.35H262.657ZM260.657 29.87H274.697V25.87H260.657V29.87ZM272.697 27.87V70.17H276.697V27.87H272.697ZM272.697 70.17C272.697 72.5635 273.337 74.7031 274.865 76.3155L277.769 73.5645C277.136 72.8969 276.697 71.8565 276.697 70.17H272.697ZM274.903 76.3542C276.437 77.8882 278.459 78.56 280.727 78.56V74.56C279.274 74.56 278.357 74.1518 277.731 73.5258L274.903 76.3542ZM280.727 78.56C283.329 78.56 285.662 77.8482 287.616 76.3452L285.177 73.1748C284.011 74.0718 282.565 74.56 280.727 74.56V78.56ZM284.528 75.4734L288.308 85.3734L292.045 83.9466L288.265 74.0466L284.528 75.4734ZM289.021 83.028C287.81 83.8857 286.298 84.5761 284.445 85.0666L285.469 88.9334C287.696 88.3439 289.664 87.4743 291.333 86.292L289.021 83.028ZM284.486 85.0563C282.669 85.4967 280.758 85.72 278.747 85.72V89.72C281.056 89.72 283.285 89.4633 285.428 88.9437L284.486 85.0563ZM255.187 49.38V38.58H251.187V49.38H255.187ZM253.187 40.58H286.757V36.58H253.187V40.58ZM284.757 38.58V49.38H288.757V38.58H284.757ZM286.757 47.38H253.187V51.38H286.757V47.38ZM326.176 87H324.176V89H326.176V87ZM326.176 77.55H328.176V77.134L328.01 76.7525L326.176 77.55ZM325.276 75.48H323.276V75.896L323.442 76.2775L325.276 75.48ZM322.486 51.54L321.121 53.0021L321.133 53.0133L321.146 53.0242L322.486 51.54ZM306.466 50.28L307.071 52.1865L307.085 52.182L307.099 52.1774L306.466 50.28ZM300.166 53.52L298.387 54.434L299.5 56.6007L301.409 55.087L300.166 53.52ZM295.126 43.71L293.974 42.075L292.552 43.0768L293.347 44.624L295.126 43.71ZM304.666 39.39L304.137 37.4612L304.666 39.39ZM333.196 43.08L334.494 41.5583L333.196 43.08ZM339.316 87V89H341.316V87H339.316ZM301.696 85.83L300.818 87.6268L300.834 87.6347L300.85 87.6424L301.696 85.83ZM295.486 80.52L297.164 79.4316H297.164L295.486 80.52ZM295.396 65.49L293.732 64.3806L293.721 64.3968L293.711 64.4132L295.396 65.49ZM302.146 60.45L302.876 62.3119L302.892 62.3058L302.908 62.2994L302.146 60.45ZM326.986 58.56H328.986V56.56H326.986V58.56ZM326.986 66.75V68.75H328.986V66.75H326.986ZM308.806 68.37L307.505 66.8515L307.486 66.8672L307.468 66.8834L308.806 68.37ZM309.076 76.74L307.843 78.315L307.881 78.3444L307.92 78.372L309.076 76.74ZM321.226 76.65L322.23 78.3796L322.251 78.3676L322.271 78.3552L321.226 76.65ZM325.276 71.7L327.173 71.0675L325.421 65.8097L323.412 70.9751L325.276 71.7ZM327.436 78.18L329.337 78.8015L329.542 78.1739L329.333 77.5475L327.436 78.18ZM321.856 85.29L320.827 83.575L321.856 85.29ZM328.176 87V77.55H324.176V87H328.176ZM328.01 76.7525L327.11 74.6825L323.442 76.2775L324.342 78.3475L328.01 76.7525ZM327.276 75.48V58.56H323.276V75.48H327.276ZM327.276 58.56C327.276 55.1156 326.189 52.1893 323.827 50.0558L321.146 53.0242C322.503 54.2506 323.276 56.0044 323.276 58.56H327.276ZM323.851 50.0779C321.525 47.9071 318.14 47.02 314.116 47.02V51.02C317.652 51.02 319.847 51.8129 321.121 53.0021L323.851 50.0779ZM314.116 47.02C311.315 47.02 308.551 47.4767 305.834 48.3826L307.099 52.1774C309.421 51.4033 311.757 51.02 314.116 51.02V47.02ZM305.862 48.3735C303.207 49.2153 300.882 50.3997 298.923 51.953L301.409 55.087C302.93 53.8803 304.805 52.9047 307.071 52.1865L305.862 48.3735ZM301.945 52.606L296.905 42.796L293.347 44.624L298.387 54.434L301.945 52.606ZM296.278 45.345C298.696 43.6413 301.656 42.2892 305.195 41.3188L304.137 37.4612C300.236 38.5308 296.836 40.0587 293.974 42.075L296.278 45.345ZM305.195 41.3188C308.743 40.3458 312.346 39.86 316.006 39.86V35.86C311.987 35.86 308.029 36.3942 304.137 37.4612L305.195 41.3188ZM316.006 39.86C323.089 39.86 328.296 41.5293 331.898 44.6017L334.494 41.5583C329.936 37.6707 323.683 35.86 316.006 35.86V39.86ZM331.898 44.6017C335.383 47.5738 337.316 52.3447 337.316 59.37H341.316C341.316 51.6353 339.169 45.5462 334.494 41.5583L331.898 44.6017ZM337.316 59.37V87H341.316V59.37H337.316ZM339.316 85H326.176V89H339.316V85ZM311.416 85.72C307.852 85.72 304.916 85.1255 302.542 84.0176L300.85 87.6424C303.876 89.0545 307.42 89.72 311.416 89.72V85.72ZM302.575 84.0332C300.155 82.8504 298.381 81.3078 297.164 79.4316L293.808 81.6084C295.471 84.1722 297.837 86.1696 300.818 87.6268L302.575 84.0332ZM297.164 79.4316C295.944 77.5501 295.326 75.4412 295.326 73.05H291.326C291.326 76.1788 292.149 79.0499 293.808 81.6084L297.164 79.4316ZM295.326 73.05C295.326 70.503 295.932 68.3666 297.081 66.5668L293.711 64.4132C292.101 66.9334 291.326 69.837 291.326 73.05H295.326ZM297.06 66.5994C298.219 64.8606 300.096 63.4024 302.876 62.3119L301.416 58.5881C298.077 59.8976 295.453 61.7994 293.732 64.3806L297.06 66.5994ZM302.908 62.2994C305.638 61.1749 309.342 60.56 314.116 60.56V56.56C309.05 56.56 304.774 57.205 301.385 58.6006L302.908 62.2994ZM314.116 60.56H326.986V56.56H314.116V60.56ZM324.986 58.56V66.75H328.986V58.56H324.986ZM326.986 64.75H315.646V68.75H326.986V64.75ZM315.646 64.75C312.271 64.75 309.346 65.2731 307.505 66.8515L310.108 69.8885C310.786 69.3069 312.421 68.75 315.646 68.75V64.75ZM307.468 66.8834C305.845 68.3442 305.006 70.2353 305.006 72.42H309.006C309.006 71.3647 309.367 70.5558 310.144 69.8566L307.468 66.8834ZM305.006 72.42C305.006 74.8156 305.964 76.8441 307.843 78.315L310.309 75.165C309.428 74.4759 309.006 73.6244 309.006 72.42H305.006ZM307.92 78.372C309.808 79.7091 312.21 80.27 314.926 80.27V76.27C312.722 76.27 311.225 75.8109 310.232 75.1079L307.92 78.372ZM314.926 80.27C317.587 80.27 320.039 79.6521 322.23 78.3796L320.222 74.9204C318.693 75.8079 316.945 76.27 314.926 76.27V80.27ZM322.271 78.3552C324.528 76.972 326.152 74.9653 327.14 72.4249L323.412 70.9751C322.72 72.7547 321.644 74.048 320.181 74.9448L322.271 78.3552ZM323.379 72.3325L325.539 78.8125L329.333 77.5475L327.173 71.0675L323.379 72.3325ZM325.535 77.5585C324.658 80.2422 323.096 82.2139 320.827 83.575L322.885 87.005C326.017 85.1261 328.174 82.3578 329.337 78.8015L325.535 77.5585ZM320.827 83.575C318.529 84.9538 315.437 85.72 311.416 85.72V89.72C315.915 89.72 319.783 88.8661 322.885 87.005L320.827 83.575ZM358.503 83.4L357.145 84.8685L357.153 84.8755L357.16 84.8824L358.503 83.4ZM353.733 27.87V25.87H351.733V27.87H353.733ZM367.773 27.87H369.773V25.87H367.773V27.87ZM369.393 74.94L367.941 76.3155L367.96 76.3351L367.979 76.3542L369.393 74.94ZM379.473 74.76L381.341 74.0466L380.383 71.5367L378.254 73.1748L379.473 74.76ZM383.253 84.66L384.409 86.292L385.675 85.3956L385.121 83.9466L383.253 84.66ZM378.033 87L378.504 88.9437L378.525 88.9388L378.545 88.9334L378.033 87ZM346.263 49.38H344.263V51.38H346.263V49.38ZM346.263 38.58V36.58H344.263V38.58H346.263ZM379.833 38.58H381.833V36.58H379.833V38.58ZM379.833 49.38V51.38H381.833V49.38H379.833ZM371.823 85.72C366.453 85.72 362.551 84.3676 359.846 81.9176L357.16 84.8824C360.815 88.1924 365.793 89.72 371.823 89.72V85.72ZM359.861 81.9315C357.213 79.4835 355.733 75.745 355.733 70.35H351.733C351.733 76.475 353.433 81.4365 357.145 84.8685L359.861 81.9315ZM355.733 70.35V27.87H351.733V70.35H355.733ZM353.733 29.87H367.773V25.87H353.733V29.87ZM365.773 27.87V70.17H369.773V27.87H365.773ZM365.773 70.17C365.773 72.5635 366.414 74.7031 367.941 76.3155L370.845 73.5645C370.212 72.8969 369.773 71.8565 369.773 70.17H365.773ZM367.979 76.3542C369.513 77.8882 371.536 78.56 373.803 78.56V74.56C372.35 74.56 371.433 74.1518 370.807 73.5258L367.979 76.3542ZM373.803 78.56C376.405 78.56 378.738 77.8482 380.692 76.3452L378.254 73.1748C377.087 74.0718 375.641 74.56 373.803 74.56V78.56ZM377.605 75.4734L381.385 85.3734L385.121 83.9466L381.341 74.0466L377.605 75.4734ZM382.097 83.028C380.886 83.8857 379.374 84.5761 377.521 85.0666L378.545 88.9334C380.772 88.3439 382.74 87.4743 384.409 86.292L382.097 83.028ZM377.562 85.0563C375.745 85.4967 373.834 85.72 371.823 85.72V89.72C374.132 89.72 376.361 89.4633 378.504 88.9437L377.562 85.0563ZM348.263 49.38V38.58H344.263V49.38H348.263ZM346.263 40.58H379.833V36.58H346.263V40.58ZM377.833 38.58V49.38H381.833V38.58H377.833ZM379.833 47.38H346.263V51.38H379.833V47.38ZM391.134 87H389.134V89H391.134V87ZM391.134 38.58V36.58H389.134V38.58H391.134ZM405.174 38.58H407.174V36.58H405.174V38.58ZM405.174 87V89H407.174V87H405.174ZM391.854 29.58L390.495 31.0475V31.0475L391.854 29.58ZM391.854 18.42L393.213 19.8875V19.8875L391.854 18.42ZM404.454 18.33L403.126 19.8248L403.141 19.8388L403.157 19.8525L404.454 18.33ZM404.454 29.58L405.841 31.0217L405.842 31.0206L404.454 29.58ZM393.134 87V38.58H389.134V87H393.134ZM391.134 40.58H405.174V36.58H391.134V40.58ZM403.174 38.58V87H407.174V38.58H403.174ZM405.174 85H391.134V89H405.174V85ZM398.154 29.83C395.988 29.83 394.402 29.2132 393.213 28.1125L390.495 31.0475C392.547 32.9468 395.161 33.83 398.154 33.83V29.83ZM393.213 28.1125C392.004 26.9934 391.424 25.6664 391.424 24H387.424C387.424 26.7736 388.464 29.1666 390.495 31.0475L393.213 28.1125ZM391.424 24C391.424 22.3336 392.004 21.0066 393.213 19.8875L390.495 16.9525C388.464 18.8334 387.424 21.2264 387.424 24H391.424ZM393.213 19.8875C394.402 18.7868 395.988 18.17 398.154 18.17V14.17C395.161 14.17 392.547 15.0532 390.495 16.9525L393.213 19.8875ZM398.154 18.17C400.343 18.17 401.939 18.7701 403.126 19.8248L405.783 16.8352C403.73 15.0099 401.126 14.17 398.154 14.17V18.17ZM403.157 19.8525C404.31 20.8341 404.884 22.067 404.884 23.73H408.884C408.884 20.953 407.839 18.5859 405.751 16.8075L403.157 19.8525ZM404.884 23.73C404.884 25.5512 404.278 26.9732 403.067 28.1394L405.842 31.0206C407.871 29.0668 408.884 26.5888 408.884 23.73H404.884ZM403.068 28.1383C401.959 29.2046 400.398 29.83 398.154 29.83V33.83C401.191 33.83 403.829 32.9554 405.841 31.0217L403.068 28.1383ZM427.475 84.48L426.517 86.2358L426.528 86.2418L427.475 84.48ZM418.025 75.66L416.312 76.693L416.322 76.709L416.332 76.7249L418.025 75.66ZM418.025 49.92L416.324 48.8673L416.319 48.8749L418.025 49.92ZM427.475 41.1L428.412 42.8669L428.421 42.8618L427.475 41.1ZM454.925 41.1L453.978 42.8618L453.988 42.8673L453.999 42.8727L454.925 41.1ZM464.375 75.66L466.08 76.7051L466.084 76.6991L466.087 76.693L464.375 75.66ZM454.925 84.48L453.978 82.7182L454.925 84.48ZM447.545 74.58L448.549 76.3096L447.545 74.58ZM451.955 69.99L453.71 70.9477L453.716 70.9368L453.722 70.9258L451.955 69.99ZM451.955 55.59L450.199 56.5477L451.955 55.59ZM447.545 51L446.54 52.7296L447.545 51ZM434.945 51L435.949 52.7296L434.945 51ZM430.445 55.59L428.711 54.5921L428.7 54.6121L428.689 54.6323L430.445 55.59ZM430.445 69.99L428.677 70.9258L428.694 70.9572L428.711 70.9879L430.445 69.99ZM434.945 74.58L435.949 72.8504L434.945 74.58ZM441.245 85.72C436.371 85.72 432.114 84.7024 428.421 82.7182L426.528 86.2418C430.875 88.5776 435.798 89.72 441.245 89.72V85.72ZM428.432 82.7242C424.764 80.7234 421.871 78.0179 419.718 74.5951L416.332 76.7249C418.859 80.7421 422.265 83.9166 426.517 86.2358L428.432 82.7242ZM419.737 74.627C417.662 71.1858 416.605 67.2588 416.605 62.79H412.605C412.605 67.9212 413.828 72.5742 416.312 76.693L419.737 74.627ZM416.605 62.79C416.605 58.2557 417.664 54.3357 419.73 50.9651L416.319 48.8749C413.825 52.9443 412.605 57.6043 412.605 62.79H416.605ZM419.725 50.9727C421.877 47.4969 424.762 44.8022 428.412 42.8669L426.538 39.3331C422.267 41.5978 418.852 44.7831 416.324 48.8673L419.725 50.9727ZM428.421 42.8618C432.114 40.8776 436.371 39.86 441.245 39.86V35.86C435.798 35.86 430.875 37.0024 426.528 39.3382L428.421 42.8618ZM441.245 39.86C446.054 39.86 450.282 40.8758 453.978 42.8618L455.871 39.3382C451.527 37.0042 446.635 35.86 441.245 35.86V39.86ZM453.999 42.8727C457.711 44.8121 460.586 47.4762 462.669 50.8751L466.08 48.7849C463.603 44.7438 460.178 41.5879 455.851 39.3273L453.999 42.8727ZM462.669 50.8751C464.733 54.2418 465.795 58.1906 465.795 62.79H469.795C469.795 57.5494 468.576 52.8582 466.08 48.7849L462.669 50.8751ZM465.795 62.79C465.795 67.2588 464.738 71.1858 462.662 74.627L466.087 76.693C468.572 72.5742 469.795 67.9212 469.795 62.79H465.795ZM462.669 74.6149C460.583 78.0189 457.701 80.7177 453.978 82.7182L455.871 86.2418C460.188 83.9223 463.606 80.7411 466.08 76.7051L462.669 74.6149ZM453.978 82.7182C450.282 84.7042 446.054 85.72 441.245 85.72V89.72C446.635 89.72 451.527 88.5758 455.871 86.2418L453.978 82.7182ZM441.245 78.2C443.905 78.2 446.357 77.5821 448.549 76.3096L446.54 72.8504C445.012 73.7379 443.264 74.2 441.245 74.2V78.2ZM448.549 76.3096C450.741 75.0368 452.464 73.2326 453.71 70.9477L450.199 69.0323C449.285 70.7074 448.068 71.9632 446.54 72.8504L448.549 76.3096ZM453.722 70.9258C454.982 68.5461 455.575 65.8127 455.575 62.79H451.575C451.575 65.2873 451.087 67.3539 450.187 69.0542L453.722 70.9258ZM455.575 62.79C455.575 59.7177 454.986 56.9708 453.71 54.6323L450.199 56.5477C451.083 58.1692 451.575 60.2223 451.575 62.79H455.575ZM453.71 54.6323C452.464 52.3474 450.741 50.5433 448.549 49.2704L446.54 52.7296C448.068 53.6167 449.285 54.8726 450.199 56.5477L453.71 54.6323ZM448.549 49.2704C446.357 47.9979 443.905 47.38 441.245 47.38V51.38C443.264 51.38 445.012 51.8421 446.54 52.7296L448.549 49.2704ZM441.245 47.38C438.584 47.38 436.132 47.9979 433.94 49.2704L435.949 52.7296C437.477 51.8421 439.225 51.38 441.245 51.38V47.38ZM433.94 49.2704C431.759 50.5373 430.015 52.3282 428.711 54.5921L432.178 56.5879C433.154 54.8918 434.411 53.6227 435.949 52.7296L433.94 49.2704ZM428.689 54.6323C427.413 56.9708 426.825 59.7177 426.825 62.79H430.825C430.825 60.2223 431.316 58.1692 432.2 56.5477L428.689 54.6323ZM426.825 62.79C426.825 65.8127 427.417 68.5461 428.677 70.9258L432.212 69.0542C431.312 67.3539 430.825 65.2873 430.825 62.79H426.825ZM428.711 70.9879C430.015 73.2518 431.759 75.0427 433.94 76.3096L435.949 72.8504C434.411 71.9573 433.154 70.6882 432.178 68.9921L428.711 70.9879ZM433.94 76.3096C436.132 77.5821 438.584 78.2 441.245 78.2V74.2C439.225 74.2 437.477 73.7379 435.949 72.8504L433.94 76.3096ZM477.179 87H475.179V89H477.179V87ZM477.179 38.58V36.58H475.179V38.58H477.179ZM490.589 38.58H492.589V36.58H490.589V38.58ZM490.589 51.99L488.891 53.0466L492.589 58.99V51.99H490.589ZM488.069 47.94L486.307 46.9937L485.759 48.0137L486.371 48.9966L488.069 47.94ZM495.539 40.47L496.485 42.232L495.539 40.47ZM516.869 40.2L515.947 41.9744L515.968 41.9854L515.989 41.9958L516.869 40.2ZM524.069 47.22L522.315 48.18L522.319 48.1871L522.323 48.1941L524.069 47.22ZM526.679 87V89H528.679V87H526.679ZM512.639 87H510.639V89H512.639V87ZM510.029 52.8L508.545 54.1406L508.557 54.1535L508.569 54.1663L510.029 52.8ZM496.799 51.45L497.718 53.2264L497.729 53.2206L497.74 53.2147L496.799 51.45ZM492.659 55.68L490.893 54.7417L490.881 54.7635L490.87 54.7856L492.659 55.68ZM491.219 87V89H493.219V87H491.219ZM479.179 87V38.58H475.179V87H479.179ZM477.179 40.58H490.589V36.58H477.179V40.58ZM488.589 38.58V51.99H492.589V38.58H488.589ZM492.287 50.9334L489.767 46.8834L486.371 48.9966L488.891 53.0466L492.287 50.9334ZM489.831 48.8863C491.385 45.9924 493.592 43.7861 496.485 42.232L494.593 38.708C491.007 40.6339 488.233 43.4076 486.307 46.9937L489.831 48.8863ZM496.485 42.232C499.4 40.667 502.757 39.86 506.609 39.86V35.86C502.181 35.86 498.159 36.793 494.593 38.708L496.485 42.232ZM506.609 39.86C510.172 39.86 513.268 40.5817 515.947 41.9744L517.792 38.4256C514.47 36.6983 510.726 35.86 506.609 35.86V39.86ZM515.989 41.9958C518.654 43.3023 520.76 45.3378 522.315 48.18L525.824 46.26C523.899 42.7422 521.204 40.0977 517.75 38.4042L515.989 41.9958ZM522.323 48.1941C523.845 50.925 524.679 54.5784 524.679 59.28H528.679C528.679 54.1416 527.773 49.755 525.816 46.2459L522.323 48.1941ZM524.679 59.28V87H528.679V59.28H524.679ZM526.679 85H512.639V89H526.679V85ZM514.639 87V61.44H510.639V87H514.639ZM514.639 61.44C514.639 57.2942 513.721 53.819 511.49 51.4337L508.569 54.1663C509.817 55.501 510.639 57.7858 510.639 61.44H514.639ZM511.513 51.4594C509.365 49.0805 506.366 48.01 502.829 48.01V52.01C505.532 52.01 507.334 52.7995 508.545 54.1406L511.513 51.4594ZM502.829 48.01C500.311 48.01 497.973 48.5574 495.858 49.6853L497.74 53.2147C499.226 52.4226 500.908 52.01 502.829 52.01V48.01ZM495.88 49.6736C493.74 50.7806 492.082 52.5038 490.893 54.7417L494.425 56.6183C495.277 55.0162 496.378 53.9194 497.718 53.2264L495.88 49.6736ZM490.87 54.7856C489.728 57.0712 489.219 59.8656 489.219 63.06H493.219C493.219 60.2544 493.671 58.1288 494.448 56.5744L490.87 54.7856ZM489.219 63.06V87H493.219V63.06H489.219ZM491.219 85H477.179V89H491.219V85ZM538.506 85.29L537.092 86.7042L537.117 86.7295L537.143 86.7538L538.506 85.29ZM538.506 72.69L539.867 74.1556L539.869 74.1538L538.506 72.69ZM550.926 72.69L549.538 74.1297L549.551 74.1428L549.565 74.1556L550.926 72.69ZM550.926 85.29L552.314 86.7297L552.327 86.7171L552.34 86.7042L550.926 85.29ZM544.716 85.72C542.816 85.72 541.235 85.098 539.869 83.8262L537.143 86.7538C539.257 88.722 541.815 89.72 544.716 89.72V85.72ZM539.92 83.8758C538.649 82.605 537.986 80.9998 537.986 78.9H533.986C533.986 81.9602 535.002 84.615 537.092 86.7042L539.92 83.8758ZM537.986 78.9C537.986 76.7991 538.647 75.2878 539.867 74.1556L537.145 71.2244C535.004 73.2122 533.986 75.8409 533.986 78.9H537.986ZM539.869 74.1538C541.235 72.882 542.816 72.26 544.716 72.26V68.26C541.815 68.26 539.257 69.258 537.143 71.2262L539.869 74.1538ZM544.716 72.26C546.689 72.26 548.252 72.8901 549.538 74.1297L552.314 71.2503C550.24 69.2499 547.663 68.26 544.716 68.26V72.26ZM549.565 74.1556C550.784 75.2878 551.446 76.7991 551.446 78.9H555.446C555.446 75.8409 554.427 73.2122 552.287 71.2244L549.565 74.1556ZM551.446 78.9C551.446 80.9998 550.782 82.605 549.512 83.8758L552.34 86.7042C554.429 84.615 555.446 81.9602 555.446 78.9H551.446ZM549.538 83.8503C548.252 85.0899 546.689 85.72 544.716 85.72V89.72C547.663 89.72 550.24 88.7301 552.314 86.7297L549.538 83.8503Z" fill="#2E2E2E" mask="url(#path-1-outside-1_348_1557)"/>
</svg>
