<?xml version="1.0" encoding="UTF-8"?>
<svg id="Layer_1" xmlns="http://www.w3.org/2000/svg" xmlns:xlink="http://www.w3.org/1999/xlink" version="1.1" viewBox="0 0 76 77">
  <!-- Generator: Adobe Illustrator 29.1.0, SVG Export Plug-In . SVG Version: 2.1.0 Build 142)  -->
  <defs>
    <style>
      .st0 {
        fill: none;
      }

      .st1 {
        fill: #faf3db;
      }

      .st2 {
        clip-path: url(#clippath);
      }
    </style>
    <clipPath id="clippath">
      <rect class="st0" width="76" height="77"/>
    </clipPath>
  </defs>
  <g class="st2">
    <path class="st1" d="M33.2,32.8l2.9,9.1h-9.4l2.8-9.1c.7-2.2,1.2-4.7,1.7-6.9h.1c.5,2.1,1.1,4.6,1.9,6.9ZM76,12.8v51.3c0,7.1-5.8,12.8-12.8,12.8H11.8c-7.1,0-12.8-5.8-12.8-12.8V12.8C-1,5.8,4.8,0,11.8,0h51.3c7.1,0,12.8,5.8,12.8,12.8ZM47.8,57.3l-11.9-36.8h-8.6l-11.8,36.8h6.9l3.2-10.4h11.7l3.3,10.4h7.2ZM59.1,30.8h-6.8v26.6h6.8v-26.6ZM59.5,23.3c0-2.1-1.5-3.7-3.8-3.7s-3.8,1.6-3.8,3.7,1.5,3.6,3.7,3.6c2.3,0,3.8-1.6,3.8-3.6Z"/>
  </g>
</svg>