<?xml version="1.0" encoding="UTF-8"?>
<svg id="Layer_1" xmlns="http://www.w3.org/2000/svg" version="1.1" viewBox="0 0 47 47">
  <!-- Generator: Adobe Illustrator 29.1.0, SVG Export Plug-In . SVG Version: 2.1.0 Build 142)  -->
  <defs>
    <style>
      .st0 {
        fill: #faf3db;
        stroke: #2e2e2e;
        stroke-miterlimit: 10;
      }

      .st1 {
        fill: #eec659;
      }

      .st2 {
        fill: #2e2e2e;
      }
    </style>
  </defs>
  <g>
    <rect class="st1" x=".5" y=".5" width="46" height="46" rx="9" ry="9"/>
    <path class="st2" d="M37.5,1c4.7,0,8.5,3.8,8.5,8.5v28c0,4.7-3.8,8.5-8.5,8.5H9.5c-4.7,0-8.5-3.8-8.5-8.5V9.5C1,4.8,4.8,1,9.5,1h28M37.5,0H9.5C4.3,0,0,4.3,0,9.5v28c0,5.2,4.3,9.5,9.5,9.5h28c5.2,0,9.5-4.3,9.5-9.5V9.5c0-5.2-4.3-9.5-9.5-9.5h0Z"/>
  </g>
  <path class="st0" d="M14.6,27.2h18.2c.4,0,.7-.2.9-.6,0-.4,0-.8-.3-1l-9.1-7.3c-.2-.1-.4-.2-.6-.2s-.4,0-.6.2l-9.1,7.3c-.3.2-.4.6-.3,1,.1.4.5.6.9.6Z"/>
</svg>