<?xml version="1.0" encoding="UTF-8"?>
<svg id="a" data-name="Layer 1" xmlns="http://www.w3.org/2000/svg" viewBox="0 0 76 61.84">
  <defs>
    <style>
      .b {
        fill: #faf3db;
      }
    </style>
  </defs>
  <path class="b" d="M75.78,34.43c-.45-3.14-1.53-6.11-3.23-8.84-1.48-2.38-3.38-4.5-5.65-6.3h0S43.08.98,43.08.98c-.02-.02-.04-.03-.05-.04-.79-.61-1.86-.94-3.02-.94s-2.27.33-3.14.94c-.93.65-1.46,1.51-1.5,2.43-.03.86.37,1.68,1.15,2.33,1.53,1.21,3.06,2.45,4.6,3.68,1.49,1.2,3.02,2.44,4.54,3.64l-29.18-.02c-3.34,0-5.61,1.57-6.08,4.19-.21,1.15.16,2.41.97,3.38.86,1.03,2.11,1.59,3.51,1.59h2.22c3.07,0,6.16,0,9.24-.01h2.94S2.8,41.75,2.8,41.75l-.11.08c-1.48,1.13-2.45,2.72-2.66,4.36-.16,1.24.13,2.37.84,3.28.84,1.08,2.16,1.67,3.7,1.67s3.07-.58,4.36-1.62l14.3-11.7c-.06.57-.14,1.41-.13,2.02.02.96.33,2.9.82,4.47,1.01,3.23,2.72,6.18,5.07,8.77,2.44,2.7,5.42,4.83,8.85,6.35,3.62,1.6,7.52,2.42,11.58,2.42h.04c4.07,0,7.98-.84,11.61-2.46,3.43-1.54,6.41-3.68,8.84-6.38,2.35-2.61,4.05-5.56,5.06-8.78.5-1.6.82-3.24.95-4.91.12-1.61.07-3.25-.16-4.87h0ZM49.72,49.9c-8.94,0-16.2-6.49-16.2-14.49s7.25-14.49,16.2-14.49,16.2,6.49,16.2,14.49c0,8-7.25,14.49-16.2,14.49ZM59.06,34.13c.13,2.39-.82,4.61-2.5,6.25-1.7,1.67-4.14,2.72-6.86,2.72s-5.15-1.05-6.86-2.72c-1.67-1.64-2.63-3.86-2.5-6.25.13-2.32,1.26-4.37,2.97-5.82,1.68-1.43,3.93-2.3,6.39-2.3s4.71.87,6.39,2.3c1.71,1.45,2.84,3.5,2.97,5.82h0Z"/>
</svg>