<svg width="784" height="110" viewBox="0 0 784 110" fill="none" xmlns="http://www.w3.org/2000/svg">
<mask id="path-1-outside-1_348_1559" maskUnits="userSpaceOnUse" x="1" y="18" width="498" height="90" fill="black">
<rect fill="white" x="1" y="18" width="498" height="90"/>
<path d="M37.62 88.08C32.76 88.08 28.23 87.3 24.03 85.74C19.89 84.12 16.29 81.84 13.23 78.9C10.17 75.96 7.77 72.51 6.03 68.55C4.35 64.59 3.51 60.24 3.51 55.5C3.51 50.76 4.35 46.41 6.03 42.45C7.77 38.49 10.17 35.04 13.23 32.1C16.35 29.16 19.98 26.91 24.12 25.35C28.26 23.73 32.79 22.92 37.71 22.92C43.17 22.92 48.09 23.88 52.47 25.8C56.91 27.66 60.63 30.42 63.63 34.08L54.27 42.72C52.11 40.26 49.71 38.43 47.07 37.23C44.43 35.97 41.55 35.34 38.43 35.34C35.49 35.34 32.79 35.82 30.33 36.78C27.87 37.74 25.74 39.12 23.94 40.92C22.14 42.72 20.73 44.85 19.71 47.31C18.75 49.77 18.27 52.5 18.27 55.5C18.27 58.5 18.75 61.23 19.71 63.69C20.73 66.15 22.14 68.28 23.94 70.08C25.74 71.88 27.87 73.26 30.33 74.22C32.79 75.18 35.49 75.66 38.43 75.66C41.55 75.66 44.43 75.06 47.07 73.86C49.71 72.6 52.11 70.71 54.27 68.19L63.63 76.83C60.63 80.49 56.91 83.28 52.47 85.2C48.09 87.12 43.14 88.08 37.62 88.08ZM71.607 87V20.22H85.647V51.99L82.497 47.94C84.237 44.7 86.727 42.21 89.967 40.47C93.207 38.73 96.897 37.86 101.037 37.86C104.877 37.86 108.297 38.64 111.297 40.2C114.357 41.7 116.757 44.04 118.497 47.22C120.237 50.34 121.107 54.36 121.107 59.28V87H107.067V61.44C107.067 57.54 106.197 54.66 104.457 52.8C102.777 50.94 100.377 50.01 97.257 50.01C95.037 50.01 93.027 50.49 91.227 51.45C89.487 52.35 88.107 53.76 87.087 55.68C86.127 57.6 85.647 60.06 85.647 63.06V87H71.607ZM163.534 87V77.55L162.634 75.48V58.56C162.634 55.56 161.704 53.22 159.844 51.54C158.044 49.86 155.254 49.02 151.474 49.02C148.894 49.02 146.344 49.44 143.824 50.28C141.364 51.06 139.264 52.14 137.524 53.52L132.484 43.71C135.124 41.85 138.304 40.41 142.024 39.39C145.744 38.37 149.524 37.86 153.364 37.86C160.744 37.86 166.474 39.6 170.554 43.08C174.634 46.56 176.674 51.99 176.674 59.37V87H163.534ZM148.774 87.72C144.994 87.72 141.754 87.09 139.054 85.83C136.354 84.51 134.284 82.74 132.844 80.52C131.404 78.3 130.684 75.81 130.684 73.05C130.684 70.17 131.374 67.65 132.754 65.49C134.194 63.33 136.444 61.65 139.504 60.45C142.564 59.19 146.554 58.56 151.474 58.56H164.344V66.75H153.004C149.704 66.75 147.424 67.29 146.164 68.37C144.964 69.45 144.364 70.8 144.364 72.42C144.364 74.22 145.054 75.66 146.434 76.74C147.874 77.76 149.824 78.27 152.284 78.27C154.624 78.27 156.724 77.73 158.584 76.65C160.444 75.51 161.794 73.86 162.634 71.7L164.794 78.18C163.774 81.3 161.914 83.67 159.214 85.29C156.514 86.91 153.034 87.72 148.774 87.72ZM189.38 87V20.22H203.42V87H189.38ZM216.451 87V20.22H230.491V87H216.451ZM267.551 87.72C262.031 87.72 257.171 86.64 252.971 84.48C248.831 82.32 245.621 79.38 243.341 75.66C241.061 71.88 239.921 67.59 239.921 62.79C239.921 57.93 241.031 53.64 243.251 49.92C245.531 46.14 248.621 43.2 252.521 41.1C256.421 38.94 260.831 37.86 265.751 37.86C270.491 37.86 274.751 38.88 278.531 40.92C282.371 42.9 285.401 45.78 287.621 49.56C289.841 53.28 290.951 57.75 290.951 62.97C290.951 63.51 290.921 64.14 290.861 64.86C290.801 65.52 290.741 66.15 290.681 66.75H251.351V58.56H283.301L277.901 60.99C277.901 58.47 277.391 56.28 276.371 54.42C275.351 52.56 273.941 51.12 272.141 50.1C270.341 49.02 268.241 48.48 265.841 48.48C263.441 48.48 261.311 49.02 259.451 50.1C257.651 51.12 256.241 52.59 255.221 54.51C254.201 56.37 253.691 58.59 253.691 61.17V63.33C253.691 65.97 254.261 68.31 255.401 70.35C256.601 72.33 258.251 73.86 260.351 74.94C262.511 75.96 265.031 76.47 267.911 76.47C270.491 76.47 272.741 76.08 274.661 75.3C276.641 74.52 278.441 73.35 280.061 71.79L287.531 79.89C285.311 82.41 282.521 84.36 279.161 85.74C275.801 87.06 271.931 87.72 267.551 87.72ZM300.298 87V38.58H313.708V51.99L311.188 47.94C312.928 44.7 315.418 42.21 318.658 40.47C321.898 38.73 325.588 37.86 329.728 37.86C333.568 37.86 336.988 38.64 339.988 40.2C343.048 41.7 345.448 44.04 347.188 47.22C348.928 50.34 349.798 54.36 349.798 59.28V87H335.758V61.44C335.758 57.54 334.888 54.66 333.148 52.8C331.468 50.94 329.068 50.01 325.948 50.01C323.728 50.01 321.718 50.49 319.918 51.45C318.178 52.35 316.798 53.76 315.778 55.68C314.818 57.6 314.338 60.06 314.338 63.06V87H300.298ZM385.646 105.18C381.086 105.18 376.676 104.61 372.416 103.47C368.216 102.39 364.706 100.74 361.886 98.52L367.466 88.44C369.506 90.12 372.086 91.44 375.206 92.4C378.386 93.42 381.506 93.93 384.566 93.93C389.546 93.93 393.146 92.82 395.366 90.6C397.646 88.38 398.786 85.08 398.786 80.7V73.41L399.686 61.26L399.506 49.02V38.58H412.826V78.9C412.826 87.9 410.486 94.53 405.806 98.79C401.126 103.05 394.406 105.18 385.646 105.18ZM383.486 84.66C378.986 84.66 374.906 83.7 371.246 81.78C367.646 79.8 364.736 77.07 362.516 73.59C360.356 70.05 359.276 65.94 359.276 61.26C359.276 56.52 360.356 52.41 362.516 48.93C364.736 45.39 367.646 42.66 371.246 40.74C374.906 38.82 378.986 37.86 383.486 37.86C387.566 37.86 391.166 38.7 394.286 40.38C397.406 42 399.836 44.55 401.576 48.03C403.316 51.45 404.186 55.86 404.186 61.26C404.186 66.6 403.316 71.01 401.576 74.49C399.836 77.91 397.406 80.46 394.286 82.14C391.166 83.82 387.566 84.66 383.486 84.66ZM386.276 73.14C388.736 73.14 390.926 72.66 392.846 71.7C394.766 70.68 396.266 69.27 397.346 67.47C398.426 65.67 398.966 63.6 398.966 61.26C398.966 58.86 398.426 56.79 397.346 55.05C396.266 53.25 394.766 51.87 392.846 50.91C390.926 49.89 388.736 49.38 386.276 49.38C383.816 49.38 381.626 49.89 379.706 50.91C377.786 51.87 376.256 53.25 375.116 55.05C374.036 56.79 373.496 58.86 373.496 61.26C373.496 63.6 374.036 65.67 375.116 67.47C376.256 69.27 377.786 70.68 379.706 71.7C381.626 72.66 383.816 73.14 386.276 73.14ZM449.924 87.72C444.404 87.72 439.544 86.64 435.344 84.48C431.204 82.32 427.994 79.38 425.714 75.66C423.434 71.88 422.294 67.59 422.294 62.79C422.294 57.93 423.404 53.64 425.624 49.92C427.904 46.14 430.994 43.2 434.894 41.1C438.794 38.94 443.204 37.86 448.124 37.86C452.864 37.86 457.124 38.88 460.904 40.92C464.744 42.9 467.774 45.78 469.994 49.56C472.214 53.28 473.324 57.75 473.324 62.97C473.324 63.51 473.294 64.14 473.234 64.86C473.174 65.52 473.114 66.15 473.054 66.75H433.724V58.56H465.674L460.274 60.99C460.274 58.47 459.764 56.28 458.744 54.42C457.724 52.56 456.314 51.12 454.514 50.1C452.714 49.02 450.614 48.48 448.214 48.48C445.814 48.48 443.684 49.02 441.824 50.1C440.024 51.12 438.614 52.59 437.594 54.51C436.574 56.37 436.064 58.59 436.064 61.17V63.33C436.064 65.97 436.634 68.31 437.774 70.35C438.974 72.33 440.624 73.86 442.724 74.94C444.884 75.96 447.404 76.47 450.284 76.47C452.864 76.47 455.114 76.08 457.034 75.3C459.014 74.52 460.814 73.35 462.434 71.79L469.904 79.89C467.684 82.41 464.894 84.36 461.534 85.74C458.174 87.06 454.304 87.72 449.924 87.72ZM487.981 87.72C485.581 87.72 483.511 86.91 481.771 85.29C480.091 83.61 479.251 81.48 479.251 78.9C479.251 76.32 480.091 74.25 481.771 72.69C483.511 71.07 485.581 70.26 487.981 70.26C490.441 70.26 492.511 71.07 494.191 72.69C495.871 74.25 496.711 76.32 496.711 78.9C496.711 81.48 495.871 83.61 494.191 85.29C492.511 86.91 490.441 87.72 487.981 87.72Z"/>
</mask>
<path d="M24.03 85.74L23.3012 87.6025L23.3174 87.6088L23.3336 87.6149L24.03 85.74ZM13.23 78.9L11.8443 80.3422L11.8443 80.3422L13.23 78.9ZM6.03 68.55L4.18884 69.3311L4.19382 69.3429L4.19896 69.3545L6.03 68.55ZM6.03 42.45L4.19896 41.6454L4.19382 41.6571L4.18884 41.6689L6.03 42.45ZM13.23 32.1L11.8584 30.6444L11.8513 30.6511L11.8443 30.6578L13.23 32.1ZM24.12 25.35L24.8252 27.2215L24.837 27.2171L24.8488 27.2125L24.12 25.35ZM52.47 25.8L51.667 27.6317L51.6821 27.6383L51.6972 27.6447L52.47 25.8ZM63.63 34.08L64.9866 35.5496L66.3722 34.2706L65.1768 32.8121L63.63 34.08ZM54.27 42.72L52.7671 44.0396L54.12 45.5803L55.6266 44.1896L54.27 42.72ZM47.07 37.23L46.2085 39.035L46.2254 39.043L46.2424 39.0507L47.07 37.23ZM23.94 40.92L25.3542 42.3342L25.3542 42.3342L23.94 40.92ZM19.71 47.31L17.8625 46.544L17.8545 46.5634L17.8468 46.5829L19.71 47.31ZM19.71 63.69L17.8468 64.4171L17.8545 64.4366L17.8625 64.456L19.71 63.69ZM23.94 70.08L22.5258 71.4942L22.5258 71.4942L23.94 70.08ZM47.07 73.86L47.8976 75.6807L47.9146 75.673L47.9315 75.665L47.07 73.86ZM54.27 68.19L55.6266 66.7204L54.1019 65.313L52.7515 66.8884L54.27 68.19ZM63.63 76.83L65.1768 78.0979L66.3722 76.6394L64.9866 75.3604L63.63 76.83ZM52.47 85.2L51.6762 83.3643L51.667 83.3683L52.47 85.2ZM37.62 86.08C32.9775 86.08 28.6854 85.3356 24.7264 83.8651L23.3336 87.6149C27.7746 89.2644 32.5425 90.08 37.62 90.08V86.08ZM24.7588 83.8775C20.8514 82.3485 17.4774 80.2073 14.6157 77.4578L11.8443 80.3422C15.1026 83.4727 18.9286 85.8915 23.3012 87.6025L24.7588 83.8775ZM14.6157 77.4578C11.7481 74.7027 9.49782 71.4705 7.86104 67.7455L4.19896 69.3545C6.04218 73.5495 8.59189 77.2173 11.8443 80.3422L14.6157 77.4578ZM7.87116 67.7689C6.30621 64.0801 5.51 59.9991 5.51 55.5H1.51C1.51 60.4809 2.39379 65.0999 4.18884 69.3311L7.87116 67.7689ZM5.51 55.5C5.51 51.0009 6.30621 46.9199 7.87116 43.2311L4.18884 41.6689C2.39379 45.9001 1.51 50.5191 1.51 55.5H5.51ZM7.86104 43.2545C9.49782 39.5295 11.7481 36.2973 14.6157 33.5422L11.8443 30.6578C8.59189 33.7827 6.04218 37.4505 4.19896 41.6454L7.86104 43.2545ZM14.6016 33.5556C17.523 30.8028 20.9246 28.6913 24.8252 27.2215L23.4148 23.4785C19.0354 25.1286 15.177 27.5172 11.8584 30.6444L14.6016 33.5556ZM24.8488 27.2125C28.733 25.6926 33.0128 24.92 37.71 24.92V20.92C32.5672 20.92 27.787 21.7674 23.3912 23.4875L24.8488 27.2125ZM37.71 24.92C42.9326 24.92 47.5736 25.8374 51.667 27.6317L53.273 23.9683C48.6064 21.9226 43.4074 20.92 37.71 20.92V24.92ZM51.6972 27.6447C55.8414 29.3807 59.2939 31.9449 62.0832 35.3479L65.1768 32.8121C61.9661 28.8951 57.9786 25.9393 53.2428 23.9553L51.6972 27.6447ZM62.2734 32.6104L52.9134 41.2504L55.6266 44.1896L64.9866 35.5496L62.2734 32.6104ZM55.7729 41.4004C53.45 38.7549 50.827 36.7408 47.8976 35.4093L46.2424 39.0507C48.593 40.1192 50.77 41.7651 52.7671 44.0396L55.7729 41.4004ZM47.9315 35.425C45.0047 34.0282 41.8278 33.34 38.43 33.34V37.34C41.2722 37.34 43.8553 37.9118 46.2085 39.035L47.9315 35.425ZM38.43 33.34C35.2694 33.34 32.3195 33.8567 29.6029 34.9168L31.0571 38.6432C33.2605 37.7833 35.7106 37.34 38.43 37.34V33.34ZM29.6029 34.9168C26.8951 35.9735 24.5287 37.5029 22.5258 39.5058L25.3542 42.3342C26.9513 40.7371 28.8449 39.5065 31.0571 38.6432L29.6029 34.9168ZM22.5258 39.5058C20.5317 41.4999 18.9783 43.853 17.8625 46.544L21.5575 48.076C22.4817 45.847 23.7483 43.9401 25.3542 42.3342L22.5258 39.5058ZM17.8468 46.5829C16.785 49.304 16.27 52.2848 16.27 55.5H20.27C20.27 52.7152 20.715 50.236 21.5732 48.0371L17.8468 46.5829ZM16.27 55.5C16.27 58.7152 16.785 61.696 17.8468 64.4171L21.5732 62.9629C20.715 60.764 20.27 58.2848 20.27 55.5H16.27ZM17.8625 64.456C18.9783 67.147 20.5317 69.5001 22.5258 71.4942L25.3542 68.6658C23.7483 67.0599 22.4817 65.153 21.5575 62.924L17.8625 64.456ZM22.5258 71.4942C24.5287 73.4971 26.8951 75.0265 29.6029 76.0832L31.0571 72.3568C28.8449 71.4935 26.9513 70.2629 25.3542 68.6658L22.5258 71.4942ZM29.6029 76.0832C32.3195 77.1433 35.2694 77.66 38.43 77.66V73.66C35.7106 73.66 33.2605 73.2167 31.0571 72.3568L29.6029 76.0832ZM38.43 77.66C41.8135 77.66 44.9784 77.0077 47.8976 75.6807L46.2424 72.0393C43.8816 73.1123 41.2865 73.66 38.43 73.66V77.66ZM47.9315 75.665C50.855 74.2697 53.4714 72.1949 55.7885 69.4916L52.7515 66.8884C50.7486 69.2251 48.565 70.9303 46.2085 72.055L47.9315 75.665ZM52.9134 69.6596L62.2734 78.2996L64.9866 75.3604L55.6266 66.7204L52.9134 69.6596ZM62.0832 75.5621C59.29 78.9699 55.8303 81.5679 51.6762 83.3643L53.2638 87.0357C57.9897 84.9921 61.97 82.0101 65.1768 78.0979L62.0832 75.5621ZM51.667 83.3683C47.5763 85.1615 42.9059 86.08 37.62 86.08V90.08C43.3741 90.08 48.6037 89.0785 53.273 87.0317L51.667 83.3683ZM71.607 87H69.607V89H71.607V87ZM71.607 20.22V18.22H69.607V20.22H71.607ZM85.647 20.22H87.647V18.22H85.647V20.22ZM85.647 51.99L84.0683 53.2179L87.647 57.8191V51.99H85.647ZM82.497 47.94L80.735 46.9937L80.1191 48.1405L80.9182 49.1679L82.497 47.94ZM89.967 40.47L90.9132 42.232L90.9132 42.232L89.967 40.47ZM111.297 40.2L110.374 41.9744L110.395 41.9854L110.417 41.9958L111.297 40.2ZM118.497 47.22L116.742 48.18L116.746 48.1871L116.75 48.1941L118.497 47.22ZM121.107 87V89H123.107V87H121.107ZM107.067 87H105.067V89H107.067V87ZM104.457 52.8L102.973 54.1406L102.984 54.1535L102.996 54.1663L104.457 52.8ZM91.227 51.45L92.1458 53.2264L92.157 53.2206L92.1681 53.2147L91.227 51.45ZM87.087 55.68L85.3207 54.7417L85.3091 54.7635L85.2981 54.7856L87.087 55.68ZM85.647 87V89H87.647V87H85.647ZM73.607 87V20.22H69.607V87H73.607ZM71.607 22.22H85.647V18.22H71.607V22.22ZM83.647 20.22V51.99H87.647V20.22H83.647ZM87.2257 50.7621L84.0757 46.7121L80.9182 49.1679L84.0683 53.2179L87.2257 50.7621ZM84.2589 48.8863C85.8131 45.9924 88.0193 43.7861 90.9132 42.232L89.0207 38.708C85.4346 40.6339 82.6609 43.4076 80.735 46.9937L84.2589 48.8863ZM90.9132 42.232C93.8273 40.667 97.1851 39.86 101.037 39.86V35.86C96.6088 35.86 92.5866 36.793 89.0207 38.708L90.9132 42.232ZM101.037 39.86C104.6 39.86 107.696 40.5817 110.374 41.9744L112.22 38.4256C108.898 36.6983 105.154 35.86 101.037 35.86V39.86ZM110.417 41.9958C113.082 43.3023 115.187 45.3378 116.742 48.18L120.251 46.26C118.327 42.7422 115.632 40.0977 112.177 38.4042L110.417 41.9958ZM116.75 48.1941C118.273 50.925 119.107 54.5784 119.107 59.28H123.107C123.107 54.1416 122.201 49.755 120.244 46.2459L116.75 48.1941ZM119.107 59.28V87H123.107V59.28H119.107ZM121.107 85H107.067V89H121.107V85ZM109.067 87V61.44H105.067V87H109.067ZM109.067 61.44C109.067 57.2942 108.149 53.819 105.917 51.4337L102.996 54.1663C104.245 55.501 105.067 57.7858 105.067 61.44H109.067ZM105.941 51.4594C103.792 49.0805 100.794 48.01 97.257 48.01V52.01C99.9601 52.01 101.761 52.7995 102.973 54.1406L105.941 51.4594ZM97.257 48.01C94.7383 48.01 92.4005 48.5574 90.2858 49.6853L92.1681 53.2147C93.6534 52.4226 95.3356 52.01 97.257 52.01V48.01ZM90.3081 49.6736C88.1678 50.7806 86.5096 52.5038 85.3207 54.7417L88.8532 56.6183C89.7043 55.0162 90.8061 53.9194 92.1458 53.2264L90.3081 49.6736ZM85.2981 54.7856C84.1553 57.0712 83.647 59.8656 83.647 63.06H87.647C87.647 60.2544 88.0986 58.1288 88.8758 56.5744L85.2981 54.7856ZM83.647 63.06V87H87.647V63.06H83.647ZM85.647 85H71.607V89H85.647V85ZM163.534 87H161.534V89H163.534V87ZM163.534 77.55H165.534V77.134L165.368 76.7525L163.534 77.55ZM162.634 75.48H160.634V75.896L160.799 76.2775L162.634 75.48ZM159.844 51.54L158.479 53.0021L158.491 53.0133L158.503 53.0242L159.844 51.54ZM143.824 50.28L144.428 52.1865L144.442 52.182L144.456 52.1774L143.824 50.28ZM137.524 53.52L135.745 54.434L136.858 56.6007L138.766 55.087L137.524 53.52ZM132.484 43.71L131.332 42.075L129.91 43.0768L130.705 44.624L132.484 43.71ZM142.024 39.39L141.495 37.4612L141.495 37.4612L142.024 39.39ZM170.554 43.08L171.851 41.5583L171.851 41.5583L170.554 43.08ZM176.674 87V89H178.674V87H176.674ZM139.054 85.83L138.175 87.6268L138.191 87.6347L138.208 87.6424L139.054 85.83ZM132.844 80.52L134.521 79.4316L134.521 79.4316L132.844 80.52ZM132.754 65.49L131.089 64.3806L131.079 64.3968L131.068 64.4132L132.754 65.49ZM139.504 60.45L140.234 62.3119L140.249 62.3058L140.265 62.2994L139.504 60.45ZM164.344 58.56H166.344V56.56H164.344V58.56ZM164.344 66.75V68.75H166.344V66.75H164.344ZM146.164 68.37L144.862 66.8515L144.844 66.8672L144.826 66.8834L146.164 68.37ZM146.434 76.74L145.201 78.315L145.239 78.3444L145.277 78.372L146.434 76.74ZM158.584 76.65L159.588 78.3796L159.608 78.3676L159.629 78.3552L158.584 76.65ZM162.634 71.7L164.531 71.0675L162.778 65.8097L160.77 70.9751L162.634 71.7ZM164.794 78.18L166.695 78.8015L166.9 78.1739L166.691 77.5475L164.794 78.18ZM159.214 85.29L158.185 83.575L158.185 83.575L159.214 85.29ZM165.534 87V77.55H161.534V87H165.534ZM165.368 76.7525L164.468 74.6825L160.799 76.2775L161.699 78.3475L165.368 76.7525ZM164.634 75.48V58.56H160.634V75.48H164.634ZM164.634 58.56C164.634 55.1156 163.546 52.1893 161.184 50.0558L158.503 53.0242C159.861 54.2506 160.634 56.0044 160.634 58.56H164.634ZM161.208 50.0779C158.882 47.9071 155.497 47.02 151.474 47.02V51.02C155.01 51.02 157.205 51.8129 158.479 53.0021L161.208 50.0779ZM151.474 47.02C148.672 47.02 145.909 47.4767 143.191 48.3826L144.456 52.1774C146.778 51.4033 149.115 51.02 151.474 51.02V47.02ZM143.219 48.3735C140.564 49.2153 138.239 50.3997 136.281 51.953L138.766 55.087C140.288 53.8803 142.163 52.9047 144.428 52.1865L143.219 48.3735ZM139.302 52.606L134.262 42.796L130.705 44.624L135.745 54.434L139.302 52.606ZM133.635 45.345C136.054 43.6413 139.013 42.2892 142.552 41.3188L141.495 37.4612C137.594 38.5308 134.193 40.0587 131.332 42.075L133.635 45.345ZM142.552 41.3188C146.101 40.3458 149.703 39.86 153.364 39.86V35.86C149.344 35.86 145.386 36.3942 141.495 37.4612L142.552 41.3188ZM153.364 39.86C160.446 39.86 165.654 41.5293 169.256 44.6017L171.851 41.5583C167.293 37.6707 161.041 35.86 153.364 35.86V39.86ZM169.256 44.6017C172.74 47.5738 174.674 52.3447 174.674 59.37H178.674C178.674 51.6353 176.527 45.5462 171.851 41.5583L169.256 44.6017ZM174.674 59.37V87H178.674V59.37H174.674ZM176.674 85H163.534V89H176.674V85ZM148.774 85.72C145.21 85.72 142.273 85.1255 139.899 84.0176L138.208 87.6424C141.234 89.0545 144.777 89.72 148.774 89.72V85.72ZM139.932 84.0332C137.513 82.8504 135.738 81.3078 134.521 79.4316L131.166 81.6084C132.829 84.1722 135.194 86.1696 138.175 87.6268L139.932 84.0332ZM134.521 79.4316C133.301 77.5501 132.684 75.4412 132.684 73.05H128.684C128.684 76.1788 129.506 79.0499 131.166 81.6084L134.521 79.4316ZM132.684 73.05C132.684 70.503 133.289 68.3666 134.439 66.5668L131.068 64.4132C129.458 66.9334 128.684 69.837 128.684 73.05H132.684ZM134.418 66.5994C135.577 64.8606 137.453 63.4024 140.234 62.3119L138.773 58.5881C135.434 59.8976 132.81 61.7994 131.089 64.3806L134.418 66.5994ZM140.265 62.2994C142.996 61.1749 146.699 60.56 151.474 60.56V56.56C146.408 56.56 142.131 57.205 138.742 58.6006L140.265 62.2994ZM151.474 60.56H164.344V56.56H151.474V60.56ZM162.344 58.56V66.75H166.344V58.56H162.344ZM164.344 64.75H153.004V68.75H164.344V64.75ZM153.004 64.75C149.628 64.75 146.703 65.2731 144.862 66.8515L147.465 69.8885C148.144 69.3069 149.779 68.75 153.004 68.75V64.75ZM144.826 66.8834C143.202 68.3442 142.364 70.2353 142.364 72.42H146.364C146.364 71.3647 146.725 70.5558 147.501 69.8566L144.826 66.8834ZM142.364 72.42C142.364 74.8156 143.321 76.8441 145.201 78.315L147.666 75.165C146.786 74.4759 146.364 73.6244 146.364 72.42H142.364ZM145.277 78.372C147.165 79.7091 149.568 80.27 152.284 80.27V76.27C150.079 76.27 148.582 75.8109 147.59 75.108L145.277 78.372ZM152.284 80.27C154.944 80.27 157.396 79.6521 159.588 78.3796L157.579 74.9204C156.051 75.8079 154.303 76.27 152.284 76.27V80.27ZM159.629 78.3552C161.885 76.972 163.51 74.9653 164.498 72.4249L160.77 70.9751C160.077 72.7547 159.002 74.048 157.538 74.9448L159.629 78.3552ZM160.736 72.3325L162.896 78.8125L166.691 77.5475L164.531 71.0675L160.736 72.3325ZM162.893 77.5585C162.015 80.2422 160.453 82.2139 158.185 83.575L160.243 87.005C163.374 85.1261 165.532 82.3578 166.695 78.8015L162.893 77.5585ZM158.185 83.575C155.886 84.9538 152.795 85.72 148.774 85.72V89.72C153.273 89.72 157.141 88.8662 160.243 87.005L158.185 83.575ZM189.38 87H187.38V89H189.38V87ZM189.38 20.22V18.22H187.38V20.22H189.38ZM203.42 20.22H205.42V18.22H203.42V20.22ZM203.42 87V89H205.42V87H203.42ZM191.38 87V20.22H187.38V87H191.38ZM189.38 22.22H203.42V18.22H189.38V22.22ZM201.42 20.22V87H205.42V20.22H201.42ZM203.42 85H189.38V89H203.42V85ZM216.451 87H214.451V89H216.451V87ZM216.451 20.22V18.22H214.451V20.22H216.451ZM230.491 20.22H232.491V18.22H230.491V20.22ZM230.491 87V89H232.491V87H230.491ZM218.451 87V20.22H214.451V87H218.451ZM216.451 22.22H230.491V18.22H216.451V22.22ZM228.491 20.22V87H232.491V20.22H228.491ZM230.491 85H216.451V89H230.491V85ZM252.971 84.48L252.046 86.2532L252.056 86.2586L252.971 84.48ZM243.341 75.66L241.628 76.693L241.632 76.6991L241.636 76.7051L243.341 75.66ZM243.251 49.92L241.538 48.887L241.534 48.8951L243.251 49.92ZM252.521 41.1L253.469 42.8609L253.48 42.8553L253.49 42.8496L252.521 41.1ZM278.531 40.92L277.581 42.68L277.598 42.689L277.614 42.6976L278.531 40.92ZM287.621 49.56L285.896 50.5729L285.904 50.5849L287.621 49.56ZM290.861 64.86L292.853 65.0411L292.853 65.0336L292.854 65.0261L290.861 64.86ZM290.681 66.75V68.75H292.491L292.671 66.949L290.681 66.75ZM251.351 66.75H249.351V68.75H251.351V66.75ZM251.351 58.56V56.56H249.351V58.56H251.351ZM283.301 58.56L284.122 60.3838L283.301 56.56V58.56ZM277.901 60.99H275.901V64.0832L278.722 62.8138L277.901 60.99ZM276.371 54.42L274.617 55.3817L274.617 55.3817L276.371 54.42ZM272.141 50.1L271.112 51.815L271.133 51.8278L271.155 51.84L272.141 50.1ZM259.451 50.1L260.437 51.84L260.446 51.8349L260.455 51.8296L259.451 50.1ZM255.221 54.51L256.975 55.4717L256.981 55.46L256.987 55.4483L255.221 54.51ZM255.401 70.35L253.655 71.3256L253.672 71.3564L253.691 71.3866L255.401 70.35ZM260.351 74.94L259.436 76.7186L259.466 76.734L259.497 76.7485L260.351 74.94ZM274.661 75.3L273.928 73.4392L273.918 73.4431L273.908 73.4471L274.661 75.3ZM280.061 71.79L281.531 70.4341L280.146 68.9318L278.674 70.3494L280.061 71.79ZM287.531 79.89L289.032 81.2121L290.223 79.8593L289.001 78.5341L287.531 79.89ZM279.161 85.74L279.892 87.6015L279.907 87.5959L279.921 87.59L279.161 85.74ZM267.551 85.72C262.295 85.72 257.759 84.6932 253.886 82.7014L252.056 86.2586C256.583 88.5868 261.767 89.72 267.551 89.72V85.72ZM253.896 82.7068C250.054 80.7022 247.124 78.0042 245.046 74.6149L241.636 76.7051C244.118 80.7557 247.608 83.9378 252.046 86.2532L253.896 82.7068ZM245.054 74.627C242.978 71.1858 241.921 67.2588 241.921 62.79H237.921C237.921 67.9212 239.144 72.5742 241.628 76.693L245.054 74.627ZM241.921 62.79C241.921 58.2458 242.955 54.3185 244.968 50.9449L241.534 48.8951C239.107 52.9615 237.921 57.6142 237.921 62.79H241.921ZM244.964 50.953C247.058 47.4808 249.883 44.7917 253.469 42.8609L251.573 39.3391C247.359 41.6083 244.004 44.7992 241.538 48.887L244.964 50.953ZM253.49 42.8496C257.064 40.8704 261.134 39.86 265.751 39.86V35.86C260.528 35.86 255.778 37.0096 251.552 39.3504L253.49 42.8496ZM265.751 39.86C270.194 39.86 274.122 40.8134 277.581 42.68L279.481 39.16C275.38 36.9466 270.788 35.86 265.751 35.86V39.86ZM277.614 42.6976C281.113 44.5016 283.865 47.114 285.896 50.5728L289.346 48.5472C286.937 44.446 283.629 41.2984 279.448 39.1424L277.614 42.6976ZM285.904 50.5849C287.904 53.937 288.951 58.0367 288.951 62.97H292.951C292.951 57.4633 291.778 52.623 289.338 48.5351L285.904 50.5849ZM288.951 62.97C288.951 63.4397 288.925 64.012 288.868 64.6939L292.854 65.0261C292.917 64.268 292.951 63.5803 292.951 62.97H288.951ZM288.869 64.6789C288.81 65.3335 288.75 65.9575 288.691 66.551L292.671 66.949C292.732 66.3425 292.792 65.7065 292.853 65.0411L288.869 64.6789ZM290.681 64.75H251.351V68.75H290.681V64.75ZM253.351 66.75V58.56H249.351V66.75H253.351ZM251.351 60.56H283.301V56.56H251.351V60.56ZM282.48 56.7362L277.08 59.1662L278.722 62.8138L284.122 60.3838L282.48 56.7362ZM279.901 60.99C279.901 58.197 279.334 55.6639 278.125 53.4583L274.617 55.3817C275.448 56.8961 275.901 58.743 275.901 60.99H279.901ZM278.125 53.4583C276.931 51.2813 275.259 49.5679 273.127 48.36L271.155 51.84C272.623 52.6721 273.771 53.8387 274.617 55.3817L278.125 53.4583ZM273.17 48.385C271.017 47.093 268.551 46.48 265.841 46.48V50.48C267.931 50.48 269.665 50.947 271.112 51.815L273.17 48.385ZM265.841 46.48C263.13 46.48 260.646 47.0934 258.447 48.3704L260.455 51.8296C261.976 50.9466 263.752 50.48 265.841 50.48V46.48ZM258.465 48.36C256.317 49.5773 254.644 51.3336 253.455 53.5717L256.987 55.4483C257.838 53.8464 258.985 52.6627 260.437 51.84L258.465 48.36ZM253.467 53.5483C252.254 55.7605 251.691 58.326 251.691 61.17H255.691C255.691 58.854 256.148 56.9795 256.975 55.4717L253.467 53.5483ZM251.691 61.17V63.33H255.691V61.17H251.691ZM251.691 63.33C251.691 66.2665 252.328 68.9505 253.655 71.3256L257.147 69.3744C256.194 67.6695 255.691 65.6735 255.691 63.33H251.691ZM253.691 71.3866C255.086 73.6893 257.015 75.4731 259.436 76.7186L261.266 73.1614C259.487 72.2469 258.116 70.9707 257.111 69.3134L253.691 71.3866ZM259.497 76.7485C261.973 77.9179 264.795 78.47 267.911 78.47V74.47C265.267 74.47 263.049 74.0021 261.205 73.1315L259.497 76.7485ZM267.911 78.47C270.688 78.47 273.204 78.0507 275.414 77.1529L273.908 73.4471C272.278 74.1093 270.294 74.47 267.911 74.47V78.47ZM275.394 77.1608C277.631 76.2795 279.651 74.9617 281.448 73.2306L278.674 70.3494C277.231 71.7383 275.651 72.7605 273.928 73.4392L275.394 77.1608ZM278.591 73.1459L286.061 81.2459L289.001 78.5341L281.531 70.4341L278.591 73.1459ZM286.03 78.5679C284.03 80.8389 281.501 82.617 278.401 83.89L279.921 87.59C283.541 86.103 286.592 83.9811 289.032 81.2121L286.03 78.5679ZM278.43 83.8785C275.347 85.0897 271.733 85.72 267.551 85.72V89.72C272.129 89.72 276.255 89.0303 279.892 87.6015L278.43 83.8785ZM300.298 87H298.298V89H300.298V87ZM300.298 38.58V36.58H298.298V38.58H300.298ZM313.708 38.58H315.708V36.58H313.708V38.58ZM313.708 51.99L312.01 53.0466L315.708 58.99V51.99H313.708ZM311.188 47.94L309.426 46.9937L308.879 48.0137L309.49 48.9966L311.188 47.94ZM318.658 40.47L319.605 42.232L319.605 42.232L318.658 40.47ZM339.988 40.2L339.066 41.9744L339.087 41.9854L339.108 41.9958L339.988 40.2ZM347.188 47.22L345.434 48.18L345.438 48.1871L345.442 48.1941L347.188 47.22ZM349.798 87V89H351.798V87H349.798ZM335.758 87H333.758V89H335.758V87ZM333.148 52.8L331.664 54.1406L331.676 54.1535L331.688 54.1663L333.148 52.8ZM319.918 51.45L320.837 53.2264L320.848 53.2206L320.86 53.2147L319.918 51.45ZM315.778 55.68L314.012 54.7417L314.001 54.7635L313.99 54.7856L315.778 55.68ZM314.338 87V89H316.338V87H314.338ZM302.298 87V38.58H298.298V87H302.298ZM300.298 40.58H313.708V36.58H300.298V40.58ZM311.708 38.58V51.99H315.708V38.58H311.708ZM315.406 50.9334L312.886 46.8834L309.49 48.9966L312.01 53.0466L315.406 50.9334ZM312.95 48.8863C314.504 45.9924 316.711 43.7861 319.605 42.232L317.712 38.708C314.126 40.6339 311.352 43.4076 309.426 46.9937L312.95 48.8863ZM319.605 42.232C322.519 40.667 325.876 39.86 329.728 39.86V35.86C325.3 35.86 321.278 36.793 317.712 38.708L319.605 42.232ZM329.728 39.86C333.291 39.86 336.387 40.5817 339.066 41.9744L340.911 38.4256C337.589 36.6983 333.846 35.86 329.728 35.86V39.86ZM339.108 41.9958C341.773 43.3023 343.879 45.3378 345.434 48.18L348.943 46.26C347.018 42.7422 344.324 40.0977 340.869 38.4042L339.108 41.9958ZM345.442 48.1941C346.965 50.925 347.798 54.5784 347.798 59.28H351.798C351.798 54.1416 350.892 49.755 348.935 46.2459L345.442 48.1941ZM347.798 59.28V87H351.798V59.28H347.798ZM349.798 85H335.758V89H349.798V85ZM337.758 87V61.44H333.758V87H337.758ZM337.758 61.44C337.758 57.2942 336.84 53.819 334.609 51.4337L331.688 54.1663C332.936 55.501 333.758 57.7858 333.758 61.44H337.758ZM334.633 51.4594C332.484 49.0805 329.485 48.01 325.948 48.01V52.01C328.652 52.01 330.453 52.7995 331.664 54.1406L334.633 51.4594ZM325.948 48.01C323.43 48.01 321.092 48.5574 318.977 49.6853L320.86 53.2147C322.345 52.4226 324.027 52.01 325.948 52.01V48.01ZM319 49.6736C316.859 50.7806 315.201 52.5038 314.012 54.7417L317.545 56.6183C318.396 55.0162 319.498 53.9194 320.837 53.2264L319 49.6736ZM313.99 54.7856C312.847 57.0712 312.338 59.8656 312.338 63.06H316.338C316.338 60.2544 316.79 58.1288 317.567 56.5744L313.99 54.7856ZM312.338 63.06V87H316.338V63.06H312.338ZM314.338 85H300.298V89H314.338V85ZM372.416 103.47L372.934 101.538L372.924 101.535L372.915 101.533L372.416 103.47ZM361.886 98.52L360.137 97.5514L359.313 99.0394L360.649 100.091L361.886 98.52ZM367.466 88.44L368.738 86.8961L366.881 85.3673L365.717 87.4714L367.466 88.44ZM375.206 92.4L375.817 90.4956L375.806 90.4919L375.795 90.4884L375.206 92.4ZM395.366 90.6L393.971 89.1671L393.962 89.1764L393.952 89.1858L395.366 90.6ZM398.786 73.41L396.792 73.2623L396.786 73.336V73.41H398.786ZM399.686 61.26L401.681 61.4077L401.688 61.3193L401.686 61.2306L399.686 61.26ZM399.506 49.02H397.506V49.0347L397.507 49.0494L399.506 49.02ZM399.506 38.58V36.58H397.506V38.58H399.506ZM412.826 38.58H414.826V36.58H412.826V38.58ZM405.806 98.79L407.153 100.269L407.153 100.269L405.806 98.79ZM371.246 81.78L370.283 83.5324L370.3 83.5419L370.317 83.5511L371.246 81.78ZM362.516 73.59L360.809 74.6317L360.82 74.6488L360.83 74.6656L362.516 73.59ZM362.516 48.93L360.822 47.8674L360.817 47.8753L362.516 48.93ZM371.246 40.74L370.317 38.9689L370.305 38.9753L371.246 40.74ZM394.286 40.38L393.338 42.1409L393.352 42.1481L393.365 42.155L394.286 40.38ZM401.576 48.03L399.788 48.9244L399.794 48.9369L401.576 48.03ZM401.576 74.49L403.359 75.3969L403.365 75.3844L401.576 74.49ZM394.286 82.14L395.235 83.9009L395.235 83.9009L394.286 82.14ZM392.846 71.7L393.741 73.4889L393.763 73.4778L393.785 73.4662L392.846 71.7ZM397.346 55.05L395.631 56.079L395.639 56.0919L395.647 56.1047L397.346 55.05ZM392.846 50.91L391.908 52.6762L391.93 52.6878L391.952 52.6989L392.846 50.91ZM379.706 50.91L380.601 52.6989L380.623 52.6878L380.645 52.6762L379.706 50.91ZM375.116 55.05L373.427 53.9799L373.422 53.9876L373.417 53.9953L375.116 55.05ZM375.116 67.47L373.401 68.499L373.414 68.5197L373.427 68.5401L375.116 67.47ZM379.706 71.7L378.768 73.4662L378.79 73.4778L378.812 73.4889L379.706 71.7ZM385.646 103.18C381.255 103.18 377.019 102.631 372.934 101.538L371.899 105.402C376.334 106.589 380.918 107.18 385.646 107.18V103.18ZM372.915 101.533C368.929 100.508 365.685 98.9648 363.124 96.9485L360.649 100.091C363.728 102.515 367.504 104.272 371.918 105.407L372.915 101.533ZM363.636 99.4886L369.216 89.4086L365.717 87.4714L360.137 97.5514L363.636 99.4886ZM366.195 89.9839C368.478 91.8639 371.306 93.2923 374.618 94.3116L375.795 90.4884C372.867 89.5877 370.535 88.3761 368.738 86.8961L366.195 89.9839ZM374.596 94.3044C377.955 95.382 381.281 95.93 384.566 95.93V91.93C381.732 91.93 378.818 91.458 375.817 90.4956L374.596 94.3044ZM384.566 95.93C389.777 95.93 394.016 94.7785 396.781 92.0142L393.952 89.1858C392.277 90.8615 389.316 91.93 384.566 91.93V95.93ZM396.762 92.0329C399.556 89.3124 400.786 85.4114 400.786 80.7H396.786C396.786 84.7486 395.737 87.4476 393.971 89.1671L396.762 92.0329ZM400.786 80.7V73.41H396.786V80.7H400.786ZM400.781 73.5577L401.681 61.4077L397.692 61.1123L396.792 73.2623L400.781 73.5577ZM401.686 61.2306L401.506 48.9906L397.507 49.0494L397.687 61.2894L401.686 61.2306ZM401.506 49.02V38.58H397.506V49.02H401.506ZM399.506 40.58H412.826V36.58H399.506V40.58ZM410.826 38.58V78.9H414.826V38.58H410.826ZM410.826 78.9C410.826 87.5804 408.573 93.5676 404.46 97.311L407.153 100.269C412.4 95.4924 414.826 88.2196 414.826 78.9H410.826ZM404.46 97.311C400.269 101.126 394.101 103.18 385.646 103.18V107.18C394.712 107.18 401.984 104.974 407.153 100.269L404.46 97.311ZM383.486 82.66C379.281 82.66 375.524 81.7655 372.176 80.0089L370.317 83.5511C374.289 85.6345 378.692 86.66 383.486 86.66V82.66ZM372.21 80.0276C368.905 78.2099 366.243 75.7132 364.203 72.5144L360.83 74.6656C363.23 78.4268 366.388 81.3901 370.283 83.5324L372.21 80.0276ZM364.224 72.5483C362.279 69.3609 361.276 65.6209 361.276 61.26H357.276C357.276 66.2591 358.434 70.7391 360.809 74.6317L364.224 72.5483ZM361.276 61.26C361.276 56.833 362.282 53.1009 364.216 49.9847L360.817 47.8753C358.431 51.7191 357.276 56.207 357.276 61.26H361.276ZM364.211 49.9926C366.25 46.7409 368.903 44.2563 372.188 42.5047L370.305 38.9753C366.39 41.0637 363.223 44.0391 360.822 47.8674L364.211 49.9926ZM372.176 42.5111C375.524 40.7545 379.281 39.86 383.486 39.86V35.86C378.692 35.86 374.289 36.8855 370.317 38.9689L372.176 42.5111ZM383.486 39.86C387.286 39.86 390.551 40.6402 393.338 42.1409L395.235 38.6191C391.782 36.7598 387.847 35.86 383.486 35.86V39.86ZM393.365 42.155C396.07 43.5597 398.215 45.7798 399.788 48.9244L403.365 47.1356C401.458 43.3202 398.743 40.4403 395.208 38.605L393.365 42.155ZM399.794 48.9369C401.345 51.9853 402.186 56.0547 402.186 61.26H406.186C406.186 55.6653 405.288 50.9147 403.359 47.1231L399.794 48.9369ZM402.186 61.26C402.186 66.399 401.347 70.4769 399.788 73.5956L403.365 75.3844C405.286 71.5431 406.186 66.801 406.186 61.26H402.186ZM399.794 73.5831C398.223 76.6717 396.07 78.9083 393.338 80.3791L395.235 83.9009C398.743 82.0117 401.45 79.1483 403.359 75.3969L399.794 73.5831ZM393.338 80.3791C390.551 81.8798 387.286 82.66 383.486 82.66V86.66C387.847 86.66 391.782 85.7602 395.235 83.9009L393.338 80.3791ZM386.276 75.14C389.001 75.14 391.505 74.6067 393.741 73.4889L391.952 69.9111C390.348 70.7133 388.471 71.14 386.276 71.14V75.14ZM393.785 73.4662C396.014 72.282 397.788 70.6222 399.061 68.499L395.631 66.441C394.745 67.9178 393.519 69.078 391.908 69.9338L393.785 73.4662ZM399.061 68.499C400.349 66.3535 400.966 63.9198 400.966 61.26H396.966C396.966 63.2802 396.504 64.9865 395.631 66.441L399.061 68.499ZM400.966 61.26C400.966 58.5523 400.354 56.103 399.046 53.9953L395.647 56.1047C396.499 57.477 396.966 59.1677 396.966 61.26H400.966ZM399.061 54.021C397.781 51.8871 395.993 50.2472 393.741 49.1211L391.952 52.6989C393.54 53.4928 394.752 54.6129 395.631 56.079L399.061 54.021ZM393.785 49.1438C391.54 47.9511 389.02 47.38 386.276 47.38V51.38C388.453 51.38 390.313 51.8289 391.908 52.6762L393.785 49.1438ZM386.276 47.38C383.533 47.38 381.013 47.9511 378.768 49.1438L380.645 52.6762C382.24 51.8289 384.1 51.38 386.276 51.38V47.38ZM378.812 49.1211C376.569 50.2426 374.763 51.87 373.427 53.9799L376.806 56.1201C377.75 54.63 379.004 53.4974 380.601 52.6989L378.812 49.1211ZM373.417 53.9953C372.109 56.103 371.496 58.5523 371.496 61.26H375.496C375.496 59.1677 375.964 57.477 376.816 56.1047L373.417 53.9953ZM371.496 61.26C371.496 63.9198 372.114 66.3535 373.401 68.499L376.831 66.441C375.959 64.9865 375.496 63.2802 375.496 61.26H371.496ZM373.427 68.5401C374.757 70.6396 376.548 72.2868 378.768 73.4662L380.645 69.9338C379.025 69.0732 377.756 67.9004 376.806 66.3999L373.427 68.5401ZM378.812 73.4889C381.048 74.6067 383.551 75.14 386.276 75.14V71.14C384.081 71.14 382.205 70.7133 380.601 69.9111L378.812 73.4889ZM435.344 84.48L434.419 86.2532L434.429 86.2586L435.344 84.48ZM425.714 75.66L424.001 76.693L424.005 76.6991L424.009 76.7051L425.714 75.66ZM425.624 49.92L423.911 48.887L423.907 48.8951L425.624 49.92ZM434.894 41.1L435.842 42.8609L435.853 42.8553L435.863 42.8496L434.894 41.1ZM460.904 40.92L459.954 42.68L459.971 42.689L459.987 42.6976L460.904 40.92ZM469.994 49.56L468.269 50.5729L468.277 50.5849L469.994 49.56ZM473.234 64.86L475.226 65.0411L475.227 65.0336L475.227 65.0261L473.234 64.86ZM473.054 66.75V68.75H474.864L475.044 66.949L473.054 66.75ZM433.724 66.75H431.724V68.75H433.724V66.75ZM433.724 58.56V56.56H431.724V58.56H433.724ZM465.674 58.56L466.495 60.3838L465.674 56.56V58.56ZM460.274 60.99H458.274V64.0832L461.095 62.8138L460.274 60.99ZM458.744 54.42L456.99 55.3817L456.99 55.3817L458.744 54.42ZM454.514 50.1L453.485 51.815L453.506 51.8278L453.528 51.84L454.514 50.1ZM441.824 50.1L442.81 51.84L442.819 51.8349L442.828 51.8296L441.824 50.1ZM437.594 54.51L439.348 55.4717L439.354 55.46L439.36 55.4483L437.594 54.51ZM437.774 70.35L436.028 71.3256L436.045 71.3564L436.064 71.3866L437.774 70.35ZM442.724 74.94L441.809 76.7186L441.839 76.734L441.87 76.7485L442.724 74.94ZM457.034 75.3L456.301 73.4392L456.291 73.4431L456.281 73.4471L457.034 75.3ZM462.434 71.79L463.904 70.4341L462.519 68.9318L461.047 70.3494L462.434 71.79ZM469.904 79.89L471.405 81.2121L472.596 79.8593L471.374 78.5341L469.904 79.89ZM461.534 85.74L462.265 87.6015L462.28 87.5959L462.294 87.59L461.534 85.74ZM449.924 85.72C444.669 85.72 440.132 84.6932 436.259 82.7014L434.429 86.2586C438.956 88.5868 444.14 89.72 449.924 89.72V85.72ZM436.269 82.7068C432.427 80.7022 429.497 78.0042 427.419 74.6149L424.009 76.7051C426.492 80.7557 429.981 83.9378 434.419 86.2532L436.269 82.7068ZM427.427 74.627C425.351 71.1858 424.294 67.2588 424.294 62.79H420.294C420.294 67.9212 421.517 72.5742 424.001 76.693L427.427 74.627ZM424.294 62.79C424.294 58.2458 425.328 54.3185 427.341 50.9449L423.907 48.8951C421.48 52.9615 420.294 57.6142 420.294 62.79H424.294ZM427.337 50.953C429.431 47.4808 432.257 44.7917 435.842 42.8609L433.946 39.3391C429.732 41.6083 426.377 44.7992 423.911 48.887L427.337 50.953ZM435.863 42.8496C439.437 40.8704 443.507 39.86 448.124 39.86V35.86C442.901 35.86 438.152 37.0096 433.925 39.3504L435.863 42.8496ZM448.124 39.86C452.567 39.86 456.495 40.8134 459.954 42.68L461.854 39.16C457.753 36.9466 453.161 35.86 448.124 35.86V39.86ZM459.987 42.6976C463.486 44.5016 466.238 47.114 468.269 50.5728L471.719 48.5472C469.31 44.446 466.002 41.2984 461.821 39.1424L459.987 42.6976ZM468.277 50.5849C470.277 53.937 471.324 58.0367 471.324 62.97H475.324C475.324 57.4633 474.151 52.623 471.711 48.5351L468.277 50.5849ZM471.324 62.97C471.324 63.4397 471.298 64.012 471.241 64.6939L475.227 65.0261C475.29 64.268 475.324 63.5803 475.324 62.97H471.324ZM471.242 64.6789C471.183 65.3335 471.123 65.9575 471.064 66.551L475.044 66.949C475.105 66.3425 475.165 65.7065 475.226 65.0411L471.242 64.6789ZM473.054 64.75H433.724V68.75H473.054V64.75ZM435.724 66.75V58.56H431.724V66.75H435.724ZM433.724 60.56H465.674V56.56H433.724V60.56ZM464.853 56.7362L459.453 59.1662L461.095 62.8138L466.495 60.3838L464.853 56.7362ZM462.274 60.99C462.274 58.197 461.707 55.6639 460.498 53.4583L456.99 55.3817C457.821 56.8961 458.274 58.743 458.274 60.99H462.274ZM460.498 53.4583C459.304 51.2813 457.632 49.5679 455.5 48.36L453.528 51.84C454.996 52.6721 456.144 53.8387 456.99 55.3817L460.498 53.4583ZM455.543 48.385C453.39 47.093 450.924 46.48 448.214 46.48V50.48C450.305 50.48 452.038 50.947 453.485 51.815L455.543 48.385ZM448.214 46.48C445.503 46.48 443.019 47.0934 440.82 48.3704L442.828 51.8296C444.349 50.9466 446.125 50.48 448.214 50.48V46.48ZM440.838 48.36C438.69 49.5773 437.017 51.3336 435.828 53.5717L439.36 55.4483C440.211 53.8464 441.358 52.6627 442.81 51.84L440.838 48.36ZM435.84 53.5483C434.627 55.7605 434.064 58.326 434.064 61.17H438.064C438.064 58.854 438.521 56.9795 439.348 55.4717L435.84 53.5483ZM434.064 61.17V63.33H438.064V61.17H434.064ZM434.064 63.33C434.064 66.2665 434.701 68.9505 436.028 71.3256L439.52 69.3744C438.567 67.6695 438.064 65.6735 438.064 63.33H434.064ZM436.064 71.3866C437.459 73.6893 439.388 75.4731 441.809 76.7186L443.639 73.1614C441.861 72.2469 440.489 70.9707 439.484 69.3134L436.064 71.3866ZM441.87 76.7485C444.346 77.9179 447.169 78.47 450.284 78.47V74.47C447.64 74.47 445.422 74.0021 443.578 73.1315L441.87 76.7485ZM450.284 78.47C453.061 78.47 455.577 78.0507 457.787 77.1529L456.281 73.4471C454.651 74.1093 452.667 74.47 450.284 74.47V78.47ZM457.767 77.1608C460.004 76.2795 462.024 74.9617 463.821 73.2306L461.047 70.3494C459.604 71.7383 458.024 72.7605 456.301 73.4392L457.767 77.1608ZM460.964 73.1459L468.434 81.2459L471.374 78.5341L463.904 70.4341L460.964 73.1459ZM468.403 78.5679C466.403 80.8389 463.874 82.617 460.774 83.89L462.294 87.59C465.915 86.103 468.965 83.9811 471.405 81.2121L468.403 78.5679ZM460.803 83.8785C457.72 85.0897 454.106 85.72 449.924 85.72V89.72C454.502 89.72 458.629 89.0303 462.265 87.6015L460.803 83.8785ZM481.771 85.29L480.357 86.7042L480.382 86.7295L480.409 86.7538L481.771 85.29ZM481.771 72.69L483.132 74.1556L483.134 74.1538L481.771 72.69ZM494.191 72.69L492.803 74.1297L492.817 74.1428L492.831 74.1556L494.191 72.69ZM494.191 85.29L495.58 86.7297L495.593 86.7171L495.606 86.7042L494.191 85.29ZM487.981 85.72C486.082 85.72 484.5 85.098 483.134 83.8262L480.409 86.7538C482.523 88.722 485.081 89.72 487.981 89.72V85.72ZM483.186 83.8758C481.915 82.605 481.251 80.9998 481.251 78.9H477.251C477.251 81.9602 478.268 84.615 480.357 86.7042L483.186 83.8758ZM481.251 78.9C481.251 76.7991 481.913 75.2878 483.132 74.1556L480.411 71.2244C478.27 73.2122 477.251 75.8409 477.251 78.9H481.251ZM483.134 74.1538C484.5 72.882 486.082 72.26 487.981 72.26V68.26C485.081 68.26 482.523 69.258 480.409 71.2262L483.134 74.1538ZM487.981 72.26C489.955 72.26 491.518 72.8901 492.803 74.1297L495.58 71.2503C493.505 69.2499 490.928 68.26 487.981 68.26V72.26ZM492.831 74.1556C494.05 75.2878 494.711 76.7991 494.711 78.9H498.711C498.711 75.8409 497.693 73.2122 495.552 71.2244L492.831 74.1556ZM494.711 78.9C494.711 80.9998 494.048 82.605 492.777 83.8758L495.606 86.7042C497.695 84.615 498.711 81.9602 498.711 78.9H494.711ZM492.803 83.8503C491.518 85.0899 489.955 85.72 487.981 85.72V89.72C490.928 89.72 493.505 88.7301 495.58 86.7297L492.803 83.8503Z" fill="#2E2E2E" mask="url(#path-1-outside-1_348_1559)"/>
</svg>
