<svg width="784" height="110" viewBox="0 0 784 110" fill="none" xmlns="http://www.w3.org/2000/svg">
<mask id="path-1-outside-1_348_1558" maskUnits="userSpaceOnUse" x="1" y="14" width="635" height="77" fill="black">
<rect fill="white" x="1" y="14" width="635" height="77"/>
<path d="M37.62 88.08C32.76 88.08 28.23 87.3 24.03 85.74C19.89 84.12 16.29 81.84 13.23 78.9C10.17 75.96 7.77 72.51 6.03 68.55C4.35 64.59 3.51 60.24 3.51 55.5C3.51 50.76 4.35 46.41 6.03 42.45C7.77 38.49 10.17 35.04 13.23 32.1C16.35 29.16 19.98 26.91 24.12 25.35C28.26 23.73 32.79 22.92 37.71 22.92C43.17 22.92 48.09 23.88 52.47 25.8C56.91 27.66 60.63 30.42 63.63 34.08L54.27 42.72C52.11 40.26 49.71 38.43 47.07 37.23C44.43 35.97 41.55 35.34 38.43 35.34C35.49 35.34 32.79 35.82 30.33 36.78C27.87 37.74 25.74 39.12 23.94 40.92C22.14 42.72 20.73 44.85 19.71 47.31C18.75 49.77 18.27 52.5 18.27 55.5C18.27 58.5 18.75 61.23 19.71 63.69C20.73 66.15 22.14 68.28 23.94 70.08C25.74 71.88 27.87 73.26 30.33 74.22C32.79 75.18 35.49 75.66 38.43 75.66C41.55 75.66 44.43 75.06 47.07 73.86C49.71 72.6 52.11 70.71 54.27 68.19L63.63 76.83C60.63 80.49 56.91 83.28 52.47 85.2C48.09 87.12 43.14 88.08 37.62 88.08ZM92.977 87.72C87.817 87.72 83.227 86.64 79.207 84.48C75.247 82.32 72.097 79.38 69.757 75.66C67.477 71.88 66.337 67.59 66.337 62.79C66.337 57.93 67.477 53.64 69.757 49.92C72.097 46.14 75.247 43.2 79.207 41.1C83.227 38.94 87.817 37.86 92.977 37.86C98.077 37.86 102.637 38.94 106.657 41.1C110.677 43.2 113.827 46.11 116.107 49.83C118.387 53.55 119.527 57.87 119.527 62.79C119.527 67.59 118.387 71.88 116.107 75.66C113.827 79.38 110.677 82.32 106.657 84.48C102.637 86.64 98.077 87.72 92.977 87.72ZM92.977 76.2C95.317 76.2 97.417 75.66 99.277 74.58C101.137 73.5 102.607 71.97 103.687 69.99C104.767 67.95 105.307 65.55 105.307 62.79C105.307 59.97 104.767 57.57 103.687 55.59C102.607 53.61 101.137 52.08 99.277 51C97.417 49.92 95.317 49.38 92.977 49.38C90.637 49.38 88.537 49.92 86.677 51C84.817 52.08 83.317 53.61 82.177 55.59C81.097 57.57 80.557 59.97 80.557 62.79C80.557 65.55 81.097 67.95 82.177 69.99C83.317 71.97 84.817 73.5 86.677 74.58C88.537 75.66 90.637 76.2 92.977 76.2ZM128.912 87V38.58H142.322V51.99L139.802 47.94C141.542 44.7 144.032 42.21 147.272 40.47C150.512 38.73 154.202 37.86 158.342 37.86C162.182 37.86 165.602 38.64 168.602 40.2C171.662 41.7 174.062 44.04 175.802 47.22C177.542 50.34 178.412 54.36 178.412 59.28V87H164.372V61.44C164.372 57.54 163.502 54.66 161.762 52.8C160.082 50.94 157.682 50.01 154.562 50.01C152.342 50.01 150.332 50.49 148.532 51.45C146.792 52.35 145.412 53.76 144.392 55.68C143.432 57.6 142.952 60.06 142.952 63.06V87H128.912ZM207.428 87.72C203.288 87.72 199.298 87.24 195.458 86.28C191.678 85.26 188.678 84 186.458 82.5L191.138 72.42C193.358 73.8 195.968 74.94 198.968 75.84C202.028 76.68 205.028 77.1 207.968 77.1C211.208 77.1 213.488 76.71 214.808 75.93C216.188 75.15 216.878 74.07 216.878 72.69C216.878 71.55 216.338 70.71 215.258 70.17C214.238 69.57 212.858 69.12 211.118 68.82C209.378 68.52 207.458 68.22 205.358 67.92C203.318 67.62 201.248 67.23 199.148 66.75C197.048 66.21 195.128 65.43 193.388 64.41C191.648 63.39 190.238 62.01 189.158 60.27C188.138 58.53 187.628 56.28 187.628 53.52C187.628 50.46 188.498 47.76 190.238 45.42C192.038 43.08 194.618 41.25 197.978 39.93C201.338 38.55 205.358 37.86 210.038 37.86C213.338 37.86 216.698 38.22 220.118 38.94C223.538 39.66 226.388 40.71 228.668 42.09L223.988 52.08C221.648 50.7 219.278 49.77 216.878 49.29C214.538 48.75 212.258 48.48 210.038 48.48C206.918 48.48 204.638 48.9 203.198 49.74C201.758 50.58 201.038 51.66 201.038 52.98C201.038 54.18 201.548 55.08 202.568 55.68C203.648 56.28 205.058 56.76 206.798 57.12C208.538 57.48 210.428 57.81 212.468 58.11C214.568 58.35 216.668 58.74 218.768 59.28C220.868 59.82 222.758 60.6 224.438 61.62C226.178 62.58 227.588 63.93 228.668 65.67C229.748 67.35 230.288 69.57 230.288 72.33C230.288 75.33 229.388 78 227.588 80.34C225.788 82.62 223.178 84.42 219.758 85.74C216.398 87.06 212.288 87.72 207.428 87.72ZM258.751 87.72C253.051 87.72 248.611 86.28 245.431 83.4C242.251 80.46 240.661 76.11 240.661 70.35V27.87H254.701V70.17C254.701 72.21 255.241 73.8 256.321 74.94C257.401 76.02 258.871 76.56 260.731 76.56C262.951 76.56 264.841 75.96 266.401 74.76L270.181 84.66C268.741 85.68 267.001 86.46 264.961 87C262.981 87.48 260.911 87.72 258.751 87.72ZM233.191 49.38V38.58H266.761V49.38H233.191ZM278.062 87V38.58H291.472V52.26L289.582 48.3C291.022 44.88 293.332 42.3 296.512 40.56C299.692 38.76 303.562 37.86 308.122 37.86V50.82C307.522 50.76 306.982 50.73 306.502 50.73C306.022 50.67 305.512 50.64 304.972 50.64C301.132 50.64 298.012 51.75 295.612 53.97C293.272 56.13 292.102 59.52 292.102 64.14V87H278.062ZM337.252 87.72C333.232 87.72 329.632 86.94 326.452 85.38C323.332 83.82 320.902 81.45 319.162 78.27C317.422 75.03 316.552 70.92 316.552 65.94V38.58H330.592V63.87C330.592 67.89 331.432 70.86 333.112 72.78C334.852 74.64 337.282 75.57 340.402 75.57C342.562 75.57 344.482 75.12 346.162 74.22C347.842 73.26 349.162 71.82 350.122 69.9C351.082 67.92 351.562 65.46 351.562 62.52V38.58H365.602V87H352.282V73.68L354.712 77.55C353.092 80.91 350.692 83.46 347.512 85.2C344.392 86.88 340.972 87.72 337.252 87.72ZM402.009 87.72C396.789 87.72 392.139 86.67 388.059 84.57C383.979 82.41 380.769 79.44 378.429 75.66C376.149 71.88 375.009 67.59 375.009 62.79C375.009 57.93 376.149 53.64 378.429 49.92C380.769 46.14 383.979 43.2 388.059 41.1C392.139 38.94 396.789 37.86 402.009 37.86C407.109 37.86 411.549 38.94 415.329 41.1C419.109 43.2 421.899 46.23 423.699 50.19L412.809 56.04C411.549 53.76 409.959 52.08 408.039 51C406.179 49.92 404.139 49.38 401.919 49.38C399.519 49.38 397.359 49.92 395.439 51C393.519 52.08 391.989 53.61 390.849 55.59C389.769 57.57 389.229 59.97 389.229 62.79C389.229 65.61 389.769 68.01 390.849 69.99C391.989 71.97 393.519 73.5 395.439 74.58C397.359 75.66 399.519 76.2 401.919 76.2C404.139 76.2 406.179 75.69 408.039 74.67C409.959 73.59 411.549 71.88 412.809 69.54L423.699 75.48C421.899 79.38 419.109 82.41 415.329 84.57C411.549 86.67 407.109 87.72 402.009 87.72ZM452.286 87.72C446.586 87.72 442.146 86.28 438.966 83.4C435.786 80.46 434.196 76.11 434.196 70.35V27.87H448.236V70.17C448.236 72.21 448.776 73.8 449.856 74.94C450.936 76.02 452.406 76.56 454.266 76.56C456.486 76.56 458.376 75.96 459.936 74.76L463.716 84.66C462.276 85.68 460.536 86.46 458.496 87C456.516 87.48 454.446 87.72 452.286 87.72ZM426.726 49.38V38.58H460.296V49.38H426.726ZM471.597 87V38.58H485.637V87H471.597ZM478.617 31.83C476.037 31.83 473.937 31.08 472.317 29.58C470.697 28.08 469.887 26.22 469.887 24C469.887 21.78 470.697 19.92 472.317 18.42C473.937 16.92 476.037 16.17 478.617 16.17C481.197 16.17 483.297 16.89 484.917 18.33C486.537 19.71 487.347 21.51 487.347 23.73C487.347 26.07 486.537 28.02 484.917 29.58C483.357 31.08 481.257 31.83 478.617 31.83ZM521.708 87.72C516.548 87.72 511.958 86.64 507.938 84.48C503.978 82.32 500.828 79.38 498.488 75.66C496.208 71.88 495.068 67.59 495.068 62.79C495.068 57.93 496.208 53.64 498.488 49.92C500.828 46.14 503.978 43.2 507.938 41.1C511.958 38.94 516.548 37.86 521.708 37.86C526.808 37.86 531.368 38.94 535.388 41.1C539.408 43.2 542.558 46.11 544.838 49.83C547.118 53.55 548.258 57.87 548.258 62.79C548.258 67.59 547.118 71.88 544.838 75.66C542.558 79.38 539.408 82.32 535.388 84.48C531.368 86.64 526.808 87.72 521.708 87.72ZM521.708 76.2C524.048 76.2 526.148 75.66 528.008 74.58C529.868 73.5 531.338 71.97 532.418 69.99C533.498 67.95 534.038 65.55 534.038 62.79C534.038 59.97 533.498 57.57 532.418 55.59C531.338 53.61 529.868 52.08 528.008 51C526.148 49.92 524.048 49.38 521.708 49.38C519.368 49.38 517.268 49.92 515.408 51C513.548 52.08 512.048 53.61 510.908 55.59C509.828 57.57 509.288 59.97 509.288 62.79C509.288 65.55 509.828 67.95 510.908 69.99C512.048 71.97 513.548 73.5 515.408 74.58C517.268 75.66 519.368 76.2 521.708 76.2ZM557.642 87V38.58H571.052V51.99L568.532 47.94C570.272 44.7 572.762 42.21 576.002 40.47C579.242 38.73 582.932 37.86 587.072 37.86C590.912 37.86 594.332 38.64 597.332 40.2C600.392 41.7 602.792 44.04 604.532 47.22C606.272 50.34 607.142 54.36 607.142 59.28V87H593.102V61.44C593.102 57.54 592.232 54.66 590.492 52.8C588.812 50.94 586.412 50.01 583.292 50.01C581.072 50.01 579.062 50.49 577.262 51.45C575.522 52.35 574.142 53.76 573.122 55.68C572.162 57.6 571.682 60.06 571.682 63.06V87H557.642ZM625.179 87.72C622.779 87.72 620.709 86.91 618.969 85.29C617.289 83.61 616.449 81.48 616.449 78.9C616.449 76.32 617.289 74.25 618.969 72.69C620.709 71.07 622.779 70.26 625.179 70.26C627.639 70.26 629.709 71.07 631.389 72.69C633.069 74.25 633.909 76.32 633.909 78.9C633.909 81.48 633.069 83.61 631.389 85.29C629.709 86.91 627.639 87.72 625.179 87.72Z"/>
</mask>
<path d="M24.03 85.74L23.3012 87.6025L23.3174 87.6088L23.3336 87.6149L24.03 85.74ZM13.23 78.9L11.8443 80.3422L13.23 78.9ZM6.03 68.55L4.18884 69.3311L4.19382 69.3429L4.19896 69.3545L6.03 68.55ZM6.03 42.45L4.19896 41.6455L4.19382 41.6571L4.18884 41.6689L6.03 42.45ZM13.23 32.1L11.8584 30.6444L11.8513 30.6511L11.8443 30.6578L13.23 32.1ZM24.12 25.35L24.8252 27.2215L24.837 27.2171L24.8488 27.2125L24.12 25.35ZM52.47 25.8L51.667 27.6317L51.6821 27.6383L51.6972 27.6447L52.47 25.8ZM63.63 34.08L64.9866 35.5496L66.3722 34.2706L65.1768 32.8121L63.63 34.08ZM54.27 42.72L52.7671 44.0396L54.12 45.5803L55.6266 44.1896L54.27 42.72ZM47.07 37.23L46.2085 39.035L46.2254 39.043L46.2424 39.0507L47.07 37.23ZM23.94 40.92L25.3542 42.3342L23.94 40.92ZM19.71 47.31L17.8625 46.544L17.8545 46.5634L17.8468 46.5829L19.71 47.31ZM19.71 63.69L17.8468 64.4171L17.8545 64.4366L17.8625 64.456L19.71 63.69ZM23.94 70.08L22.5258 71.4942H22.5258L23.94 70.08ZM47.07 73.86L47.8976 75.6807L47.9146 75.673L47.9315 75.665L47.07 73.86ZM54.27 68.19L55.6266 66.7204L54.1019 65.313L52.7515 66.8884L54.27 68.19ZM63.63 76.83L65.1768 78.0979L66.3722 76.6395L64.9866 75.3604L63.63 76.83ZM52.47 85.2L51.6762 83.3643L51.667 83.3683L52.47 85.2ZM37.62 86.08C32.9775 86.08 28.6854 85.3356 24.7264 83.8652L23.3336 87.6149C27.7746 89.2644 32.5425 90.08 37.62 90.08V86.08ZM24.7588 83.8775C20.8514 82.3485 17.4774 80.2073 14.6157 77.4578L11.8443 80.3422C15.1026 83.4727 18.9286 85.8915 23.3012 87.6025L24.7588 83.8775ZM14.6157 77.4578C11.7481 74.7027 9.49782 71.4705 7.86104 67.7455L4.19896 69.3545C6.04218 73.5495 8.59189 77.2173 11.8443 80.3422L14.6157 77.4578ZM7.87116 67.7689C6.30621 64.0801 5.51 59.9991 5.51 55.5H1.51C1.51 60.4809 2.39379 65.0999 4.18884 69.3311L7.87116 67.7689ZM5.51 55.5C5.51 51.0009 6.30621 46.9199 7.87116 43.2311L4.18884 41.6689C2.39379 45.9001 1.51 50.5191 1.51 55.5H5.51ZM7.86104 43.2545C9.49782 39.5295 11.7481 36.2973 14.6157 33.5422L11.8443 30.6578C8.59189 33.7827 6.04218 37.4505 4.19896 41.6455L7.86104 43.2545ZM14.6016 33.5556C17.523 30.8028 20.9246 28.6913 24.8252 27.2215L23.4148 23.4785C19.0354 25.1286 15.177 27.5172 11.8584 30.6444L14.6016 33.5556ZM24.8488 27.2125C28.733 25.6926 33.0128 24.92 37.71 24.92V20.92C32.5672 20.92 27.787 21.7674 23.3912 23.4875L24.8488 27.2125ZM37.71 24.92C42.9326 24.92 47.5736 25.8374 51.667 27.6317L53.273 23.9683C48.6064 21.9226 43.4074 20.92 37.71 20.92V24.92ZM51.6972 27.6447C55.8414 29.3807 59.2939 31.9449 62.0832 35.3479L65.1768 32.8121C61.9661 28.8951 57.9786 25.9393 53.2428 23.9553L51.6972 27.6447ZM62.2734 32.6104L52.9134 41.2504L55.6266 44.1896L64.9866 35.5496L62.2734 32.6104ZM55.7729 41.4004C53.45 38.7549 50.827 36.7408 47.8976 35.4093L46.2424 39.0507C48.593 40.1192 50.77 41.7651 52.7671 44.0396L55.7729 41.4004ZM47.9315 35.425C45.0047 34.0282 41.8278 33.34 38.43 33.34V37.34C41.2722 37.34 43.8553 37.9118 46.2085 39.035L47.9315 35.425ZM38.43 33.34C35.2694 33.34 32.3195 33.8567 29.6029 34.9168L31.0571 38.6432C33.2605 37.7833 35.7106 37.34 38.43 37.34V33.34ZM29.6029 34.9168C26.8951 35.9735 24.5287 37.5029 22.5258 39.5058L25.3542 42.3342C26.9513 40.7371 28.8449 39.5065 31.0571 38.6432L29.6029 34.9168ZM22.5258 39.5058C20.5317 41.4999 18.9783 43.853 17.8625 46.544L21.5575 48.076C22.4817 45.847 23.7483 43.9401 25.3542 42.3342L22.5258 39.5058ZM17.8468 46.5829C16.785 49.304 16.27 52.2848 16.27 55.5H20.27C20.27 52.7152 20.715 50.236 21.5732 48.0371L17.8468 46.5829ZM16.27 55.5C16.27 58.7152 16.785 61.696 17.8468 64.4171L21.5732 62.9629C20.715 60.764 20.27 58.2848 20.27 55.5H16.27ZM17.8625 64.456C18.9783 67.147 20.5317 69.5001 22.5258 71.4942L25.3542 68.6658C23.7483 67.0599 22.4817 65.153 21.5575 62.924L17.8625 64.456ZM22.5258 71.4942C24.5287 73.4971 26.8951 75.0265 29.6029 76.0832L31.0571 72.3568C28.8449 71.4935 26.9513 70.2629 25.3542 68.6658L22.5258 71.4942ZM29.6029 76.0832C32.3195 77.1433 35.2694 77.66 38.43 77.66V73.66C35.7106 73.66 33.2605 73.2167 31.0571 72.3568L29.6029 76.0832ZM38.43 77.66C41.8135 77.66 44.9784 77.0077 47.8976 75.6807L46.2424 72.0393C43.8816 73.1124 41.2865 73.66 38.43 73.66V77.66ZM47.9315 75.665C50.855 74.2697 53.4714 72.1949 55.7885 69.4916L52.7515 66.8884C50.7486 69.2251 48.565 70.9303 46.2085 72.055L47.9315 75.665ZM52.9134 69.6596L62.2734 78.2996L64.9866 75.3604L55.6266 66.7204L52.9134 69.6596ZM62.0832 75.5621C59.29 78.9699 55.8302 81.5679 51.6762 83.3643L53.2638 87.0357C57.9897 84.9921 61.9701 82.0101 65.1768 78.0979L62.0832 75.5621ZM51.667 83.3683C47.5763 85.1615 42.9059 86.08 37.62 86.08V90.08C43.3741 90.08 48.6037 89.0785 53.273 87.0317L51.667 83.3683ZM79.207 84.48L78.2493 86.2358L78.2604 86.2418L79.207 84.48ZM69.757 75.66L68.0444 76.693L68.0541 76.709L68.0641 76.7249L69.757 75.66ZM69.757 49.92L68.0565 48.8673L68.0518 48.8749L69.757 49.92ZM79.207 41.1L80.1441 42.8669L80.1537 42.8618L79.207 41.1ZM106.657 41.1L105.71 42.8618L105.721 42.8673L105.731 42.8727L106.657 41.1ZM116.107 75.66L117.812 76.7051L117.816 76.6991L117.82 76.693L116.107 75.66ZM106.657 84.48L105.71 82.7182L106.657 84.48ZM99.277 74.58L100.281 76.3096L99.277 74.58ZM103.687 69.99L105.443 70.9477L105.449 70.9368L105.455 70.9258L103.687 69.99ZM103.687 55.59L101.931 56.5477L103.687 55.59ZM99.277 51L98.2728 52.7296L99.277 51ZM86.677 51L87.6813 52.7296L86.677 51ZM82.177 55.59L80.4438 54.5921L80.4323 54.6121L80.4212 54.6323L82.177 55.59ZM82.177 69.99L80.4095 70.9258L80.4261 70.9572L80.4438 70.9879L82.177 69.99ZM86.677 74.58L87.6813 72.8504L86.677 74.58ZM92.977 85.72C88.1037 85.72 83.8464 84.7024 80.1537 82.7182L78.2604 86.2418C82.6077 88.5776 87.5304 89.72 92.977 89.72V85.72ZM80.1647 82.7242C76.4966 80.7234 73.603 78.0179 71.45 74.5951L68.0641 76.7249C70.5911 80.7421 73.9975 83.9166 78.2493 86.2358L80.1647 82.7242ZM71.4696 74.627C69.394 71.1858 68.337 67.2588 68.337 62.79H64.337C64.337 67.9212 65.5601 72.5742 68.0444 76.693L71.4696 74.627ZM68.337 62.79C68.337 58.2557 69.3964 54.3357 71.4622 50.9651L68.0518 48.8749C65.5576 52.9443 64.337 57.6043 64.337 62.79H68.337ZM71.4576 50.9727C73.6093 47.4969 76.4947 44.8022 80.144 42.8669L78.27 39.3331C73.9994 41.5978 70.5848 44.7831 68.0565 48.8673L71.4576 50.9727ZM80.1537 42.8618C83.8464 40.8776 88.1037 39.86 92.977 39.86V35.86C87.5304 35.86 82.6077 37.0024 78.2604 39.3382L80.1537 42.8618ZM92.977 39.86C97.7861 39.86 102.014 40.8758 105.71 42.8618L107.604 39.3382C103.26 37.0042 98.3679 35.86 92.977 35.86V39.86ZM105.731 42.8727C109.443 44.8121 112.319 47.4762 114.402 50.8751L117.812 48.7849C115.335 44.7438 111.911 41.5879 107.583 39.3273L105.731 42.8727ZM114.402 50.8751C116.465 54.2418 117.527 58.1906 117.527 62.79H121.527C121.527 57.5494 120.309 52.8582 117.812 48.7849L114.402 50.8751ZM117.527 62.79C117.527 67.2588 116.47 71.1858 114.394 74.627L117.82 76.693C120.304 72.5742 121.527 67.9212 121.527 62.79H117.527ZM114.402 74.6149C112.315 78.0189 109.434 80.7177 105.71 82.7182L107.604 86.2418C111.921 83.9223 115.339 80.7411 117.812 76.7051L114.402 74.6149ZM105.71 82.7182C102.014 84.7042 97.7861 85.72 92.977 85.72V89.72C98.3679 89.72 103.26 88.5758 107.604 86.2418L105.71 82.7182ZM92.977 78.2C95.6378 78.2 98.0897 77.5821 100.281 76.3096L98.2728 72.8504C96.7443 73.7379 94.9963 74.2 92.977 74.2V78.2ZM100.281 76.3096C102.473 75.0368 104.197 73.2326 105.443 70.9477L101.931 69.0323C101.018 70.7074 99.8007 71.9632 98.2728 72.8504L100.281 76.3096ZM105.455 70.9258C106.714 68.5461 107.307 65.8127 107.307 62.79H103.307C103.307 65.2873 102.82 67.3539 101.919 69.0542L105.455 70.9258ZM107.307 62.79C107.307 59.7177 106.718 56.9708 105.443 54.6323L101.931 56.5477C102.816 58.1692 103.307 60.2223 103.307 62.79H107.307ZM105.443 54.6323C104.197 52.3474 102.473 50.5433 100.281 49.2704L98.2728 52.7296C99.8007 53.6167 101.018 54.8726 101.931 56.5477L105.443 54.6323ZM100.281 49.2704C98.0897 47.9979 95.6378 47.38 92.977 47.38V51.38C94.9963 51.38 96.7443 51.8421 98.2728 52.7296L100.281 49.2704ZM92.977 47.38C90.3163 47.38 87.8643 47.9979 85.6728 49.2704L87.6813 52.7296C89.2097 51.8421 90.9578 51.38 92.977 51.38V47.38ZM85.6728 49.2704C83.4909 50.5373 81.7472 52.3282 80.4438 54.5921L83.9103 56.5879C84.8868 54.8918 86.1431 53.6227 87.6813 52.7296L85.6728 49.2704ZM80.4212 54.6323C79.1457 56.9708 78.557 59.7177 78.557 62.79H82.557C82.557 60.2223 83.0484 58.1692 83.9328 56.5477L80.4212 54.6323ZM78.557 62.79C78.557 65.8127 79.1496 68.5461 80.4095 70.9258L83.9446 69.0542C83.0444 67.3539 82.557 65.2873 82.557 62.79H78.557ZM80.4438 70.9879C81.7472 73.2518 83.4909 75.0427 85.6728 76.3096L87.6813 72.8504C86.1431 71.9573 84.8868 70.6882 83.9103 68.9921L80.4438 70.9879ZM85.6728 76.3096C87.8643 77.5821 90.3163 78.2 92.977 78.2V74.2C90.9578 74.2 89.2097 73.7379 87.6813 72.8504L85.6728 76.3096ZM128.912 87H126.912V89H128.912V87ZM128.912 38.58V36.58H126.912V38.58H128.912ZM142.322 38.58H144.322V36.58H142.322V38.58ZM142.322 51.99L140.624 53.0466L144.322 58.99V51.99H142.322ZM139.802 47.94L138.04 46.9937L137.492 48.0137L138.104 48.9966L139.802 47.94ZM147.272 40.47L148.218 42.232L147.272 40.47ZM168.602 40.2L167.679 41.9744L167.7 41.9854L167.721 41.9958L168.602 40.2ZM175.802 47.22L174.047 48.18L174.051 48.1871L174.055 48.1941L175.802 47.22ZM178.412 87V89H180.412V87H178.412ZM164.372 87H162.372V89H164.372V87ZM161.762 52.8L160.277 54.1406L160.289 54.1535L160.301 54.1663L161.762 52.8ZM148.532 51.45L149.45 53.2264L149.462 53.2206L149.473 53.2147L148.532 51.45ZM144.392 55.68L142.625 54.7417L142.614 54.7635L142.603 54.7856L144.392 55.68ZM142.952 87V89H144.952V87H142.952ZM130.912 87V38.58H126.912V87H130.912ZM128.912 40.58H142.322V36.58H128.912V40.58ZM140.322 38.58V51.99H144.322V38.58H140.322ZM144.02 50.9334L141.5 46.8834L138.104 48.9966L140.624 53.0466L144.02 50.9334ZM141.564 48.8863C143.118 45.9924 145.324 43.7861 148.218 42.232L146.325 38.708C142.739 40.6339 139.966 43.4076 138.04 46.9937L141.564 48.8863ZM148.218 42.232C151.132 40.667 154.49 39.86 158.342 39.86V35.86C153.914 35.86 149.891 36.793 146.325 38.708L148.218 42.232ZM158.342 39.86C161.904 39.86 165.001 40.5817 167.679 41.9744L169.524 38.4256C166.203 36.6983 162.459 35.86 158.342 35.86V39.86ZM167.721 41.9958C170.386 43.3023 172.492 45.3378 174.047 48.18L177.556 46.26C175.631 42.7422 172.937 40.0977 169.482 38.4042L167.721 41.9958ZM174.055 48.1941C175.578 50.925 176.412 54.5784 176.412 59.28H180.412C180.412 54.1416 179.505 49.755 177.548 46.2459L174.055 48.1941ZM176.412 59.28V87H180.412V59.28H176.412ZM178.412 85H164.372V89H178.412V85ZM166.372 87V61.44H162.372V87H166.372ZM166.372 61.44C166.372 57.2942 165.454 53.819 163.222 51.4337L160.301 54.1663C161.55 55.501 162.372 57.7858 162.372 61.44H166.372ZM163.246 51.4594C161.097 49.0805 158.098 48.01 154.562 48.01V52.01C157.265 52.01 159.066 52.7995 160.277 54.1406L163.246 51.4594ZM154.562 48.01C152.043 48.01 149.705 48.5574 147.59 49.6853L149.473 53.2147C150.958 52.4226 152.64 52.01 154.562 52.01V48.01ZM147.613 49.6736C145.472 50.7806 143.814 52.5038 142.625 54.7417L146.158 56.6183C147.009 55.0162 148.111 53.9194 149.45 53.2264L147.613 49.6736ZM142.603 54.7856C141.46 57.0712 140.952 59.8656 140.952 63.06H144.952C144.952 60.2544 145.403 58.1288 146.18 56.5744L142.603 54.7856ZM140.952 63.06V87H144.952V63.06H140.952ZM142.952 85H128.912V89H142.952V85ZM195.458 86.28L194.937 88.2109L194.955 88.2158L194.973 88.2203L195.458 86.28ZM186.458 82.5L184.644 81.6578L183.927 83.2032L185.338 84.1572L186.458 82.5ZM191.138 72.42L192.194 70.7214L190.275 69.5288L189.324 71.5778L191.138 72.42ZM198.968 75.84L198.394 77.7557L198.416 77.7624L198.439 77.7687L198.968 75.84ZM214.808 75.93L213.824 74.1889L213.807 74.1983L213.791 74.2081L214.808 75.93ZM215.258 70.17L214.244 71.8939L214.303 71.9284L214.364 71.9589L215.258 70.17ZM211.118 68.82L210.778 70.7909H210.778L211.118 68.82ZM205.358 67.92L205.067 69.8987L205.075 69.8999L205.358 67.92ZM199.148 66.75L198.65 68.687L198.676 68.6937L198.703 68.6997L199.148 66.75ZM193.388 64.41L194.4 62.6846L193.388 64.41ZM189.158 60.27L187.433 61.2814L187.446 61.3032L187.459 61.3247L189.158 60.27ZM190.238 45.42L188.653 44.2006L188.643 44.2135L188.633 44.2266L190.238 45.42ZM197.978 39.93L198.71 41.7915L198.724 41.7859L198.738 41.78L197.978 39.93ZM220.118 38.94L220.53 36.9829V36.9829L220.118 38.94ZM228.668 42.09L230.479 42.9384L231.242 41.3101L229.704 40.379L228.668 42.09ZM223.988 52.08L222.972 53.8027L224.866 54.9198L225.799 52.9284L223.988 52.08ZM216.878 49.29L216.428 51.2388L216.457 51.2454L216.486 51.2512L216.878 49.29ZM203.198 49.74L202.19 48.0124L203.198 49.74ZM202.568 55.68L201.554 57.4039L201.575 57.4164L201.597 57.4283L202.568 55.68ZM212.468 58.11L212.177 60.0887L212.209 60.0934L212.241 60.0971L212.468 58.11ZM218.768 59.28L219.266 57.343L218.768 59.28ZM224.438 61.62L223.4 63.3296L223.436 63.3511L223.472 63.3712L224.438 61.62ZM228.668 65.67L226.969 66.7247L226.977 66.7382L226.986 66.7515L228.668 65.67ZM227.588 80.34L229.158 81.5793L229.166 81.5694L229.173 81.5594L227.588 80.34ZM219.758 85.74L219.038 83.8741L219.027 83.8785L219.758 85.74ZM207.428 85.72C203.444 85.72 199.618 85.2583 195.943 84.3397L194.973 88.2203C198.979 89.2217 203.132 89.72 207.428 89.72V85.72ZM195.979 84.3491C192.323 83.3625 189.551 82.1763 187.578 80.8428L185.338 84.1572C187.805 85.8237 191.033 87.1575 194.937 88.2109L195.979 84.3491ZM188.272 83.3422L192.952 73.2622L189.324 71.5778L184.644 81.6578L188.272 83.3422ZM190.082 74.1186C192.479 75.6082 195.257 76.8146 198.394 77.7557L199.543 73.9243C196.68 73.0654 194.238 71.9918 192.194 70.7214L190.082 74.1186ZM198.439 77.7687C201.658 78.6523 204.836 79.1 207.968 79.1V75.1C205.221 75.1 202.399 74.7077 199.498 73.9113L198.439 77.7687ZM207.968 79.1C211.249 79.1 214.007 78.7264 215.826 77.6519L213.791 74.2081C212.969 74.6936 211.167 75.1 207.968 75.1V79.1ZM215.792 77.6711C217.688 76.5997 218.878 74.9113 218.878 72.69H214.878C214.878 73.2287 214.689 73.7003 213.824 74.1889L215.792 77.6711ZM218.878 72.69C218.878 71.7922 218.661 70.91 218.156 70.1235C217.654 69.3436 216.947 68.7782 216.153 68.3811L214.364 71.9589C214.65 72.1018 214.752 72.2264 214.791 72.2865C214.825 72.34 214.878 72.4478 214.878 72.69H218.878ZM216.272 68.4461C214.968 67.6792 213.33 67.1719 211.458 66.8491L210.778 70.7909C212.386 71.0681 213.508 71.4608 214.244 71.8939L216.272 68.4461ZM211.458 66.8491C209.696 66.5452 207.756 66.2423 205.641 65.9401L205.075 69.8999C207.16 70.1977 209.061 70.4948 210.778 70.7909L211.458 66.8491ZM205.649 65.9413C203.663 65.6492 201.645 65.2691 199.594 64.8003L198.703 68.6997C200.851 69.1909 202.973 69.5908 205.067 69.8987L205.649 65.9413ZM199.646 64.813C197.713 64.3159 195.968 63.6038 194.4 62.6846L192.377 66.1354C194.289 67.2562 196.383 68.1041 198.65 68.687L199.646 64.813ZM194.4 62.6846C192.944 61.8316 191.769 60.6836 190.857 59.2153L187.459 61.3247C188.708 63.3364 190.352 64.9484 192.377 66.1354L194.4 62.6846ZM190.884 59.2586C190.098 57.9181 189.628 56.0501 189.628 53.52H185.628C185.628 56.5099 186.179 59.1419 187.433 61.2814L190.884 59.2586ZM189.628 53.52C189.628 50.8673 190.373 48.5906 191.843 46.6134L188.633 44.2266C186.624 46.9294 185.628 50.0527 185.628 53.52H189.628ZM191.823 46.6394C193.358 44.6448 195.612 43.0084 198.71 41.7915L197.247 38.0685C193.624 39.4916 190.719 41.5152 188.653 44.2006L191.823 46.6394ZM198.738 41.78C201.798 40.5231 205.547 39.86 210.038 39.86V35.86C205.169 35.86 200.878 36.5769 197.218 38.08L198.738 41.78ZM210.038 39.86C213.192 39.86 216.414 40.2039 219.706 40.8971L220.53 36.9829C216.983 36.236 213.485 35.86 210.038 35.86V39.86ZM219.706 40.8971C222.971 41.5844 225.595 42.5674 227.633 43.801L229.704 40.379C227.182 38.8526 224.106 37.7356 220.53 36.9829L219.706 40.8971ZM226.857 41.2416L222.177 51.2315L225.799 52.9284L230.479 42.9384L226.857 41.2416ZM225.004 50.3573C222.492 48.8758 219.913 47.8574 217.27 47.3288L216.486 51.2512C218.643 51.6826 220.804 52.5242 222.972 53.8027L225.004 50.3573ZM217.328 47.3412C214.852 46.7699 212.421 46.48 210.038 46.48V50.48C212.095 50.48 214.224 50.7301 216.428 51.2388L217.328 47.3412ZM210.038 46.48C206.824 46.48 204.102 46.8974 202.19 48.0124L204.206 51.4676C205.174 50.9026 207.012 50.48 210.038 50.48V46.48ZM202.19 48.0124C200.323 49.1017 199.038 50.7558 199.038 52.98H203.038C203.038 52.5642 203.193 52.0583 204.206 51.4676L202.19 48.0124ZM199.038 52.98C199.038 54.8764 199.913 56.4383 201.554 57.4039L203.582 53.9561C203.184 53.7217 203.038 53.4836 203.038 52.98H199.038ZM201.597 57.4283C202.913 58.1593 204.534 58.6938 206.393 59.0785L207.203 55.1615C205.583 54.8262 204.384 54.4007 203.539 53.9317L201.597 57.4283ZM206.393 59.0785C208.176 59.4475 210.105 59.784 212.177 60.0887L212.759 56.1313C210.752 55.836 208.9 55.5125 207.203 55.1615L206.393 59.0785ZM212.241 60.0971C214.247 60.3264 216.257 60.6993 218.27 61.217L219.266 57.343C217.08 56.7807 214.889 56.3736 212.695 56.1229L212.241 60.0971ZM218.27 61.217C220.199 61.7131 221.904 62.4214 223.4 63.3296L225.476 59.9104C223.612 58.7786 221.537 57.9269 219.266 57.343L218.27 61.217ZM223.472 63.3712C224.903 64.1604 226.064 65.2666 226.969 66.7247L230.367 64.6153C229.113 62.5934 227.454 60.9995 225.404 59.8688L223.472 63.3712ZM226.986 66.7515C227.793 68.0078 228.288 69.8123 228.288 72.33H232.288C232.288 69.3277 231.703 66.6922 230.351 64.5885L226.986 66.7515ZM228.288 72.33C228.288 74.8966 227.529 77.1363 226.003 79.1206L229.173 81.5594C231.247 78.8637 232.288 75.7634 232.288 72.33H228.288ZM226.018 79.1007C224.492 81.0348 222.21 82.6498 219.038 83.8742L220.478 87.6058C224.146 86.1902 227.085 84.2052 229.158 81.5793L226.018 79.1007ZM219.027 83.8785C215.965 85.0813 212.119 85.72 207.428 85.72V89.72C212.457 89.72 216.831 89.0387 220.49 87.6015L219.027 83.8785ZM245.431 83.4L244.073 84.8685L244.081 84.8755L244.088 84.8824L245.431 83.4ZM240.661 27.87V25.87H238.661V27.87H240.661ZM254.701 27.87H256.701V25.87H254.701V27.87ZM256.321 74.94L254.869 76.3155L254.887 76.3351L254.906 76.3542L256.321 74.94ZM266.401 74.76L268.269 74.0466L267.311 71.5367L265.181 73.1748L266.401 74.76ZM270.181 84.66L271.337 86.292L272.602 85.3956L272.049 83.9466L270.181 84.66ZM264.961 87L265.432 88.9437L265.452 88.9388L265.473 88.9334L264.961 87ZM233.191 49.38H231.191V51.38H233.191V49.38ZM233.191 38.58V36.58H231.191V38.58H233.191ZM266.761 38.58H268.761V36.58H266.761V38.58ZM266.761 49.38V51.38H268.761V49.38H266.761ZM258.751 85.72C253.381 85.72 249.479 84.3676 246.773 81.9176L244.088 84.8824C247.743 88.1924 252.721 89.72 258.751 89.72V85.72ZM246.788 81.9315C244.141 79.4835 242.661 75.745 242.661 70.35H238.661C238.661 76.475 240.361 81.4365 244.073 84.8685L246.788 81.9315ZM242.661 70.35V27.87H238.661V70.35H242.661ZM240.661 29.87H254.701V25.87H240.661V29.87ZM252.701 27.87V70.17H256.701V27.87H252.701ZM252.701 70.17C252.701 72.5635 253.341 74.7031 254.869 76.3155L257.773 73.5645C257.14 72.8969 256.701 71.8565 256.701 70.17H252.701ZM254.906 76.3542C256.44 77.8882 258.463 78.56 260.731 78.56V74.56C259.278 74.56 258.361 74.1518 257.735 73.5258L254.906 76.3542ZM260.731 78.56C263.332 78.56 265.666 77.8482 267.62 76.3452L265.181 73.1748C264.015 74.0718 262.569 74.56 260.731 74.56V78.56ZM264.532 75.4734L268.312 85.3734L272.049 83.9466L268.269 74.0466L264.532 75.4734ZM269.025 83.028C267.814 83.8857 266.302 84.5761 264.449 85.0666L265.473 88.9334C267.699 88.3439 269.668 87.4743 271.337 86.292L269.025 83.028ZM264.49 85.0563C262.673 85.4967 260.761 85.72 258.751 85.72V89.72C261.06 89.72 263.289 89.4633 265.432 88.9437L264.49 85.0563ZM235.191 49.38V38.58H231.191V49.38H235.191ZM233.191 40.58H266.761V36.58H233.191V40.58ZM264.761 38.58V49.38H268.761V38.58H264.761ZM266.761 47.38H233.191V51.38H266.761V47.38ZM278.062 87H276.062V89H278.062V87ZM278.062 38.58V36.58H276.062V38.58H278.062ZM291.472 38.58H293.472V36.58H291.472V38.58ZM291.472 52.26L289.667 53.1215L293.472 52.26H291.472ZM289.582 48.3L287.739 47.5239L287.39 48.3513L287.777 49.1615L289.582 48.3ZM296.512 40.56L297.472 42.3145L297.485 42.3076L297.497 42.3005L296.512 40.56ZM308.122 37.86H310.122V35.86H308.122V37.86ZM308.122 50.82L307.923 52.8101L310.122 53.03V50.82H308.122ZM306.502 50.73L306.254 52.7146L306.378 52.73H306.502V50.73ZM295.612 53.97L296.969 55.4396L296.97 55.4382L295.612 53.97ZM292.102 87V89H294.102V87H292.102ZM280.062 87V38.58H276.062V87H280.062ZM278.062 40.58H291.472V36.58H278.062V40.58ZM289.472 38.58V52.26H293.472V38.58H289.472ZM293.277 51.3985L291.387 47.4385L287.777 49.1615L289.667 53.1215L293.277 51.3985ZM291.425 49.0761C292.694 46.062 294.699 43.8321 297.472 42.3145L295.552 38.8055C291.965 40.7679 289.35 43.698 287.739 47.5239L291.425 49.0761ZM297.497 42.3005C300.311 40.7079 303.823 39.86 308.122 39.86V35.86C303.301 35.86 299.073 36.8121 295.527 38.8195L297.497 42.3005ZM306.122 37.86V50.82H310.122V37.86H306.122ZM308.321 48.8299C307.671 48.7649 307.063 48.73 306.502 48.73V52.73C306.901 52.73 307.373 52.7551 307.923 52.8101L308.321 48.8299ZM306.75 48.7454C306.179 48.6741 305.586 48.64 304.972 48.64V52.64C305.439 52.64 305.865 52.6659 306.254 52.7146L306.75 48.7454ZM304.972 48.64C300.722 48.64 297.087 49.8813 294.254 52.5018L296.97 55.4382C298.937 53.6187 301.542 52.64 304.972 52.64V48.64ZM294.255 52.5004C291.349 55.1829 290.102 59.2169 290.102 64.14H294.102C294.102 59.8231 295.195 57.077 296.969 55.4396L294.255 52.5004ZM290.102 64.14V87H294.102V64.14H290.102ZM292.102 85H278.062V89H292.102V85ZM326.452 85.38L325.557 87.1689L325.564 87.1722L325.571 87.1756L326.452 85.38ZM319.162 78.27L317.4 79.2163L317.404 79.2232L317.407 79.23L319.162 78.27ZM316.552 38.58V36.58H314.552V38.58H316.552ZM330.592 38.58H332.592V36.58H330.592V38.58ZM333.112 72.78L331.607 74.097L331.629 74.122L331.651 74.1463L333.112 72.78ZM346.162 74.22L347.106 75.983L347.13 75.97L347.154 75.9565L346.162 74.22ZM350.122 69.9L351.911 70.7944L351.916 70.7835L351.921 70.7725L350.122 69.9ZM351.562 38.58V36.58H349.562V38.58H351.562ZM365.602 38.58H367.602V36.58H365.602V38.58ZM365.602 87V89H367.602V87H365.602ZM352.282 87H350.282V89H352.282V87ZM352.282 73.68L353.976 72.6165L350.282 66.7338V73.68H352.282ZM354.712 77.55L356.513 78.4186L356.993 77.4227L356.406 76.4865L354.712 77.55ZM347.512 85.2L348.46 86.961L348.472 86.9545L347.512 85.2ZM337.252 85.72C333.496 85.72 330.204 84.9928 327.333 83.5844L325.571 87.1756C329.06 88.8872 332.968 89.72 337.252 89.72V85.72ZM327.346 83.5911C324.606 82.2208 322.469 80.1474 320.916 77.31L317.407 79.23C319.335 82.7526 322.058 85.4192 325.557 87.1689L327.346 83.5911ZM320.924 77.3237C319.386 74.4594 318.552 70.7016 318.552 65.94H314.552C314.552 71.1384 315.458 75.6006 317.4 79.2163L320.924 77.3237ZM318.552 65.94V38.58H314.552V65.94H318.552ZM316.552 40.58H330.592V36.58H316.552V40.58ZM328.592 38.58V63.87H332.592V38.58H328.592ZM328.592 63.87C328.592 68.1095 329.468 71.653 331.607 74.097L334.617 71.463C333.395 70.067 332.592 67.6705 332.592 63.87H328.592ZM331.651 74.1463C333.852 76.4989 336.862 77.57 340.402 77.57V73.57C337.702 73.57 335.852 72.7811 334.572 71.4137L331.651 74.1463ZM340.402 77.57C342.847 77.57 345.099 77.0583 347.106 75.983L345.217 72.457C343.865 73.1817 342.277 73.57 340.402 73.57V77.57ZM347.154 75.9565C349.214 74.7794 350.794 73.0275 351.911 70.7944L348.333 69.0056C347.529 70.6125 346.47 71.7406 345.17 72.4835L347.154 75.9565ZM351.921 70.7725C353.05 68.4451 353.562 65.6654 353.562 62.52H349.562C349.562 65.2546 349.114 67.3949 348.322 69.0275L351.921 70.7725ZM353.562 62.52V38.58H349.562V62.52H353.562ZM351.562 40.58H365.602V36.58H351.562V40.58ZM363.602 38.58V87H367.602V38.58H363.602ZM365.602 85H352.282V89H365.602V85ZM354.282 87V73.68H350.282V87H354.282ZM350.588 74.7435L353.018 78.6135L356.406 76.4865L353.976 72.6165L350.588 74.7435ZM352.91 76.6814C351.466 79.6772 349.355 81.9119 346.552 83.4455L348.472 86.9545C352.029 85.0081 354.718 82.1428 356.513 78.4186L352.91 76.6814ZM346.564 83.4391C343.75 84.9543 340.658 85.72 337.252 85.72V89.72C341.286 89.72 345.034 88.8057 348.46 86.9609L346.564 83.4391ZM388.059 84.57L387.123 86.3376L387.133 86.343L387.144 86.3483L388.059 84.57ZM378.429 75.66L376.716 76.693L376.722 76.7029L376.728 76.7127L378.429 75.66ZM378.429 49.92L376.728 48.8673L376.724 48.8749L378.429 49.92ZM388.059 41.1L388.974 42.8783L388.984 42.873L388.995 42.8676L388.059 41.1ZM415.329 41.1L414.337 42.8365L414.347 42.8425L414.358 42.8483L415.329 41.1ZM423.699 50.19L424.645 51.9519L426.294 51.0662L425.52 49.3624L423.699 50.19ZM412.809 56.04L411.058 57.0074L412.014 58.7371L413.755 57.8019L412.809 56.04ZM408.039 51L407.035 52.7296L407.046 52.7364L407.058 52.7432L408.039 51ZM395.439 51L396.419 52.7432V52.7431L395.439 51ZM390.849 55.59L389.116 54.5921L389.104 54.6121L389.093 54.6323L390.849 55.59ZM390.849 69.99L389.093 70.9477L389.104 70.9679L389.116 70.9879L390.849 69.99ZM395.439 74.58L396.419 72.8368L395.439 74.58ZM408.039 74.67L409.001 76.4236L409.01 76.4184L409.019 76.4131L408.039 74.67ZM412.809 69.54L413.767 67.7842L412.001 66.8213L411.048 68.5918L412.809 69.54ZM423.699 75.48L425.515 76.3181L426.299 74.6199L424.657 73.7242L423.699 75.48ZM415.329 84.57L416.3 86.3183L416.311 86.3125L416.321 86.3065L415.329 84.57ZM402.009 85.72C397.063 85.72 392.734 84.7271 388.974 82.7917L387.144 86.3483C391.544 88.6129 396.515 89.72 402.009 89.72V85.72ZM388.995 82.8024C385.216 80.8019 382.275 78.0734 380.129 74.6073L376.728 76.7127C379.263 80.8066 382.742 84.0181 387.123 86.3376L388.995 82.8024ZM380.141 74.627C378.066 71.1858 377.009 67.2588 377.009 62.79H373.009C373.009 67.9212 374.232 72.5742 376.716 76.693L380.141 74.627ZM377.009 62.79C377.009 58.2557 378.068 54.3357 380.134 50.9651L376.724 48.8749C374.23 52.9443 373.009 57.6043 373.009 62.79H377.009ZM380.129 50.9727C382.272 47.5116 385.206 44.8178 388.974 42.8783L387.144 39.3217C382.752 41.5822 379.266 44.7684 376.728 48.8673L380.129 50.9727ZM388.995 42.8676C392.751 40.8792 397.072 39.86 402.009 39.86V35.86C396.506 35.86 391.527 37.0008 387.123 39.3324L388.995 42.8676ZM402.009 39.86C406.821 39.86 410.907 40.8767 414.337 42.8365L416.321 39.3635C412.191 37.0033 407.397 35.86 402.009 35.86V39.86ZM414.358 42.8483C417.761 44.739 420.254 47.445 421.878 51.0176L425.52 49.3624C423.544 45.0149 420.457 41.661 416.3 39.3517L414.358 42.8483ZM422.752 48.4281L411.862 54.2781L413.755 57.8019L424.645 51.9519L422.752 48.4281ZM414.559 55.0726C413.153 52.5276 411.318 50.5499 409.019 49.2568L407.058 52.7432C408.6 53.6101 409.945 54.9924 411.058 57.0074L414.559 55.0726ZM409.043 49.2704C406.868 48.0074 404.48 47.38 401.919 47.38V51.38C403.798 51.38 405.49 51.8326 407.035 52.7296L409.043 49.2704ZM401.919 47.38C399.207 47.38 396.704 47.9936 394.458 49.2568L396.419 52.7431C398.014 51.8464 399.831 51.38 401.919 51.38V47.38ZM394.458 49.2568C392.213 50.5198 390.428 52.3126 389.116 54.5921L392.582 56.5879C393.55 54.9074 394.825 53.6402 396.419 52.7432L394.458 49.2568ZM389.093 54.6323C387.818 56.9708 387.229 59.7177 387.229 62.79H391.229C391.229 60.2223 391.72 58.1692 392.605 56.5477L389.093 54.6323ZM387.229 62.79C387.229 65.8623 387.818 68.6092 389.093 70.9477L392.605 69.0323C391.72 67.4108 391.229 65.3577 391.229 62.79H387.229ZM389.116 70.9879C390.428 73.2674 392.213 75.0602 394.458 76.3232L396.419 72.8368C394.825 71.9398 393.55 70.6726 392.582 68.9921L389.116 70.9879ZM394.458 76.3232C396.704 77.5864 399.207 78.2 401.919 78.2V74.2C399.831 74.2 398.014 73.7336 396.419 72.8368L394.458 76.3232ZM401.919 78.2C404.459 78.2 406.832 77.6129 409.001 76.4236L407.077 72.9164C405.526 73.7671 403.819 74.2 401.919 74.2V78.2ZM409.019 76.4131C411.332 75.1122 413.168 73.0923 414.57 70.4882L411.048 68.5918C409.93 70.6677 408.586 72.0678 407.058 72.9268L409.019 76.4131ZM411.851 71.2958L422.741 77.2358L424.657 73.7242L413.767 67.7842L411.851 71.2958ZM421.883 74.6419C420.26 78.1586 417.761 80.877 414.337 82.8335L416.321 86.3065C420.457 83.943 423.538 80.6014 425.515 76.3181L421.883 74.6419ZM414.358 82.8217C410.924 84.7293 406.83 85.72 402.009 85.72V89.72C407.388 89.72 412.174 88.6107 416.3 86.3183L414.358 82.8217ZM438.966 83.4L437.608 84.8685L437.616 84.8755L437.623 84.8824L438.966 83.4ZM434.196 27.87V25.87H432.196V27.87H434.196ZM448.236 27.87H450.236V25.87H448.236V27.87ZM449.856 74.94L448.404 76.3155L448.423 76.3351L448.442 76.3542L449.856 74.94ZM459.936 74.76L461.804 74.0466L460.846 71.5367L458.716 73.1748L459.936 74.76ZM463.716 84.66L464.872 86.292L466.138 85.3956L465.584 83.9466L463.716 84.66ZM458.496 87L458.967 88.9437L458.987 88.9388L459.008 88.9334L458.496 87ZM426.726 49.38H424.726V51.38H426.726V49.38ZM426.726 38.58V36.58H424.726V38.58H426.726ZM460.296 38.58H462.296V36.58H460.296V38.58ZM460.296 49.38V51.38H462.296V49.38H460.296ZM452.286 85.72C446.916 85.72 443.014 84.3676 440.308 81.9176L437.623 84.8824C441.278 88.1924 446.256 89.72 452.286 89.72V85.72ZM440.324 81.9315C437.676 79.4835 436.196 75.745 436.196 70.35H432.196C432.196 76.475 433.896 81.4365 437.608 84.8685L440.324 81.9315ZM436.196 70.35V27.87H432.196V70.35H436.196ZM434.196 29.87H448.236V25.87H434.196V29.87ZM446.236 27.87V70.17H450.236V27.87H446.236ZM446.236 70.17C446.236 72.5635 446.876 74.7031 448.404 76.3155L451.308 73.5645C450.675 72.8969 450.236 71.8565 450.236 70.17H446.236ZM448.442 76.3542C449.976 77.8882 451.999 78.56 454.266 78.56V74.56C452.813 74.56 451.896 74.1518 451.27 73.5258L448.442 76.3542ZM454.266 78.56C456.868 78.56 459.201 77.8482 461.155 76.3452L458.716 73.1748C457.55 74.0718 456.104 74.56 454.266 74.56V78.56ZM458.067 75.4734L461.847 85.3734L465.584 83.9466L461.804 74.0466L458.067 75.4734ZM462.56 83.028C461.349 83.8857 459.837 84.5761 457.984 85.0666L459.008 88.9334C461.235 88.3439 463.203 87.4743 464.872 86.292L462.56 83.028ZM458.025 85.0563C456.208 85.4967 454.297 85.72 452.286 85.72V89.72C454.595 89.72 456.824 89.4633 458.967 88.9437L458.025 85.0563ZM428.726 49.38V38.58H424.726V49.38H428.726ZM426.726 40.58H460.296V36.58H426.726V40.58ZM458.296 38.58V49.38H462.296V38.58H458.296ZM460.296 47.38H426.726V51.38H460.296V47.38ZM471.597 87H469.597V89H471.597V87ZM471.597 38.58V36.58H469.597V38.58H471.597ZM485.637 38.58H487.637V36.58H485.637V38.58ZM485.637 87V89H487.637V87H485.637ZM472.317 29.58L470.958 31.0475V31.0475L472.317 29.58ZM472.317 18.42L473.676 19.8875V19.8875L472.317 18.42ZM484.917 18.33L483.588 19.8248L483.604 19.8388L483.62 19.8525L484.917 18.33ZM484.917 29.58L486.303 31.0217L486.304 31.0206L484.917 29.58ZM473.597 87V38.58H469.597V87H473.597ZM471.597 40.58H485.637V36.58H471.597V40.58ZM483.637 38.58V87H487.637V38.58H483.637ZM485.637 85H471.597V89H485.637V85ZM478.617 29.83C476.45 29.83 474.865 29.2132 473.676 28.1125L470.958 31.0475C473.01 32.9468 475.624 33.83 478.617 33.83V29.83ZM473.676 28.1125C472.467 26.9934 471.887 25.6664 471.887 24H467.887C467.887 26.7736 468.927 29.1666 470.958 31.0475L473.676 28.1125ZM471.887 24C471.887 22.3336 472.467 21.0066 473.676 19.8875L470.958 16.9525C468.927 18.8334 467.887 21.2264 467.887 24H471.887ZM473.676 19.8875C474.865 18.7868 476.45 18.17 478.617 18.17V14.17C475.624 14.17 473.01 15.0532 470.958 16.9525L473.676 19.8875ZM478.617 18.17C480.806 18.17 482.402 18.7701 483.588 19.8248L486.246 16.8352C484.192 15.0099 481.589 14.17 478.617 14.17V18.17ZM483.62 19.8525C484.773 20.8341 485.347 22.067 485.347 23.73H489.347C489.347 20.953 488.302 18.5859 486.214 16.8075L483.62 19.8525ZM485.347 23.73C485.347 25.5512 484.741 26.9732 483.53 28.1394L486.304 31.0206C488.333 29.0668 489.347 26.5888 489.347 23.73H485.347ZM483.531 28.1383C482.422 29.2046 480.861 29.83 478.617 29.83V33.83C481.654 33.83 484.292 32.9554 486.303 31.0217L483.531 28.1383ZM507.938 84.48L506.98 86.2358L506.991 86.2418L507.938 84.48ZM498.487 75.66L496.775 76.693L496.785 76.709L496.795 76.7249L498.487 75.66ZM498.487 49.92L496.787 48.8673L496.782 48.8749L498.487 49.92ZM507.938 41.1L508.875 42.8669L508.884 42.8618L507.938 41.1ZM535.388 41.1L534.441 42.8618L534.451 42.8673L534.461 42.8727L535.388 41.1ZM544.838 75.66L546.543 76.7051L546.546 76.6991L546.55 76.693L544.838 75.66ZM535.388 84.48L534.441 82.7182L535.388 84.48ZM528.008 74.58L529.012 76.3096L528.008 74.58ZM532.417 69.99L534.173 70.9477L534.179 70.9368L534.185 70.9258L532.417 69.99ZM532.417 55.59L530.662 56.5477L532.417 55.59ZM528.008 51L527.003 52.7296L528.008 51ZM515.408 51L516.412 52.7296L515.408 51ZM510.908 55.59L509.174 54.5921L509.163 54.6121L509.152 54.6323L510.908 55.59ZM510.908 69.99L509.14 70.9258L509.157 70.9572L509.174 70.9879L510.908 69.99ZM515.408 74.58L516.412 72.8504L515.408 74.58ZM521.708 85.72C516.834 85.72 512.577 84.7024 508.884 82.7182L506.991 86.2418C511.338 88.5776 516.261 89.72 521.708 89.72V85.72ZM508.895 82.7242C505.227 80.7234 502.333 78.0179 500.18 74.5951L496.795 76.7249C499.322 80.7421 502.728 83.9166 506.98 86.2358L508.895 82.7242ZM500.2 74.627C498.124 71.1858 497.068 67.2588 497.068 62.79H493.068C493.068 67.9212 494.291 72.5742 496.775 76.693L500.2 74.627ZM497.068 62.79C497.068 58.2557 498.127 54.3357 500.193 50.9651L496.782 48.8749C494.288 52.9443 493.068 57.6043 493.068 62.79H497.068ZM500.188 50.9727C502.34 47.4969 505.225 44.8022 508.875 42.8669L507 39.3331C502.73 41.5978 499.315 44.7831 496.787 48.8673L500.188 50.9727ZM508.884 42.8618C512.577 40.8776 516.834 39.86 521.708 39.86V35.86C516.261 35.86 511.338 37.0024 506.991 39.3382L508.884 42.8618ZM521.708 39.86C526.517 39.86 530.745 40.8758 534.441 42.8618L536.334 39.3382C531.99 37.0042 527.098 35.86 521.708 35.86V39.86ZM534.461 42.8727C538.174 44.8121 541.049 47.4762 543.132 50.8751L546.543 48.7849C544.066 44.7438 540.641 41.5879 536.314 39.3273L534.461 42.8727ZM543.132 50.8751C545.196 54.2418 546.258 58.1906 546.258 62.79H550.258C550.258 57.5494 549.039 52.8582 546.543 48.7849L543.132 50.8751ZM546.258 62.79C546.258 67.2588 545.201 71.1858 543.125 74.627L546.55 76.693C549.034 72.5742 550.258 67.9212 550.258 62.79H546.258ZM543.132 74.6149C541.046 78.0189 538.164 80.7177 534.441 82.7182L536.334 86.2418C540.651 83.9223 544.069 80.7411 546.543 76.7051L543.132 74.6149ZM534.441 82.7182C530.745 84.7042 526.517 85.72 521.708 85.72V89.72C527.098 89.72 531.99 88.5758 536.334 86.2418L534.441 82.7182ZM521.708 78.2C524.368 78.2 526.82 77.5821 529.012 76.3096L527.003 72.8504C525.475 73.7379 523.727 74.2 521.708 74.2V78.2ZM529.012 76.3096C531.204 75.0368 532.927 73.2326 534.173 70.9477L530.662 69.0323C529.748 70.7074 528.531 71.9632 527.003 72.8504L529.012 76.3096ZM534.185 70.9258C535.445 68.5461 536.037 65.8127 536.037 62.79H532.037C532.037 65.2873 531.55 67.3539 530.65 69.0542L534.185 70.9258ZM536.037 62.79C536.037 59.7177 535.449 56.9708 534.173 54.6323L530.662 56.5477C531.546 58.1692 532.037 60.2223 532.037 62.79H536.037ZM534.173 54.6323C532.927 52.3474 531.204 50.5433 529.012 49.2704L527.003 52.7296C528.531 53.6167 529.748 54.8726 530.662 56.5477L534.173 54.6323ZM529.012 49.2704C526.82 47.9979 524.368 47.38 521.708 47.38V51.38C523.727 51.38 525.475 51.8421 527.003 52.7296L529.012 49.2704ZM521.708 47.38C519.047 47.38 516.595 47.9979 514.403 49.2704L516.412 52.7296C517.94 51.8421 519.688 51.38 521.708 51.38V47.38ZM514.403 49.2704C512.221 50.5373 510.478 52.3282 509.174 54.5921L512.641 56.5879C513.617 54.8918 514.874 53.6227 516.412 52.7296L514.403 49.2704ZM509.152 54.6323C507.876 56.9708 507.288 59.7177 507.288 62.79H511.288C511.288 60.2223 511.779 58.1692 512.663 56.5477L509.152 54.6323ZM507.288 62.79C507.288 65.8127 507.88 68.5461 509.14 70.9258L512.675 69.0542C511.775 67.3539 511.288 65.2873 511.288 62.79H507.288ZM509.174 70.9879C510.478 73.2518 512.221 75.0427 514.403 76.3096L516.412 72.8504C514.874 71.9573 513.617 70.6882 512.641 68.9921L509.174 70.9879ZM514.403 76.3096C516.595 77.5821 519.047 78.2 521.708 78.2V74.2C519.688 74.2 517.94 73.7379 516.412 72.8504L514.403 76.3096ZM557.642 87H555.642V89H557.642V87ZM557.642 38.58V36.58H555.642V38.58H557.642ZM571.052 38.58H573.052V36.58H571.052V38.58ZM571.052 51.99L569.354 53.0466L573.052 58.99V51.99H571.052ZM568.532 47.94L566.77 46.9937L566.222 48.0137L566.834 48.9966L568.532 47.94ZM576.002 40.47L576.948 42.232L576.002 40.47ZM597.332 40.2L596.409 41.9744L596.43 41.9854L596.452 41.9958L597.332 40.2ZM604.532 47.22L602.778 48.18L602.781 48.1871L602.785 48.1941L604.532 47.22ZM607.142 87V89H609.142V87H607.142ZM593.102 87H591.102V89H593.102V87ZM590.492 52.8L589.008 54.1406L589.02 54.1535L589.032 54.1663L590.492 52.8ZM577.262 51.45L578.181 53.2264L578.192 53.2206L578.203 53.2147L577.262 51.45ZM573.122 55.68L571.356 54.7417L571.344 54.7635L571.333 54.7856L573.122 55.68ZM571.682 87V89H573.682V87H571.682ZM559.642 87V38.58H555.642V87H559.642ZM557.642 40.58H571.052V36.58H557.642V40.58ZM569.052 38.58V51.99H573.052V38.58H569.052ZM572.75 50.9334L570.23 46.8834L566.834 48.9966L569.354 53.0466L572.75 50.9334ZM570.294 48.8863C571.848 45.9924 574.055 43.7861 576.948 42.232L575.056 38.708C571.47 40.6339 568.696 43.4076 566.77 46.9937L570.294 48.8863ZM576.948 42.232C579.862 40.667 583.22 39.86 587.072 39.86V35.86C582.644 35.86 578.622 36.793 575.056 38.708L576.948 42.232ZM587.072 39.86C590.635 39.86 593.731 40.5817 596.409 41.9744L598.255 38.4256C594.933 36.6983 591.189 35.86 587.072 35.86V39.86ZM596.452 41.9958C599.117 43.3023 601.222 45.3378 602.778 48.18L606.287 46.26C604.362 42.7422 601.667 40.0977 598.212 38.4042L596.452 41.9958ZM602.785 48.1941C604.308 50.925 605.142 54.5784 605.142 59.28H609.142C609.142 54.1416 608.236 49.755 606.279 46.2459L602.785 48.1941ZM605.142 59.28V87H609.142V59.28H605.142ZM607.142 85H593.102V89H607.142V85ZM595.102 87V61.44H591.102V87H595.102ZM595.102 61.44C595.102 57.2942 594.184 53.819 591.953 51.4337L589.032 54.1663C590.28 55.501 591.102 57.7858 591.102 61.44H595.102ZM591.976 51.4594C589.828 49.0805 586.829 48.01 583.292 48.01V52.01C585.995 52.01 587.797 52.7995 589.008 54.1406L591.976 51.4594ZM583.292 48.01C580.773 48.01 578.436 48.5574 576.321 49.6853L578.203 53.2147C579.689 52.4226 581.371 52.01 583.292 52.01V48.01ZM576.343 49.6736C574.203 50.7806 572.545 52.5038 571.356 54.7417L574.888 56.6183C575.739 55.0162 576.841 53.9194 578.181 53.2264L576.343 49.6736ZM571.333 54.7856C570.19 57.0712 569.682 59.8656 569.682 63.06H573.682C573.682 60.2544 574.134 58.1288 574.911 56.5744L571.333 54.7856ZM569.682 63.06V87H573.682V63.06H569.682ZM571.682 85H557.642V89H571.682V85ZM618.969 85.29L617.554 86.7042L617.58 86.7295L617.606 86.7538L618.969 85.29ZM618.969 72.69L620.33 74.1556L620.331 74.1538L618.969 72.69ZM631.389 72.69L630 74.1297L630.014 74.1428L630.028 74.1556L631.389 72.69ZM631.389 85.29L632.777 86.7297L632.79 86.7171L632.803 86.7042L631.389 85.29ZM625.179 85.72C623.279 85.72 621.697 85.098 620.331 83.8262L617.606 86.7538C619.72 88.722 622.278 89.72 625.179 89.72V85.72ZM620.383 83.8758C619.112 82.605 618.449 80.9998 618.449 78.9H614.449C614.449 81.9602 615.465 84.615 617.554 86.7042L620.383 83.8758ZM618.449 78.9C618.449 76.7991 619.11 75.2878 620.33 74.1556L617.608 71.2244C615.467 73.2122 614.449 75.8409 614.449 78.9H618.449ZM620.331 74.1538C621.697 72.882 623.279 72.26 625.179 72.26V68.26C622.278 68.26 619.72 69.258 617.606 71.2262L620.331 74.1538ZM625.179 72.26C627.152 72.26 628.715 72.8901 630 74.1297L632.777 71.2503C630.702 69.2499 628.126 68.26 625.179 68.26V72.26ZM630.028 74.1556C631.247 75.2878 631.909 76.7991 631.909 78.9H635.909C635.909 75.8409 634.89 73.2122 632.75 71.2244L630.028 74.1556ZM631.909 78.9C631.909 80.9998 631.245 82.605 629.974 83.8758L632.803 86.7042C634.892 84.615 635.909 81.9602 635.909 78.9H631.909ZM630 83.8503C628.715 85.0899 627.152 85.72 625.179 85.72V89.72C628.126 89.72 630.702 88.7301 632.777 86.7297L630 83.8503Z" fill="#2E2E2E" mask="url(#path-1-outside-1_348_1558)"/>
</svg>
