<svg width="76" height="77" viewBox="0 0 76 77" fill="none" xmlns="http://www.w3.org/2000/svg">
<path d="M30.2908 7.02039V10.3317H21.9335V0.0751953H30.2908V3.70412H25.5153V7.02039H30.2908ZM38.8819 3.70412H42.2206V0.0751953H33.8623C33.8623 0.0751953 33.8623 1.89673 33.8623 3.70412C34.9805 4.83701 35.5636 5.37932 37.1808 7.01783C36.2354 7.01783 33.8623 7.02099 33.8623 7.02099V10.3317H42.2206V7.02039L38.8819 3.70412ZM50.728 3.70412H54.0663V0.0751953H45.7084C45.7084 0.0751953 45.7084 1.89673 45.7084 3.70412C46.8263 4.83701 47.4096 5.37932 49.0267 7.01783C48.0819 7.01783 45.7084 7.02099 45.7084 7.02099V10.3317H54.0665V7.02039L50.728 3.70412ZM65.0743 15.2061L59.9973 70.9238L37.9999 76.9244L16.002 70.9238L10.9258 15.2061H65.0743ZM54.8443 26.5354H37.98H20.8177L21.6384 33.2637H37.98H38.8979L37.98 33.6508L22.2357 40.2946L22.7579 46.8712L37.98 46.9213L46.1386 46.9476L45.6159 55.717L37.98 57.8953V57.8884L37.9174 57.9058L30.5424 56.0196L30.0949 50.5762H30.0705H23.2298H23.2057L24.1011 61.0849L37.98 65.2431V65.2355L38.0049 65.2431L51.8096 61.1606L53.6008 40.2948H37.98H37.9414L37.98 40.2779L54.1725 33.2639L54.8443 26.5354Z" fill="#FAF3DB"/>
</svg>
