<?xml version="1.0" encoding="UTF-8"?>
<svg id="Layer_1" xmlns="http://www.w3.org/2000/svg" version="1.1" viewBox="0 0 600 600">
  <!-- Generator: Adobe Illustrator 29.1.0, SVG Export Plug-In . SVG Version: 2.1.0 Build 142)  -->
  <defs>
    <style>
      .st0 {
        fill: #fc0;
      }

      .st1 {
        fill: #fff;
      }

      .st2 {
        fill: #f1c40f;
      }
    </style>
  </defs>
  <path class="st1" d="M306.6,486.1s-6.5-1.2-12.4-2.5c-9.3-2.1-29.5-8.7-55.2-19.6l31.1-74.8c13.1,7.7,28.2,13.7,45.4,18.1s34,6.5,50.4,6.5,23-1.2,27.8-3.5,7.3-5.5,7.3-9.5-2.8-6.9-8.5-8.8c-5.7-1.8-13.2-3.3-22.6-4.3s-19.7-2.3-30.9-3.8c-11.2-1.5-22.5-3.8-33.9-6.8s-21.8-7.5-31.1-13.6c-9.4-6-16.9-14.1-22.6-24.3-5.7-10.2-8.5-23.2-8.5-38.9s5.3-33.1,15.8-47.2c10.5-14.1,26.3-25.3,47.2-33.9,20.9-8.5,46.7-12.8,77.5-12.8s40.1,1.8,60.2,5.5,37.3,9.4,51.7,17.1l-31.1,74.8c-14.1-7.7-27.8-13-41.4-15.8s-26.2-4.3-37.9-4.3-24.2,1.3-29.4,4c-5.2,2.7-7.8,5.7-7.8,9s2.8,7,8.5,9,13.2,3.5,22.6,4.5,19.6,2.3,30.9,3.8c11.2,1.5,22.4,3.8,33.6,7s21.5,7.8,30.9,13.8,16.9,14.1,22.6,24.3c5.7,10.2,8.5,23.2,8.5,38.9s-5.2,31.7-15.6,45.9c-10.4,14.2-26.1,25.6-47.2,34.1-10.1,4.1-25.6,7.7-25.6,7.7h-110.6l.3.4Z"/>
  <rect class="st1" x="272.2" y="463.7" width="171.8" height="22.4"/>
  <path class="st2" d="M97.2,486.3c-1.4-.4-2.7-.8-2.9-.9-6.2-1.9-15.8-5.4-26.7-11.6-20.2-11.5-36.4-27.9-48.4-49.2-12-21.2-18.1-46.6-18.1-76s6-54.8,18.1-76c12-21.2,28.2-37.6,48.4-48.9,20.2-11.4,42.2-17.1,66-17.1s43.8,5.1,59.2,15.3,26.8,25.8,34.1,46.7c7.4,20.9,11,47.6,11,80s-3.4,59.7-10.3,80.8c-6.9,21.1-17.9,36.6-33.1,46.7-8.8,5.8-18,8.7-22.1,10M160.6,402.8c8.4,0,15.9-2,22.6-6,6.7-4,12-10.1,16.1-18.3,4-8.2,6-18.1,6-29.9s-2-22-6-29.9-9.4-13.8-16.1-17.8c-6.7-4-14.2-6-22.6-6s-15.9,2-22.6,6c-6.7,4-12,10-16.1,17.8-4,7.9-6,17.8-6,29.9s2,21.7,6,29.9c4,8.2,9.4,14.3,16.1,18.3s14.2,6,22.6,6ZM208.8,486.1v-37.1l-.5-100.4-5-100.4V113.7h113.4v372.4h-107.9Z"/>
  <circle class="st1" cx="543.3" cy="429.4" r="56.7"/>
  <path class="st0" d="M429.9,486.1V113.7h113.4v372.4h-113.4Z"/>
  <path class="st0" d="M133.5,491.1c-23.8,0-45.8-5.8-66-17.3-20.2-11.5-36.4-27.9-48.4-49.2-12-21.2-18.1-46.6-18.1-76s6-54.8,18.1-76c12-21.2,28.2-37.6,48.4-48.9,20.2-11.4,42.2-17.1,66-17.1s43.8,5.1,59.2,15.3c15.4,10.2,26.8,25.8,34.1,46.7,7.4,20.9,11,47.6,11,80s-3.4,59.7-10.3,80.8c-6.9,21.1-17.9,36.6-33.1,46.7-15.2,10-35.6,15.1-61,15.1ZM160.6,402.7c8.4,0,15.9-2,22.6-6,6.7-4,12-10.1,16.1-18.3,4-8.2,6-18.1,6-29.9s-2-22-6-29.9c-4-7.9-9.4-13.8-16.1-17.8-6.7-4-14.2-6-22.6-6s-15.9,2-22.6,6c-6.7,4-12,10-16.1,17.8-4,7.9-6,17.8-6,29.9s2,21.7,6,29.9c4,8.2,9.4,14.3,16.1,18.3,6.7,4,14.2,6,22.6,6ZM208.8,486v-37.1l-.5-100.4-5-100.4V113.7h113.4v372.3h-107.9Z"/>
</svg>