<svg width="56" height="56" viewBox="0 0 56 56" fill="none" xmlns="http://www.w3.org/2000/svg">
<rect x="0.5" y="0.5" width="55" height="55" rx="27.5" fill="#8183FF"/>
<rect x="0.5" y="0.5" width="55" height="55" rx="27.5" stroke="#2E2E2E"/>
<path d="M39.107 18.01C37.0356 17.071 34.8208 16.3886 32.5052 16C32.2208 16.4981 31.8886 17.1682 31.6595 17.7011C29.198 17.3425 26.7591 17.3425 24.3429 17.7011C24.1139 17.1682 23.7741 16.4981 23.4871 16C21.1691 16.3886 18.9517 17.0735 16.8803 18.015C12.7022 24.132 11.5696 30.0972 12.1359 35.9776C14.907 37.9826 17.5925 39.2005 20.2328 39.9975C20.8847 39.1283 21.466 38.2042 21.9669 37.2304C21.013 36.8792 20.0994 36.4459 19.2361 35.9427C19.4651 35.7784 19.6891 35.6065 19.9056 35.4296C25.1709 37.8157 30.8919 37.8157 36.0943 35.4296C36.3133 35.6065 36.5373 35.7784 36.7638 35.9427C35.898 36.4483 34.9818 36.8817 34.0279 37.2329C34.5288 38.2042 35.1077 39.1308 35.7621 40C38.4048 39.203 41.0929 37.9851 43.864 35.9776C44.5285 29.1607 42.7289 23.2503 39.107 18.01ZM22.6842 32.3612C21.1036 32.3612 19.8074 30.9315 19.8074 29.1906C19.8074 27.4496 21.0759 26.0175 22.6842 26.0175C24.2926 26.0175 25.5887 27.4471 25.5611 29.1906C25.5636 30.9315 24.2926 32.3612 22.6842 32.3612ZM33.3157 32.3612C31.735 32.3612 30.4388 30.9315 30.4388 29.1906C30.4388 27.4496 31.7073 26.0175 33.3157 26.0175C34.9239 26.0175 36.2202 27.4471 36.1925 29.1906C36.1925 30.9315 34.9239 32.3612 33.3157 32.3612Z" fill="#FAF3DB"/>
</svg>
