<svg width="47" height="47" viewBox="0 0 47 47" fill="none" xmlns="http://www.w3.org/2000/svg">
<rect x="0.5" y="0.5" width="45.5" height="45.5" rx="9.75" fill="#2E2E2E" fill-opacity="0.5"/>
<rect x="0.5" y="0.5" width="45.5" height="45.5" rx="9.75" stroke="#2E2E2E"/>
<g clip-path="url(#clip0_233_1791)">
<path d="M39.4187 14.4877C39.2725 13.7777 38.9434 13.1301 38.4883 12.5956C38.3908 12.4786 38.2892 12.3732 38.1836 12.2679C37.375 11.4877 36.2374 11 34.9941 11H11.5099C10.2667 11 9.13714 11.4877 8.32048 12.2679C8.21078 12.3732 8.1092 12.4786 8.01575 12.5956C7.55663 13.1301 7.23159 13.7816 7.08939 14.4877C7.0325 14.7608 7 15.0456 7 15.3304V31.1696C7 31.7782 7.13408 32.3595 7.3738 32.89C7.59726 33.3933 7.9223 33.8498 8.32048 34.2321C8.42205 34.3296 8.52363 34.4193 8.62927 34.5052C9.40936 35.1255 10.417 35.5 11.5059 35.5H34.9941C36.083 35.5 37.0947 35.1255 37.8707 34.5013C37.9804 34.4154 38.082 34.3296 38.1795 34.2321C38.5777 33.8498 38.9068 33.3933 39.1303 32.89C39.37 32.3595 39.5 31.7782 39.5 31.1696V15.3304C39.5 15.0456 39.4716 14.7608 39.4147 14.4877H39.4187ZM10.9858 14.2381C11.3555 13.883 11.8553 13.6646 12.4201 13.6646H34.0799C34.6447 13.6646 35.1485 13.8791 35.5142 14.2381C35.5792 14.3005 35.6401 14.3707 35.697 14.4409L24.345 23.9405C24.0321 24.2058 23.6461 24.3346 23.252 24.3346C22.8579 24.3346 22.476 24.2058 22.1591 23.9405L10.8111 14.437C10.8599 14.3668 10.9249 14.3005 10.9899 14.2381H10.9858ZM9.89286 30.2021V17.324L17.6288 23.804L9.89692 30.2801C9.89692 30.2567 9.89692 30.2294 9.89692 30.1982L9.89286 30.2021ZM34.6406 33.1592H11.8634C11.4774 33.1592 11.1158 33.0617 10.807 32.89L19.9163 25.267L20.7655 25.977C21.4765 26.57 22.3663 26.8704 23.252 26.8704C24.1378 26.8704 25.0316 26.57 25.7427 25.977L26.5918 25.267L35.7011 32.89C35.3923 33.0617 35.0307 33.1592 34.6447 33.1592H34.6406ZM36.6153 30.206C36.6153 30.2333 36.6153 30.2606 36.6153 30.2879L28.8752 23.8118L36.6153 17.3279V30.206Z" fill="#FAF3DB"/>
</g>
<defs>
<clipPath id="clip0_233_1791">
<rect width="32.5" height="24.5" fill="white" transform="translate(7 11)"/>
</clipPath>
</defs>
</svg>
