<svg width="47" height="47" viewBox="0 0 47 47" fill="none" xmlns="http://www.w3.org/2000/svg">
<rect x="0.5" y="0.5" width="45.5" height="45.5" rx="9.75" fill="black" fill-opacity="0.25"/>
<rect x="0.5" y="0.5" width="45.5" height="45.5" rx="9.75" stroke="#2E2E2E"/>
<path fill-rule="evenodd" clip-rule="evenodd" d="M35.0686 7C37.5147 7 39.5 8.98554 39.5 11.432V35.068C39.5 37.5145 37.5147 39.5 35.0686 39.5H11.4314C8.98527 39.5 7 37.5145 7 35.068V11.432C7 8.98554 8.98527 7 11.4314 7H35.0642H35.0686ZM35.0686 9.95616C35.884 9.95616 36.5442 10.6165 36.5442 11.432V35.068C36.5442 35.8835 35.884 36.5438 35.0686 36.5438H27.6814V26.2039H30.748C31.3816 26.2039 31.9489 25.7962 32.1483 25.1934L32.8041 23.2301C33.0434 22.5121 32.5072 21.7719 31.7539 21.7719H27.6814V18.8158C27.6814 18.0756 28.4215 17.3399 29.1571 17.3399H32.1128C32.9282 17.3399 33.5885 16.6795 33.5885 15.864V14.8491C33.5885 14.3704 33.2827 13.945 32.8219 13.8209C30.8853 13.3112 29.1571 13.3112 29.1571 13.3112C25.4657 13.3112 23.25 15.864 23.25 18.08V21.7719H20.2942C19.4789 21.7719 18.8186 22.4323 18.8186 23.2478V24.7236C18.8186 25.5391 19.4789 26.1995 20.2942 26.1995H23.25V36.5394H11.4314C10.616 36.5394 9.95575 35.879 9.95575 35.0635V11.432C9.95575 10.6165 10.616 9.95616 11.4314 9.95616H35.0642H35.0686Z" fill="#2E2E2E"/>
</svg>
