<?xml version="1.0" encoding="UTF-8"?>
<svg id="Layer_1" xmlns="http://www.w3.org/2000/svg" version="1.1" viewBox="0 0 47 47">
  <!-- Generator: Adobe Illustrator 29.1.0, SVG Export Plug-In . SVG Version: 2.1.0 Build 142)  -->
  <defs>
    <style>
      .st0 {
        stroke-miterlimit: 10;
      }

      .st0, .st1 {
        fill: #faf3db;
        stroke: #002043;
      }
    </style>
  </defs>
  <rect class="st1" x=".8" y=".8" width="45.5" height="45.5" rx="9.8" ry="9.8"/>
  <g>
    <path class="st0" d="M23.8,39.3h-11.4c-2.3,0-4.1-1.8-4.1-4.1V12.4c0-2.3,1.8-4.1,4.1-4.1h22.8c2.3,0,4.1,1.8,4.1,4.1v22.8c0,2.3-1.8,4.1-4.1,4.1h-6.2"/>
    <path class="st0" d="M28.9,39.8v-12.6h3.6c.7,0,1.4-.5,1.6-1.2l.8-2.3c.3-.8-.3-1.7-1.2-1.7h-4.7v-3.4c0-1,.8-1.7,1.7-1.7h3.4c1,0,1.7-.8,1.7-1.7v-1.2c0-.6-.4-1.1-.9-1.2-2.2-.6-4.2-.6-4.2-.6-4.3,0-6.9,3-6.9,5.6v4.3h-3.4c-1,0-1.7.8-1.7,1.7v1.7c0,1,.8,1.7,1.7,1.7h3.4v12.6"/>
  </g>
</svg>