<svg width="77" height="77" viewBox="0 0 77 77" fill="none" xmlns="http://www.w3.org/2000/svg">
<path d="M49.7903 29.4213C44.7757 29.4213 40.7115 33.4855 40.7115 38.5001C40.7115 43.5147 44.7757 47.5789 49.7903 47.5789H50.0838C55.0985 47.5789 59.1626 43.5147 59.1626 38.5001C59.1626 33.4855 55.0985 29.4213 50.0838 29.4213H49.7903ZM50.0838 52.0016H49.7903C42.3333 52.0016 36.2888 45.9571 36.2888 38.5001C36.2888 31.0431 42.3333 24.9986 49.7903 24.9986H50.0838C57.5408 24.9986 63.5853 31.0431 63.5853 38.5001C63.5853 45.9571 57.5408 52.0016 50.0838 52.0016ZM26.9165 52.0016C21.9018 52.0016 17.8353 56.0657 17.8353 61.0804C17.8353 66.095 21.8994 70.1591 26.9141 70.1591C26.9405 70.1591 26.9694 70.1591 26.9959 70.1591H26.9911C26.9983 70.1591 27.0079 70.1591 27.0175 70.1591C32.1212 70.1591 36.2647 66.0348 36.2912 60.936V52.0016H26.9165ZM26.9887 74.5842C26.9574 74.5842 26.9189 74.5842 26.8804 74.5842C19.4234 74.5842 13.3789 68.5397 13.3789 61.0828C13.3789 53.6258 19.4234 47.5813 26.8804 47.5813C26.8924 47.5813 26.9044 47.5813 26.9165 47.5813H40.7115V60.936C40.6826 68.4796 34.5587 74.5842 27.0127 74.5842C27.0055 74.5842 26.9983 74.5842 26.9911 74.5842H26.9887ZM26.9165 29.4213C21.9018 29.4213 17.8377 33.4855 17.8377 38.5001C17.8377 43.5147 21.9018 47.5813 26.9165 47.5813L36.2888 47.5789V29.4237L26.9165 29.4213ZM40.7091 52.0016H26.9165C19.4595 52.0016 13.415 45.9571 13.415 38.5001C13.415 31.0431 19.4595 24.9986 26.9165 24.9986H40.7115V52.0016H40.7091ZM26.9165 6.84107C21.9018 6.84107 17.8377 10.9052 17.8377 15.9199C17.8377 20.9345 21.9018 24.9986 26.9165 24.9986H36.2888V6.83867L26.9165 6.84107ZM40.7091 29.4213H26.9165C19.4595 29.4213 13.4126 23.3768 13.4126 15.9174C13.4126 8.45807 19.4571 2.41357 26.9165 2.41357H40.7115V29.4189L40.7091 29.4213ZM40.7091 24.9986H50.0838C55.0888 24.9866 59.1386 20.9273 59.1386 15.9199C59.1386 10.9124 55.0864 6.85311 50.0814 6.84107H40.7091V24.9986ZM50.0838 29.4213L36.2888 29.4237V2.41598H50.0838C57.5408 2.41598 63.5877 8.46048 63.5877 15.9199C63.5877 23.3792 57.5432 29.4213 50.0838 29.4213Z" fill="#FAF3DB"/>
</svg>
