<?xml version="1.0" encoding="UTF-8"?>
<svg id="Layer_1" xmlns="http://www.w3.org/2000/svg" version="1.1" viewBox="0 0 56 56">
  <!-- Generator: Adobe Illustrator 29.1.0, SVG Export Plug-In . SVG Version: 2.1.0 Build 142)  -->
  <defs>
    <style>
      .st0 {
        fill: none;
        stroke: #2e2e2e;
      }

      .st1 {
        fill: #d3cbae;
      }

      .st2 {
        fill: #ad6251;
        fill-rule: evenodd;
      }
    </style>
  </defs>
  <path class="st1" d="M28,.5h0c15.2,0,27.5,12.3,27.5,27.5h0c0,15.2-12.3,27.5-27.5,27.5h0C12.8,55.5.5,43.2.5,28h0C.5,12.8,12.8.5,28,.5Z"/>
  <path class="st0" d="M28,.5h0c15.2,0,27.5,12.3,27.5,27.5h0c0,15.2-12.3,27.5-27.5,27.5h0C12.8,55.5.5,43.2.5,28h0C.5,12.8,12.8.5,28,.5Z"/>
  <path class="st2" d="M28,21.7c-2.6-2.9-6.9-3.8-10.2-1.1-3.3,2.6-3.7,7.1-1.2,10.2,2.1,2.6,8.6,8.1,10.7,9.9.2.2.4.3.5.3.1,0,.3,0,.4,0,.1,0,.3-.1.5-.3,2.1-1.8,8.5-7.3,10.7-9.9,2.6-3.1,2.2-7.6-1.2-10.2-3.3-2.6-7.6-1.8-10.2,1.1Z"/>
</svg>