<svg width="77" height="77" viewBox="0 0 77 77" fill="none" xmlns="http://www.w3.org/2000/svg">
<path d="M16.3428 0.0751953H19.8066V3.49748H22.9752V0.0751953H26.4393V10.4385H22.9755V6.96805H19.8069V10.4385H16.3431V0.0751953H16.3428ZM30.9942 3.51192H27.945V0.0751953H37.5089V3.51192H34.4583V10.4385H30.9945V3.51192H30.9942ZM39.0267 0.0751953H42.639L44.8605 3.7166L47.0801 0.0751953H50.6929V10.4385H47.2433V5.30202L44.8603 8.98659H44.8009L42.4163 5.30202V10.4385H39.0267V0.0751953ZM52.4171 0.0751953H55.8818V7.01317H60.7531V10.4385H52.4171V0.0751953ZM11.2773 15.1782L16.2321 70.7525L38.4665 76.9245L60.7625 70.7436L65.7225 15.178L11.2773 15.1782ZM55.3872 28.3665L55.077 31.8221L54.9407 33.3542H54.9183H38.5H38.4762H28.8579L29.4808 40.3334H38.4762H38.5H52.4833H54.3202L54.1539 42.164L52.5522 60.1086L52.4496 61.2594L38.5 65.1258V65.127L38.4687 65.1358L24.5066 61.2597L23.5515 50.5577H26.7052H30.3938L30.8791 55.9937L38.4699 58.0439L38.4762 58.0419V58.0413L46.0786 55.99L46.8692 47.1499H38.5H38.4762H23.2471L21.5719 28.3665L21.4087 26.5382H38.4762H38.5H55.5504L55.3872 28.3665Z" fill="#FAF3DB"/>
</svg>
