<svg width="76" height="77" viewBox="0 0 76 77" fill="none" xmlns="http://www.w3.org/2000/svg">
<g clip-path="url(#clip0_227_1629)">
<path d="M50.3685 40.3271C50.4772 40.8723 50.5305 41.5272 50.5305 42.073V46.0545C50.5305 46.7639 50.4772 47.4182 50.3144 48.0184C49.6662 50.9097 47.2877 52.7637 44.5848 52.7637C40.3689 52.7637 37.9902 49.2184 37.9902 44.3638C37.9902 39.3998 40.3689 35.5818 44.6387 35.5818C47.6658 35.5818 49.774 37.7091 50.3685 40.3271ZM76.3062 12.8334V64.1666C76.3062 71.225 70.5832 77 63.5884 77H12.7177C5.72296 76.9999 0 71.2249 0 64.1665V12.8334C0 5.77499 5.72296 0 12.7177 0H63.5886C70.5832 0 76.3062 5.77499 76.3062 12.8334ZM25.559 20.7999H18.9105V57.5638H25.559V20.7999ZM57.396 57.5638C57.2873 55.7636 57.1793 52.8184 57.1793 50.0913V18.836H50.5305V33.8908H50.4224C49.2339 31.9272 46.6387 30.3999 43.0173 30.3999C36.6928 30.3999 31.1792 35.6909 31.2331 44.582C31.2331 52.7639 36.2062 58.1635 42.4762 58.1635C46.3138 58.1635 49.5033 56.3093 51.0712 53.3636H51.1793L51.4495 57.5638H57.396Z" fill="#FAF3DB"/>
</g>
<defs>
<clipPath id="clip0_227_1629">
<rect width="76" height="77" fill="white"/>
</clipPath>
</defs>
</svg>
