<svg width="784" height="110" viewBox="0 0 784 110" fill="none" xmlns="http://www.w3.org/2000/svg">
<mask id="path-1-outside-1_348_1556" maskUnits="userSpaceOnUse" x="5" y="14" width="350" height="94" fill="black">
<rect fill="white" x="5" y="14" width="350" height="94"/>
<path d="M7.47 87V24H22.05V87H7.47ZM36.0113 87V38.58H49.4213V51.99L46.9013 47.94C48.6413 44.7 51.1313 42.21 54.3713 40.47C57.6113 38.73 61.3013 37.86 65.4413 37.86C69.2813 37.86 72.7013 38.64 75.7013 40.2C78.7613 41.7 81.1613 44.04 82.9013 47.22C84.6413 50.34 85.5113 54.36 85.5113 59.28V87H71.4713V61.44C71.4713 57.54 70.6013 54.66 68.8613 52.8C67.1813 50.94 64.7813 50.01 61.6613 50.01C59.4413 50.01 57.4313 50.49 55.6313 51.45C53.8913 52.35 52.5113 53.76 51.4913 55.68C50.5313 57.6 50.0513 60.06 50.0513 63.06V87H36.0113ZM114.528 87.72C110.388 87.72 106.398 87.24 102.558 86.28C98.7778 85.26 95.7778 84 93.5578 82.5L98.2378 72.42C100.458 73.8 103.068 74.94 106.068 75.84C109.128 76.68 112.128 77.1 115.068 77.1C118.308 77.1 120.588 76.71 121.908 75.93C123.288 75.15 123.978 74.07 123.978 72.69C123.978 71.55 123.438 70.71 122.358 70.17C121.338 69.57 119.958 69.12 118.218 68.82C116.478 68.52 114.558 68.22 112.458 67.92C110.418 67.62 108.348 67.23 106.248 66.75C104.148 66.21 102.228 65.43 100.488 64.41C98.7478 63.39 97.3378 62.01 96.2578 60.27C95.2378 58.53 94.7278 56.28 94.7278 53.52C94.7278 50.46 95.5978 47.76 97.3378 45.42C99.1378 43.08 101.718 41.25 105.078 39.93C108.438 38.55 112.458 37.86 117.138 37.86C120.438 37.86 123.798 38.22 127.218 38.94C130.638 39.66 133.488 40.71 135.768 42.09L131.088 52.08C128.748 50.7 126.378 49.77 123.978 49.29C121.638 48.75 119.358 48.48 117.138 48.48C114.018 48.48 111.738 48.9 110.298 49.74C108.858 50.58 108.138 51.66 108.138 52.98C108.138 54.18 108.648 55.08 109.668 55.68C110.748 56.28 112.158 56.76 113.898 57.12C115.638 57.48 117.528 57.81 119.568 58.11C121.668 58.35 123.768 58.74 125.868 59.28C127.968 59.82 129.858 60.6 131.538 61.62C133.278 62.58 134.688 63.93 135.768 65.67C136.848 67.35 137.388 69.57 137.388 72.33C137.388 75.33 136.488 78 134.688 80.34C132.888 82.62 130.278 84.42 126.858 85.74C123.498 87.06 119.388 87.72 114.528 87.72ZM146.05 87V38.58H160.09V87H146.05ZM153.07 31.83C150.49 31.83 148.39 31.08 146.77 29.58C145.15 28.08 144.34 26.22 144.34 24C144.34 21.78 145.15 19.92 146.77 18.42C148.39 16.92 150.49 16.17 153.07 16.17C155.65 16.17 157.75 16.89 159.37 18.33C160.99 19.71 161.8 21.51 161.8 23.73C161.8 26.07 160.99 28.02 159.37 29.58C157.81 31.08 155.71 31.83 153.07 31.83ZM195.891 105.18C191.331 105.18 186.921 104.61 182.661 103.47C178.461 102.39 174.951 100.74 172.131 98.52L177.711 88.44C179.751 90.12 182.331 91.44 185.451 92.4C188.631 93.42 191.751 93.93 194.811 93.93C199.791 93.93 203.391 92.82 205.611 90.6C207.891 88.38 209.031 85.08 209.031 80.7V73.41L209.931 61.26L209.751 49.02V38.58H223.071V78.9C223.071 87.9 220.731 94.53 216.051 98.79C211.371 103.05 204.651 105.18 195.891 105.18ZM193.731 84.66C189.231 84.66 185.151 83.7 181.491 81.78C177.891 79.8 174.981 77.07 172.761 73.59C170.601 70.05 169.521 65.94 169.521 61.26C169.521 56.52 170.601 52.41 172.761 48.93C174.981 45.39 177.891 42.66 181.491 40.74C185.151 38.82 189.231 37.86 193.731 37.86C197.811 37.86 201.411 38.7 204.531 40.38C207.651 42 210.081 44.55 211.821 48.03C213.561 51.45 214.431 55.86 214.431 61.26C214.431 66.6 213.561 71.01 211.821 74.49C210.081 77.91 207.651 80.46 204.531 82.14C201.411 83.82 197.811 84.66 193.731 84.66ZM196.521 73.14C198.981 73.14 201.171 72.66 203.091 71.7C205.011 70.68 206.511 69.27 207.591 67.47C208.671 65.67 209.211 63.6 209.211 61.26C209.211 58.86 208.671 56.79 207.591 55.05C206.511 53.25 205.011 51.87 203.091 50.91C201.171 49.89 198.981 49.38 196.521 49.38C194.061 49.38 191.871 49.89 189.951 50.91C188.031 51.87 186.501 53.25 185.361 55.05C184.281 56.79 183.741 58.86 183.741 61.26C183.741 63.6 184.281 65.67 185.361 67.47C186.501 69.27 188.031 70.68 189.951 71.7C191.871 72.66 194.061 73.14 196.521 73.14ZM236.138 87V20.22H250.178V51.99L247.028 47.94C248.768 44.7 251.258 42.21 254.498 40.47C257.738 38.73 261.428 37.86 265.568 37.86C269.408 37.86 272.828 38.64 275.828 40.2C278.888 41.7 281.288 44.04 283.028 47.22C284.768 50.34 285.638 54.36 285.638 59.28V87H271.598V61.44C271.598 57.54 270.728 54.66 268.988 52.8C267.308 50.94 264.908 50.01 261.788 50.01C259.568 50.01 257.558 50.49 255.758 51.45C254.018 52.35 252.638 53.76 251.618 55.68C250.658 57.6 250.178 60.06 250.178 63.06V87H236.138ZM318.165 87.72C312.465 87.72 308.025 86.28 304.845 83.4C301.665 80.46 300.075 76.11 300.075 70.35V27.87H314.115V70.17C314.115 72.21 314.655 73.8 315.735 74.94C316.815 76.02 318.285 76.56 320.145 76.56C322.365 76.56 324.255 75.96 325.815 74.76L329.595 84.66C328.155 85.68 326.415 86.46 324.375 87C322.395 87.48 320.325 87.72 318.165 87.72ZM292.605 49.38V38.58H326.175V49.38H292.605ZM343.665 87.72C341.265 87.72 339.195 86.91 337.455 85.29C335.775 83.61 334.935 81.48 334.935 78.9C334.935 76.32 335.775 74.25 337.455 72.69C339.195 71.07 341.265 70.26 343.665 70.26C346.125 70.26 348.195 71.07 349.875 72.69C351.555 74.25 352.395 76.32 352.395 78.9C352.395 81.48 351.555 83.61 349.875 85.29C348.195 86.91 346.125 87.72 343.665 87.72Z"/>
</mask>
<path d="M7.47 87H5.47V89H7.47V87ZM7.47 24V22H5.47V24H7.47ZM22.05 24H24.05V22H22.05V24ZM22.05 87V89H24.05V87H22.05ZM9.47 87V24H5.47V87H9.47ZM7.47 26H22.05V22H7.47V26ZM20.05 24V87H24.05V24H20.05ZM22.05 85H7.47V89H22.05V85ZM36.0112 87H34.0112V89H36.0112V87ZM36.0112 38.58V36.58H34.0112V38.58H36.0112ZM49.4213 38.58H51.4213V36.58H49.4213V38.58ZM49.4213 51.99L47.7231 53.0466L51.4213 58.99V51.99H49.4213ZM46.9012 47.94L45.1393 46.9937L44.5915 48.0137L45.2031 48.9966L46.9012 47.94ZM54.3713 40.47L55.3175 42.232L54.3713 40.47ZM75.7012 40.2L74.7785 41.9744L74.7996 41.9854L74.8209 41.9958L75.7012 40.2ZM82.9013 47.22L81.1467 48.18L81.1506 48.1871L81.1545 48.1941L82.9013 47.22ZM85.5113 87V89H87.5113V87H85.5113ZM71.4713 87H69.4713V89H71.4713V87ZM68.8613 52.8L67.377 54.1406L67.3888 54.1535L67.4007 54.1663L68.8613 52.8ZM55.6313 51.45L56.5501 53.2264L56.5613 53.2206L56.5724 53.2147L55.6313 51.45ZM51.4913 55.68L49.725 54.7417L49.7134 54.7635L49.7024 54.7856L51.4913 55.68ZM50.0513 87V89H52.0513V87H50.0513ZM38.0112 87V38.58H34.0112V87H38.0112ZM36.0112 40.58H49.4213V36.58H36.0112V40.58ZM47.4213 38.58V51.99H51.4213V38.58H47.4213ZM51.1194 50.9334L48.5994 46.8834L45.2031 48.9966L47.7231 53.0466L51.1194 50.9334ZM48.6632 48.8863C50.2174 45.9924 52.4236 43.7861 55.3175 42.232L53.425 38.708C49.8389 40.6339 47.0651 43.4076 45.1393 46.9937L48.6632 48.8863ZM55.3175 42.232C58.2316 40.667 61.5894 39.86 65.4413 39.86V35.86C61.0131 35.86 56.9909 36.793 53.425 38.708L55.3175 42.232ZM65.4413 39.86C69.004 39.86 72.1002 40.5817 74.7785 41.9744L76.624 38.4256C73.3024 36.6983 69.5585 35.86 65.4413 35.86V39.86ZM74.8209 41.9958C77.486 43.3023 79.5915 45.3378 81.1467 48.18L84.6558 46.26C82.731 42.7422 80.0365 40.0977 76.5816 38.4042L74.8209 41.9958ZM81.1545 48.1941C82.6775 50.925 83.5113 54.5784 83.5113 59.28H87.5113C87.5113 54.1416 86.605 49.755 84.648 46.2459L81.1545 48.1941ZM83.5113 59.28V87H87.5113V59.28H83.5113ZM85.5113 85H71.4713V89H85.5113V85ZM73.4713 87V61.44H69.4713V87H73.4713ZM73.4713 61.44C73.4713 57.2942 72.5532 53.819 70.3218 51.4337L67.4007 54.1663C68.6493 55.501 69.4713 57.7858 69.4713 61.44H73.4713ZM70.3455 51.4594C68.1967 49.0805 65.1981 48.01 61.6613 48.01V52.01C64.3644 52.01 66.1657 52.7995 67.377 54.1406L70.3455 51.4594ZM61.6613 48.01C59.1426 48.01 56.8048 48.5574 54.6901 49.6853L56.5724 53.2147C58.0577 52.4226 59.7399 52.01 61.6613 52.01V48.01ZM54.7124 49.6736C52.5721 50.7806 50.9139 52.5038 49.725 54.7417L53.2575 56.6183C54.1086 55.0162 55.2104 53.9194 56.5501 53.2264L54.7124 49.6736ZM49.7024 54.7856C48.5596 57.0712 48.0513 59.8656 48.0513 63.06H52.0513C52.0513 60.2544 52.5029 58.1288 53.2801 56.5744L49.7024 54.7856ZM48.0513 63.06V87H52.0513V63.06H48.0513ZM50.0513 85H36.0112V89H50.0513V85ZM102.558 86.28L102.037 88.2109L102.055 88.2158L102.073 88.2203L102.558 86.28ZM93.5578 82.5L91.7438 81.6578L91.0263 83.2032L92.4381 84.1572L93.5578 82.5ZM98.2378 72.42L99.2937 70.7214L97.3751 69.5288L96.4238 71.5778L98.2378 72.42ZM106.068 75.84L105.493 77.7557L105.516 77.7624L105.538 77.7687L106.068 75.84ZM121.908 75.93L120.924 74.1889L120.907 74.1983L120.89 74.2081L121.908 75.93ZM122.358 70.17L121.344 71.8939L121.402 71.9284L121.463 71.9589L122.358 70.17ZM118.218 68.82L117.878 70.7909L118.218 68.82ZM112.458 67.92L112.167 69.8987L112.175 69.8999L112.458 67.92ZM106.248 66.75L105.75 68.687L105.776 68.6937L105.802 68.6997L106.248 66.75ZM100.488 64.41L101.499 62.6846L100.488 64.41ZM96.2578 60.27L94.5324 61.2814L94.5452 61.3032L94.5585 61.3247L96.2578 60.27ZM97.3378 45.42L95.7526 44.2006L95.7426 44.2135L95.7329 44.2266L97.3378 45.42ZM105.078 39.93L105.809 41.7915L105.823 41.7859L105.838 41.78L105.078 39.93ZM127.218 38.94L127.63 36.9829V36.9829L127.218 38.94ZM135.768 42.09L137.579 42.9384L138.342 41.3101L136.803 40.379L135.768 42.09ZM131.088 52.08L130.072 53.8027L131.966 54.9198L132.899 52.9284L131.088 52.08ZM123.978 49.29L123.528 51.2388L123.557 51.2454L123.586 51.2512L123.978 49.29ZM110.298 49.74L109.29 48.0124L110.298 49.74ZM109.668 55.68L108.654 57.4039L108.675 57.4164L108.697 57.4283L109.668 55.68ZM119.568 58.11L119.277 60.0887L119.309 60.0934L119.341 60.0971L119.568 58.11ZM125.868 59.28L126.366 57.343H126.366L125.868 59.28ZM131.538 61.62L130.5 63.3296L130.535 63.3511L130.572 63.3712L131.538 61.62ZM135.768 65.67L134.069 66.7247L134.077 66.7382L134.085 66.7515L135.768 65.67ZM134.688 80.34L136.258 81.5793L136.265 81.5694L136.273 81.5594L134.688 80.34ZM126.858 85.74L126.138 83.8741L126.127 83.8785L126.858 85.74ZM114.528 85.72C110.544 85.72 106.717 85.2583 103.043 84.3397L102.073 88.2203C106.079 89.2217 110.232 89.72 114.528 89.72V85.72ZM103.079 84.3491C99.4229 83.3625 96.651 82.1763 94.6775 80.8428L92.4381 84.1572C94.9046 85.8237 98.1327 87.1575 102.037 88.2109L103.079 84.3491ZM95.3718 83.3422L100.052 73.2622L96.4238 71.5778L91.7438 81.6578L95.3718 83.3422ZM97.1819 74.1186C99.5782 75.6082 102.356 76.8146 105.493 77.7557L106.643 73.9243C103.779 73.0654 101.337 71.9918 99.2937 70.7214L97.1819 74.1186ZM105.538 77.7687C108.757 78.6523 111.935 79.1 115.068 79.1V75.1C112.32 75.1 109.498 74.7077 106.597 73.9113L105.538 77.7687ZM115.068 79.1C118.349 79.1 121.107 78.7264 122.925 77.6519L120.89 74.2081C120.069 74.6936 118.267 75.1 115.068 75.1V79.1ZM122.892 77.6711C124.787 76.5997 125.978 74.9113 125.978 72.69H121.978C121.978 73.2287 121.788 73.7003 120.924 74.1889L122.892 77.6711ZM125.978 72.69C125.978 71.7922 125.761 70.91 125.255 70.1235C124.754 69.3436 124.046 68.7782 123.252 68.3811L121.463 71.9589C121.749 72.1018 121.852 72.2264 121.89 72.2865C121.925 72.34 121.978 72.4478 121.978 72.69H125.978ZM123.372 68.4461C122.068 67.6792 120.43 67.1719 118.558 66.8491L117.878 70.7909C119.486 71.0681 120.608 71.4608 121.344 71.8939L123.372 68.4461ZM118.558 66.8491C116.795 66.5452 114.856 66.2423 112.741 65.9401L112.175 69.8999C114.26 70.1977 116.16 70.4948 117.878 70.7909L118.558 66.8491ZM112.749 65.9413C110.763 65.6492 108.745 65.2691 106.693 64.8003L105.802 68.6997C107.951 69.1909 110.073 69.5908 112.167 69.8987L112.749 65.9413ZM106.746 64.813C104.813 64.3159 103.067 63.6038 101.499 62.6846L99.4764 66.1354C101.388 67.2562 103.483 68.1041 105.75 68.687L106.746 64.813ZM101.499 62.6846C100.044 61.8316 98.8685 60.6836 97.9571 59.2153L94.5585 61.3247C95.8072 63.3364 97.4516 64.9484 99.4764 66.1354L101.499 62.6846ZM97.9832 59.2586C97.1974 57.9181 96.7278 56.0501 96.7278 53.52H92.7278C92.7278 56.5099 93.2782 59.1419 94.5324 61.2814L97.9832 59.2586ZM96.7278 53.52C96.7278 50.8673 97.4725 48.5906 98.9427 46.6134L95.7329 44.2266C93.7231 46.9294 92.7278 50.0527 92.7278 53.52H96.7278ZM98.9231 46.6394C100.457 44.6448 102.712 43.0084 105.809 41.7915L104.347 38.0685C100.724 39.4916 97.8182 41.5152 95.7526 44.2006L98.9231 46.6394ZM105.838 41.78C108.898 40.5231 112.647 39.86 117.138 39.86V35.86C112.269 35.86 107.978 36.5769 104.318 38.08L105.838 41.78ZM117.138 39.86C120.291 39.86 123.513 40.2039 126.806 40.8971L127.63 36.9829C124.082 36.236 120.584 35.86 117.138 35.86V39.86ZM126.806 40.8971C130.07 41.5844 132.694 42.5674 134.732 43.801L136.803 40.379C134.281 38.8526 131.205 37.7356 127.63 36.9829L126.806 40.8971ZM133.957 41.2416L129.277 51.2315L132.899 52.9284L137.579 42.9384L133.957 41.2416ZM132.104 50.3573C129.592 48.8758 127.013 47.8574 124.37 47.3288L123.586 51.2512C125.743 51.6826 127.904 52.5242 130.072 53.8027L132.104 50.3573ZM124.428 47.3412C121.952 46.7699 119.521 46.48 117.138 46.48V50.48C119.195 50.48 121.324 50.7301 123.528 51.2388L124.428 47.3412ZM117.138 46.48C113.924 46.48 111.202 46.8974 109.29 48.0124L111.306 51.4676C112.274 50.9026 114.112 50.48 117.138 50.48V46.48ZM109.29 48.0124C107.423 49.1017 106.138 50.7558 106.138 52.98H110.138C110.138 52.5642 110.293 52.0583 111.306 51.4676L109.29 48.0124ZM106.138 52.98C106.138 54.8764 107.012 56.4383 108.654 57.4039L110.682 53.9561C110.283 53.7217 110.138 53.4836 110.138 52.98H106.138ZM108.697 57.4283C110.012 58.1593 111.633 58.6938 113.493 59.0785L114.303 55.1615C112.682 54.8262 111.483 54.4007 110.639 53.9317L108.697 57.4283ZM113.493 59.0785C115.276 59.4475 117.204 59.784 119.277 60.0887L119.859 56.1313C117.851 55.836 116 55.5125 114.303 55.1615L113.493 59.0785ZM119.341 60.0971C121.347 60.3264 123.357 60.6993 125.37 61.217L126.366 57.343C124.179 56.7807 121.989 56.3736 119.795 56.1229L119.341 60.0971ZM125.37 61.217C127.299 61.7131 129.004 62.4214 130.5 63.3296L132.576 59.9104C130.712 58.7786 128.637 57.9269 126.366 57.343L125.37 61.217ZM130.572 63.3712C132.002 64.1604 133.163 65.2666 134.069 66.7247L137.467 64.6153C136.212 62.5934 134.553 60.9995 132.504 59.8688L130.572 63.3712ZM134.085 66.7515C134.893 68.0078 135.388 69.8123 135.388 72.33H139.388C139.388 69.3277 138.803 66.6922 137.45 64.5885L134.085 66.7515ZM135.388 72.33C135.388 74.8966 134.629 77.1363 133.103 79.1206L136.273 81.5594C138.347 78.8637 139.388 75.7634 139.388 72.33H135.388ZM133.118 79.1007C131.591 81.0348 129.31 82.6498 126.138 83.8742L127.578 87.6058C131.246 86.1902 134.184 84.2052 136.258 81.5793L133.118 79.1007ZM126.127 83.8785C123.065 85.0813 119.219 85.72 114.528 85.72V89.72C119.557 89.72 123.931 89.0387 127.589 87.6015L126.127 83.8785ZM146.05 87H144.05V89H146.05V87ZM146.05 38.58V36.58H144.05V38.58H146.05ZM160.09 38.58H162.09V36.58H160.09V38.58ZM160.09 87V89H162.09V87H160.09ZM146.77 29.58L145.411 31.0475V31.0475L146.77 29.58ZM146.77 18.42L148.129 19.8875V19.8875L146.77 18.42ZM159.37 18.33L158.042 19.8248L158.057 19.8388L158.073 19.8525L159.37 18.33ZM159.37 29.58L160.757 31.0217L160.758 31.0206L159.37 29.58ZM148.05 87V38.58H144.05V87H148.05ZM146.05 40.58H160.09V36.58H146.05V40.58ZM158.09 38.58V87H162.09V38.58H158.09ZM160.09 85H146.05V89H160.09V85ZM153.07 29.83C150.904 29.83 149.318 29.2132 148.129 28.1125L145.411 31.0475C147.463 32.9468 150.077 33.83 153.07 33.83V29.83ZM148.129 28.1125C146.92 26.9934 146.34 25.6664 146.34 24H142.34C142.34 26.7736 143.38 29.1666 145.411 31.0475L148.129 28.1125ZM146.34 24C146.34 22.3336 146.92 21.0066 148.129 19.8875L145.411 16.9525C143.38 18.8334 142.34 21.2264 142.34 24H146.34ZM148.129 19.8875C149.318 18.7868 150.904 18.17 153.07 18.17V14.17C150.077 14.17 147.463 15.0532 145.411 16.9525L148.129 19.8875ZM153.07 18.17C155.259 18.17 156.855 18.7701 158.042 19.8248L160.699 16.8352C158.646 15.0099 156.042 14.17 153.07 14.17V18.17ZM158.073 19.8525C159.226 20.8341 159.8 22.067 159.8 23.73H163.8C163.8 20.953 162.755 18.5859 160.667 16.8075L158.073 19.8525ZM159.8 23.73C159.8 25.5512 159.194 26.9732 157.983 28.1394L160.758 31.0206C162.787 29.0668 163.8 26.5888 163.8 23.73H159.8ZM157.984 28.1383C156.875 29.2046 155.314 29.83 153.07 29.83V33.83C156.107 33.83 158.745 32.9554 160.757 31.0217L157.984 28.1383ZM182.661 103.47L183.178 101.538L183.168 101.535L183.159 101.533L182.661 103.47ZM172.131 98.52L170.381 97.5514L169.557 99.0394L170.894 100.091L172.131 98.52ZM177.711 88.44L178.982 86.8961L177.126 85.3673L175.961 87.4714L177.711 88.44ZM185.451 92.4L186.061 90.4956L186.05 90.4919L186.039 90.4884L185.451 92.4ZM205.611 90.6L204.215 89.1671L204.206 89.1764L204.196 89.1858L205.611 90.6ZM209.031 73.41L207.036 73.2623L207.031 73.336V73.41H209.031ZM209.931 61.26L211.925 61.4077L211.932 61.3193L211.93 61.2306L209.931 61.26ZM209.751 49.02H207.751V49.0347L207.751 49.0494L209.751 49.02ZM209.751 38.58V36.58H207.751V38.58H209.751ZM223.071 38.58H225.071V36.58H223.071V38.58ZM216.051 98.79L217.397 100.269L216.051 98.79ZM181.491 81.78L180.527 83.5324L180.544 83.5419L180.562 83.5511L181.491 81.78ZM172.761 73.59L171.053 74.6317L171.064 74.6488L171.074 74.6656L172.761 73.59ZM172.761 48.93L171.066 47.8674L171.061 47.8753L172.761 48.93ZM181.491 40.74L180.562 38.9689L180.549 38.9753L181.491 40.74ZM204.531 40.38L203.582 42.1409L203.596 42.1481L203.609 42.155L204.531 40.38ZM211.821 48.03L210.032 48.9244L210.038 48.9369L211.821 48.03ZM211.821 74.49L213.603 75.3969L213.609 75.3844L211.821 74.49ZM204.531 82.14L205.479 83.9009L204.531 82.14ZM203.091 71.7L203.985 73.4889L204.007 73.4778L204.029 73.4662L203.091 71.7ZM207.591 55.05L205.876 56.079L205.883 56.0919L205.891 56.1047L207.591 55.05ZM203.091 50.91L202.152 52.6762L202.174 52.6878L202.196 52.6989L203.091 50.91ZM189.951 50.91L190.845 52.6989L190.867 52.6878L190.889 52.6762L189.951 50.91ZM185.361 55.05L183.671 53.9799L183.666 53.9876L183.661 53.9953L185.361 55.05ZM185.361 67.47L183.646 68.499L183.658 68.5197L183.671 68.5401L185.361 67.47ZM189.951 71.7L189.012 73.4662L189.034 73.4778L189.056 73.4889L189.951 71.7ZM195.891 103.18C191.499 103.18 187.263 102.631 183.178 101.538L182.144 105.402C186.578 106.589 191.162 107.18 195.891 107.18V103.18ZM183.159 101.533C179.173 100.508 175.929 98.9648 173.368 96.9485L170.894 100.091C173.972 102.515 177.748 104.272 182.163 105.407L183.159 101.533ZM173.88 99.4886L179.46 89.4086L175.961 87.4714L170.381 97.5514L173.88 99.4886ZM176.439 89.9839C178.722 91.8639 181.55 93.2923 184.862 94.3116L186.039 90.4884C183.111 89.5877 180.779 88.3761 178.982 86.8961L176.439 89.9839ZM184.84 94.3044C188.199 95.382 191.525 95.93 194.811 95.93V91.93C191.976 91.93 189.062 91.458 186.061 90.4956L184.84 94.3044ZM194.811 95.93C200.021 95.93 204.261 94.7785 207.025 92.0142L204.196 89.1858C202.521 90.8615 199.561 91.93 194.811 91.93V95.93ZM207.006 92.0329C209.8 89.3124 211.031 85.4114 211.031 80.7H207.031C207.031 84.7486 205.981 87.4476 204.215 89.1671L207.006 92.0329ZM211.031 80.7V73.41H207.031V80.7H211.031ZM211.025 73.5577L211.925 61.4077L207.936 61.1123L207.036 73.2623L211.025 73.5577ZM211.93 61.2306L211.75 48.9906L207.751 49.0494L207.931 61.2894L211.93 61.2306ZM211.751 49.02V38.58H207.751V49.02H211.751ZM209.751 40.58H223.071V36.58H209.751V40.58ZM221.071 38.58V78.9H225.071V38.58H221.071ZM221.071 78.9C221.071 87.5804 218.817 93.5676 214.704 97.311L217.397 100.269C222.644 95.4924 225.071 88.2196 225.071 78.9H221.071ZM214.704 97.311C210.514 101.126 204.345 103.18 195.891 103.18V107.18C204.956 107.18 212.228 104.974 217.397 100.269L214.704 97.311ZM193.731 82.66C189.525 82.66 185.768 81.7655 182.42 80.0089L180.562 83.5511C184.533 85.6345 188.936 86.66 193.731 86.66V82.66ZM182.454 80.0276C179.15 78.2099 176.487 75.7132 174.447 72.5144L171.074 74.6656C173.474 78.4268 176.632 81.3901 180.527 83.5324L182.454 80.0276ZM174.468 72.5483C172.523 69.3609 171.521 65.6209 171.521 61.26H167.521C167.521 66.2591 168.678 70.7391 171.053 74.6317L174.468 72.5483ZM171.521 61.26C171.521 56.833 172.526 53.1009 174.46 49.9847L171.061 47.8753C168.676 51.7191 167.521 56.207 167.521 61.26H171.521ZM174.455 49.9926C176.494 46.7409 179.148 44.2563 182.432 42.5047L180.549 38.9753C176.634 41.0637 173.467 44.0391 171.066 47.8674L174.455 49.9926ZM182.42 42.5111C185.768 40.7545 189.525 39.86 193.731 39.86V35.86C188.936 35.86 184.533 36.8855 180.562 38.9689L182.42 42.5111ZM193.731 39.86C197.53 39.86 200.795 40.6402 203.582 42.1409L205.479 38.6191C202.026 36.7598 198.091 35.86 193.731 35.86V39.86ZM203.609 42.155C206.314 43.5597 208.459 45.7798 210.032 48.9244L213.609 47.1356C211.702 43.3202 208.987 40.4403 205.452 38.605L203.609 42.155ZM210.038 48.9369C211.589 51.9853 212.431 56.0547 212.431 61.26H216.431C216.431 55.6653 215.532 50.9147 213.603 47.1231L210.038 48.9369ZM212.431 61.26C212.431 66.399 211.591 70.4769 210.032 73.5956L213.609 75.3844C215.53 71.5431 216.431 66.801 216.431 61.26H212.431ZM210.038 73.5831C208.467 76.6717 206.314 78.9083 203.582 80.3791L205.479 83.9009C208.987 82.0117 211.695 79.1483 213.603 75.3969L210.038 73.5831ZM203.582 80.3791C200.795 81.8798 197.53 82.66 193.731 82.66V86.66C198.091 86.66 202.026 85.7602 205.479 83.9009L203.582 80.3791ZM196.521 75.14C199.246 75.14 201.749 74.6067 203.985 73.4889L202.196 69.9111C200.592 70.7133 198.716 71.14 196.521 71.14V75.14ZM204.029 73.4662C206.258 72.282 208.032 70.6222 209.306 68.499L205.876 66.441C204.99 67.9178 203.763 69.078 202.152 69.9338L204.029 73.4662ZM209.306 68.499C210.593 66.3535 211.211 63.9198 211.211 61.26H207.211C207.211 63.2802 206.748 64.9865 205.876 66.441L209.306 68.499ZM211.211 61.26C211.211 58.5523 210.598 56.103 209.29 53.9953L205.891 56.1047C206.743 57.477 207.211 59.1677 207.211 61.26H211.211ZM209.306 54.021C208.025 51.8871 206.237 50.2472 203.985 49.1211L202.196 52.6989C203.784 53.4928 204.996 54.6129 205.876 56.079L209.306 54.021ZM204.029 49.1438C201.784 47.9511 199.264 47.38 196.521 47.38V51.38C198.697 51.38 200.557 51.8289 202.152 52.6762L204.029 49.1438ZM196.521 47.38C193.777 47.38 191.257 47.9511 189.012 49.1438L190.889 52.6762C192.484 51.8289 194.344 51.38 196.521 51.38V47.38ZM189.056 49.1211C186.813 50.2426 185.007 51.87 183.671 53.9799L187.05 56.1201C187.994 54.63 189.248 53.4974 190.845 52.6989L189.056 49.1211ZM183.661 53.9953C182.353 56.103 181.741 58.5523 181.741 61.26H185.741C185.741 59.1677 186.208 57.477 187.06 56.1047L183.661 53.9953ZM181.741 61.26C181.741 63.9198 182.358 66.3535 183.646 68.499L187.076 66.441C186.203 64.9865 185.741 63.2802 185.741 61.26H181.741ZM183.671 68.5401C185.001 70.6396 186.792 72.2868 189.012 73.4662L190.889 69.9338C189.269 69.0732 188.001 67.9004 187.05 66.3999L183.671 68.5401ZM189.056 73.4889C191.292 74.6067 193.796 75.14 196.521 75.14V71.14C194.326 71.14 192.449 70.7133 190.845 69.9111L189.056 73.4889ZM236.138 87H234.138V89H236.138V87ZM236.138 20.22V18.22H234.138V20.22H236.138ZM250.178 20.22H252.178V18.22H250.178V20.22ZM250.178 51.99L248.6 53.2179L252.178 57.8191V51.99H250.178ZM247.028 47.94L245.266 46.9937L244.65 48.1405L245.449 49.1679L247.028 47.94ZM254.498 40.47L255.444 42.232L254.498 40.47ZM275.828 40.2L274.905 41.9744L274.927 41.9854L274.948 41.9958L275.828 40.2ZM283.028 47.22L281.274 48.18L281.278 48.1871L281.281 48.1941L283.028 47.22ZM285.638 87V89H287.638V87H285.638ZM271.598 87H269.598V89H271.598V87ZM268.988 52.8L267.504 54.1406L267.516 54.1535L267.528 54.1663L268.988 52.8ZM255.758 51.45L256.677 53.2264L256.688 53.2206L256.699 53.2147L255.758 51.45ZM251.618 55.68L249.852 54.7417L249.84 54.7635L249.829 54.7856L251.618 55.68ZM250.178 87V89H252.178V87H250.178ZM238.138 87V20.22H234.138V87H238.138ZM236.138 22.22H250.178V18.22H236.138V22.22ZM248.178 20.22V51.99H252.178V20.22H248.178ZM251.757 50.7621L248.607 46.7121L245.449 49.1679L248.6 53.2179L251.757 50.7621ZM248.79 48.8863C250.344 45.9924 252.551 43.7861 255.444 42.232L253.552 38.708C249.966 40.6339 247.192 43.4076 245.266 46.9937L248.79 48.8863ZM255.444 42.232C258.359 40.667 261.716 39.86 265.568 39.86V35.86C261.14 35.86 257.118 36.793 253.552 38.708L255.444 42.232ZM265.568 39.86C269.131 39.86 272.227 40.5817 274.905 41.9744L276.751 38.4256C273.429 36.6983 269.685 35.86 265.568 35.86V39.86ZM274.948 41.9958C277.613 43.3023 279.719 45.3378 281.274 48.18L284.783 46.26C282.858 42.7422 280.163 40.0977 276.709 38.4042L274.948 41.9958ZM281.281 48.1941C282.804 50.925 283.638 54.5784 283.638 59.28H287.638C287.638 54.1416 286.732 49.755 284.775 46.2459L281.281 48.1941ZM283.638 59.28V87H287.638V59.28H283.638ZM285.638 85H271.598V89H285.638V85ZM273.598 87V61.44H269.598V87H273.598ZM273.598 61.44C273.598 57.2942 272.68 53.819 270.449 51.4337L267.528 54.1663C268.776 55.501 269.598 57.7858 269.598 61.44H273.598ZM270.472 51.4594C268.324 49.0805 265.325 48.01 261.788 48.01V52.01C264.491 52.01 266.293 52.7995 267.504 54.1406L270.472 51.4594ZM261.788 48.01C259.27 48.01 256.932 48.5574 254.817 49.6853L256.699 53.2147C258.185 52.4226 259.867 52.01 261.788 52.01V48.01ZM254.839 49.6736C252.699 50.7806 251.041 52.5038 249.852 54.7417L253.384 56.6183C254.236 55.0162 255.337 53.9194 256.677 53.2264L254.839 49.6736ZM249.829 54.7856C248.687 57.0712 248.178 59.8656 248.178 63.06H252.178C252.178 60.2544 252.63 58.1288 253.407 56.5744L249.829 54.7856ZM248.178 63.06V87H252.178V63.06H248.178ZM250.178 85H236.138V89H250.178V85ZM304.845 83.4L303.487 84.8685L303.495 84.8755L303.502 84.8824L304.845 83.4ZM300.075 27.87V25.87H298.075V27.87H300.075ZM314.115 27.87H316.115V25.87H314.115V27.87ZM315.735 74.94L314.283 76.3155L314.301 76.3351L314.321 76.3542L315.735 74.94ZM325.815 74.76L327.683 74.0466L326.725 71.5367L324.595 73.1748L325.815 74.76ZM329.595 84.66L330.751 86.292L332.016 85.3956L331.463 83.9466L329.595 84.66ZM324.375 87L324.846 88.9437L324.866 88.9388L324.887 88.9334L324.375 87ZM292.605 49.38H290.605V51.38H292.605V49.38ZM292.605 38.58V36.58H290.605V38.58H292.605ZM326.175 38.58H328.175V36.58H326.175V38.58ZM326.175 49.38V51.38H328.175V49.38H326.175ZM318.165 85.72C312.795 85.72 308.893 84.3676 306.187 81.9176L303.502 84.8824C307.157 88.1924 312.135 89.72 318.165 89.72V85.72ZM306.202 81.9315C303.555 79.4835 302.075 75.745 302.075 70.35H298.075C298.075 76.475 299.775 81.4365 303.487 84.8685L306.202 81.9315ZM302.075 70.35V27.87H298.075V70.35H302.075ZM300.075 29.87H314.115V25.87H300.075V29.87ZM312.115 27.87V70.17H316.115V27.87H312.115ZM312.115 70.17C312.115 72.5635 312.755 74.7031 314.283 76.3155L317.187 73.5645C316.554 72.8969 316.115 71.8565 316.115 70.17H312.115ZM314.321 76.3542C315.855 77.8882 317.877 78.56 320.145 78.56V74.56C318.692 74.56 317.775 74.1518 317.149 73.5258L314.321 76.3542ZM320.145 78.56C322.747 78.56 325.08 77.8482 327.034 76.3452L324.595 73.1748C323.429 74.0718 321.983 74.56 320.145 74.56V78.56ZM323.946 75.4734L327.726 85.3734L331.463 83.9466L327.683 74.0466L323.946 75.4734ZM328.439 83.028C327.228 83.8857 325.716 84.5761 323.863 85.0666L324.887 88.9334C327.113 88.3439 329.082 87.4743 330.751 86.292L328.439 83.028ZM323.904 85.0563C322.087 85.4967 320.176 85.72 318.165 85.72V89.72C320.474 89.72 322.703 89.4633 324.846 88.9437L323.904 85.0563ZM294.605 49.38V38.58H290.605V49.38H294.605ZM292.605 40.58H326.175V36.58H292.605V40.58ZM324.175 38.58V49.38H328.175V38.58H324.175ZM326.175 47.38H292.605V51.38H326.175V47.38ZM337.455 85.29L336.041 86.7042L336.066 86.7295L336.092 86.7538L337.455 85.29ZM337.455 72.69L338.816 74.1556L338.818 74.1538L337.455 72.69ZM349.875 72.69L348.487 74.1297L348.5 74.1428L348.514 74.1556L349.875 72.69ZM349.875 85.29L351.263 86.7297L351.276 86.7171L351.289 86.7042L349.875 85.29ZM343.665 85.72C341.765 85.72 340.184 85.098 338.818 83.8262L336.092 86.7538C338.206 88.722 340.765 89.72 343.665 89.72V85.72ZM338.869 83.8758C337.598 82.605 336.935 80.9998 336.935 78.9H332.935C332.935 81.9602 333.952 84.615 336.041 86.7042L338.869 83.8758ZM336.935 78.9C336.935 76.7991 337.597 75.2878 338.816 74.1556L336.094 71.2244C333.953 73.2122 332.935 75.8409 332.935 78.9H336.935ZM338.818 74.1538C340.184 72.882 341.765 72.26 343.665 72.26V68.26C340.765 68.26 338.206 69.258 336.092 71.2262L338.818 74.1538ZM343.665 72.26C345.638 72.26 347.201 72.8901 348.487 74.1297L351.263 71.2503C349.189 69.2499 346.612 68.26 343.665 68.26V72.26ZM348.514 74.1556C349.733 75.2878 350.395 76.7991 350.395 78.9H354.395C354.395 75.8409 353.377 73.2122 351.236 71.2244L348.514 74.1556ZM350.395 78.9C350.395 80.9998 349.732 82.605 348.461 83.8758L351.289 86.7042C353.378 84.615 354.395 81.9602 354.395 78.9H350.395ZM348.487 83.8503C347.201 85.0899 345.638 85.72 343.665 85.72V89.72C346.612 89.72 349.189 88.7301 351.263 86.7297L348.487 83.8503Z" fill="#2E2E2E" mask="url(#path-1-outside-1_348_1556)"/>
</svg>
