<svg width="46" height="46" viewBox="0 0 46 46" fill="none" xmlns="http://www.w3.org/2000/svg">
<rect x="0.5" y="0.5" width="45" height="45" rx="9.75" fill="#EEC659"/>
<rect x="0.5" y="0.5" width="45" height="45" rx="9.75" stroke="#2E2E2E"/>
<path fill-rule="evenodd" clip-rule="evenodd" d="M11.5925 9.99154C10.7091 9.99154 9.99199 10.7086 9.99199 11.5918V34.4082C9.99199 35.2914 10.7091 36.0085 11.5925 36.0085H34.4123C35.2956 36.0085 36.0128 35.2914 36.0128 34.4082V11.5918C36.0128 10.7086 35.2956 9.99154 34.4123 9.99154H11.5925ZM15.1733 24.1847C14.404 18.8854 18.892 14.3981 24.192 15.1674C27.3597 15.628 30.3707 18.6385 30.8314 21.8058C31.6055 27.1051 27.1128 31.5924 21.8127 30.8231C18.645 30.3625 15.634 27.352 15.1733 24.1847ZM31.5818 16.6632C32.9923 16.7344 34.1463 15.5758 34.0751 14.1702C34.0039 12.7647 33.035 11.9859 31.8287 11.9242C30.6224 11.8624 29.2642 13.0116 29.3354 14.4171C29.4066 15.8227 30.3755 16.6014 31.5818 16.6632ZM34.6355 7C37.0481 7 39 8.95162 39 11.3639V34.6361C39 37.0484 37.0481 39 34.6355 39H11.3645C8.95191 39 7 37.0484 7 34.6361V11.3639C7 8.95162 8.95191 7 11.3645 7H34.6402H34.6355Z" fill="#FAF3DB"/>
</svg>
