<svg width="47" height="47" viewBox="0 0 47 47" fill="none" xmlns="http://www.w3.org/2000/svg">
<rect x="0.5" y="0.5" width="45.5" height="45.5" rx="9.75" fill="#B49541"/>
<rect x="0.5" y="0.5" width="45.5" height="45.5" rx="9.75" stroke="#2E2E2E"/>
<g clip-path="url(#clip0_233_1821)">
<path fill-rule="evenodd" clip-rule="evenodd" d="M11.6642 10.0383C10.7671 10.0383 10.0387 10.7665 10.0387 11.6635V34.8365C10.0387 35.7335 10.7671 36.4617 11.6642 36.4617H34.8406C35.7378 36.4617 36.4661 35.7335 36.4661 34.8365V11.6635C36.4661 10.7665 35.7378 10.0383 34.8406 10.0383H11.6642ZM15.3011 24.4533C14.5197 19.0712 19.0778 14.5137 24.4607 15.295C27.6779 15.7628 30.7359 18.8204 31.2038 22.0371C31.99 27.4192 27.4271 31.9766 22.0442 31.1954C18.827 30.7276 15.7689 27.67 15.3011 24.4533ZM31.9659 16.8141C33.3984 16.8865 34.5705 15.7097 34.4981 14.2822C34.4258 12.8547 33.4418 12.0638 32.2167 12.0011C30.9915 11.9384 29.6121 13.1055 29.6844 14.533C29.7568 15.9605 30.7407 16.7514 31.9659 16.8141ZM35.0673 7C37.5176 7 39.5 8.98212 39.5 11.432V35.068C39.5 37.5179 37.5176 39.5 35.0673 39.5H11.4327C8.98241 39.5 7 37.5179 7 35.068V11.432C7 8.98212 8.98241 7 11.4327 7H35.0721H35.0673Z" fill="#EEC659"/>
</g>
<defs>
<clipPath id="clip0_233_1821">
<rect width="32.5" height="32.5" fill="white" transform="translate(7 7)"/>
</clipPath>
</defs>
</svg>
