<svg width="56" height="57" viewBox="0 0 56 57" fill="none" xmlns="http://www.w3.org/2000/svg">
<rect x="0.5" y="0.5" width="55" height="55.1044" rx="27.5" fill="#D97D68"/>
<rect x="0.5" y="0.5" width="55" height="55.1044" rx="27.5" stroke="#2E2E2E"/>
<path d="M16.1712 13.841C14.7755 14.6592 12.027 17.7779 12 18.5961V19.9548C12 21.6693 13.6247 23.1831 15.0984 23.1831C16.8691 23.1831 18.3488 21.7315 18.3488 20.0082C18.3488 21.7315 19.7695 23.1831 21.5452 23.1831C23.3159 23.1831 24.6956 21.7315 24.6956 20.0082C24.6956 21.7315 26.2113 23.1831 27.982 23.1831H28.014C29.7897 23.1831 31.3044 21.7315 31.3044 20.0082C31.3044 21.7315 32.6851 23.1831 34.4558 23.1831C36.2265 23.1831 37.6522 21.7315 37.6522 20.0082C37.6522 21.7315 39.1269 23.1831 40.8966 23.1831C42.3753 23.1831 44 21.6693 44 19.9548V18.5961C43.968 17.7779 41.2245 14.6592 39.8238 13.841C35.4856 13.6868 32.4812 13.6602 28.003 13.6602C23.5198 13.6651 17.412 13.7323 16.1772 13.841H16.1712ZM24.6746 22.3728C24.4917 22.6772 24.2897 22.9341 24.0497 23.1604V23.1654C23.3779 23.8087 22.462 24.2098 21.4512 24.2098C20.4354 24.2098 19.5196 23.8077 18.8527 23.1594C18.6078 22.9272 18.4248 22.6762 18.2528 22.3817C18.0859 22.6752 17.8529 22.9272 17.6079 23.1594C16.9361 23.8077 16.0202 24.2098 15.0094 24.2098C15.0094 24.2098 15.0094 24.2098 15.0044 24.2098C14.8845 24.2098 14.7595 24.1743 14.6555 24.1377C14.5155 25.6051 14.4525 27.0044 14.4315 28.0281V28.0331C14.4265 28.5538 14.4265 28.9748 14.4205 29.5667C14.4525 32.6449 14.1136 39.5363 15.7963 41.2301C18.3998 41.8269 23.1909 42.0997 27.991 42.1046H27.996C32.8021 42.0997 37.5872 41.8269 40.1907 41.2301C41.8734 39.5373 41.5345 32.6449 41.5665 29.5667C41.5615 28.9748 41.5615 28.5538 41.5555 28.0331V28.0281C41.5345 27.0044 41.4765 25.6051 41.3315 24.1377C41.2325 24.1743 41.1025 24.2098 40.9826 24.2098H40.9776C39.9668 24.2098 39.0509 23.8077 38.3791 23.1594H38.3841C38.1391 22.9272 37.9051 22.6762 37.7392 22.3817H37.7342C37.5672 22.6752 37.3792 22.9272 37.1393 23.1594C36.4724 23.8077 35.5566 24.2098 34.5408 24.2098C33.53 24.2098 32.6141 23.8077 31.9423 23.1594C31.7023 22.9331 31.4993 22.6703 31.3274 22.3817L31.3164 22.3659C31.1444 22.6703 30.9364 22.9321 30.7015 23.1594C30.0296 23.8077 29.1138 24.2098 28.103 24.2098H28.098C28.067 24.2098 28.03 24.2098 27.994 24.2049C27.958 24.2098 27.921 24.2098 27.885 24.2098C27.885 24.2098 27.885 24.2098 27.88 24.2098C26.8692 24.2098 25.9534 23.8077 25.2875 23.1594C25.0476 22.9331 24.8446 22.6703 24.6786 22.3817L24.6676 22.3659L24.6746 22.3728ZM22.0031 25.786C23.0599 25.7909 23.9978 25.786 25.1635 27.0419C26.0794 26.95 27.0382 26.9036 27.996 26.9036C28.9538 26.9036 29.9126 26.95 30.8285 27.0419C31.9953 25.786 32.9321 25.786 33.9889 25.786H33.9939C34.4938 25.786 36.4934 25.786 37.8841 29.6517L39.3789 34.9572C40.4877 38.9049 39.0239 39.0037 37.2023 39.0037C34.4948 38.9049 32.9951 36.9602 32.9951 35.0145C31.4953 35.2625 29.7447 35.3811 27.996 35.3811C26.2473 35.3811 24.4967 35.2625 23.0019 35.0145C23.0019 36.9602 21.5022 38.9049 18.7947 39.0037C16.9671 38.9988 15.5033 38.9049 16.6121 34.9572L18.1069 29.6517C19.5026 25.786 21.5032 25.786 22.0031 25.786ZM27.997 28.8276C27.992 28.8276 25.1485 31.4166 24.6336 32.3326L26.4973 32.2605V33.8662C26.4973 33.9443 27.2481 33.9127 27.997 33.8771C28.7459 33.9127 29.4917 33.9443 29.4917 33.8662V32.2605L31.3604 32.3326C30.8455 31.4166 27.997 28.8276 27.997 28.8276Z" fill="#FAF3DB"/>
</svg>
