<svg width="788" height="110" viewBox="0 0 788 110" fill="none" xmlns="http://www.w3.org/2000/svg">
<mask id="path-1-outside-1_348_1555" maskUnits="userSpaceOnUse" x="-1" y="22" width="406" height="86" fill="black">
<rect fill="white" x="-1" y="22" width="406" height="86"/>
<path d="M23.08 88.08C18.82 88.08 14.89 87.3 11.29 85.74C7.75 84.12 4.84 81.84 2.56 78.9L10.66 69.18C12.4 71.46 14.23 73.2 16.15 74.4C18.07 75.54 20.14 76.11 22.36 76.11C28.3 76.11 31.27 72.63 31.27 65.67V35.7H9.13V24H45.76V64.86C45.76 72.66 43.84 78.48 40 82.32C36.16 86.16 30.52 88.08 23.08 88.08ZM82.2114 87.72C77.0514 87.72 72.4614 86.64 68.4414 84.48C64.4814 82.32 61.3314 79.38 58.9914 75.66C56.7114 71.88 55.5714 67.59 55.5714 62.79C55.5714 57.93 56.7114 53.64 58.9914 49.92C61.3314 46.14 64.4814 43.2 68.4414 41.1C72.4614 38.94 77.0514 37.86 82.2114 37.86C87.3114 37.86 91.8714 38.94 95.8914 41.1C99.9114 43.2 103.061 46.11 105.341 49.83C107.621 53.55 108.761 57.87 108.761 62.79C108.761 67.59 107.621 71.88 105.341 75.66C103.061 79.38 99.9114 82.32 95.8914 84.48C91.8714 86.64 87.3114 87.72 82.2114 87.72ZM82.2114 76.2C84.5514 76.2 86.6514 75.66 88.5114 74.58C90.3714 73.5 91.8414 71.97 92.9214 69.99C94.0014 67.95 94.5414 65.55 94.5414 62.79C94.5414 59.97 94.0014 57.57 92.9214 55.59C91.8414 53.61 90.3714 52.08 88.5114 51C86.6514 49.92 84.5514 49.38 82.2114 49.38C79.8714 49.38 77.7714 49.92 75.9114 51C74.0514 52.08 72.5514 53.61 71.4114 55.59C70.3314 57.57 69.7914 59.97 69.7914 62.79C69.7914 65.55 70.3314 67.95 71.4114 69.99C72.5514 71.97 74.0514 73.5 75.9114 74.58C77.7714 75.66 79.8714 76.2 82.2114 76.2ZM138.576 87.72C134.556 87.72 130.956 86.94 127.776 85.38C124.656 83.82 122.226 81.45 120.486 78.27C118.746 75.03 117.876 70.92 117.876 65.94V38.58H131.916V63.87C131.916 67.89 132.756 70.86 134.436 72.78C136.176 74.64 138.606 75.57 141.726 75.57C143.886 75.57 145.806 75.12 147.486 74.22C149.166 73.26 150.486 71.82 151.446 69.9C152.406 67.92 152.886 65.46 152.886 62.52V38.58H166.926V87H153.606V73.68L156.036 77.55C154.416 80.91 152.016 83.46 148.836 85.2C145.716 86.88 142.296 87.72 138.576 87.72ZM179.933 87V38.58H193.343V52.26L191.453 48.3C192.893 44.88 195.203 42.3 198.383 40.56C201.563 38.76 205.433 37.86 209.993 37.86V50.82C209.393 50.76 208.853 50.73 208.373 50.73C207.893 50.67 207.383 50.64 206.843 50.64C203.003 50.64 199.883 51.75 197.483 53.97C195.143 56.13 193.973 59.52 193.973 64.14V87H179.933ZM218.429 87V38.58H231.839V51.99L229.319 47.94C231.059 44.7 233.549 42.21 236.789 40.47C240.029 38.73 243.719 37.86 247.859 37.86C251.699 37.86 255.119 38.64 258.119 40.2C261.179 41.7 263.579 44.04 265.319 47.22C267.059 50.34 267.929 54.36 267.929 59.28V87H253.889V61.44C253.889 57.54 253.019 54.66 251.279 52.8C249.599 50.94 247.199 50.01 244.079 50.01C241.859 50.01 239.849 50.49 238.049 51.45C236.309 52.35 234.929 53.76 233.909 55.68C232.949 57.6 232.469 60.06 232.469 63.06V87H218.429ZM305.037 87.72C299.517 87.72 294.657 86.64 290.457 84.48C286.317 82.32 283.107 79.38 280.827 75.66C278.547 71.88 277.407 67.59 277.407 62.79C277.407 57.93 278.517 53.64 280.737 49.92C283.017 46.14 286.107 43.2 290.007 41.1C293.907 38.94 298.317 37.86 303.237 37.86C307.977 37.86 312.237 38.88 316.017 40.92C319.857 42.9 322.887 45.78 325.107 49.56C327.327 53.28 328.437 57.75 328.437 62.97C328.437 63.51 328.407 64.14 328.347 64.86C328.287 65.52 328.227 66.15 328.167 66.75H288.837V58.56H320.787L315.387 60.99C315.387 58.47 314.877 56.28 313.857 54.42C312.837 52.56 311.427 51.12 309.627 50.1C307.827 49.02 305.727 48.48 303.327 48.48C300.927 48.48 298.797 49.02 296.937 50.1C295.137 51.12 293.727 52.59 292.707 54.51C291.687 56.37 291.177 58.59 291.177 61.17V63.33C291.177 65.97 291.747 68.31 292.887 70.35C294.087 72.33 295.737 73.86 297.837 74.94C299.997 75.96 302.517 76.47 305.397 76.47C307.977 76.47 310.227 76.08 312.147 75.3C314.127 74.52 315.927 73.35 317.547 71.79L325.017 79.89C322.797 82.41 320.007 84.36 316.647 85.74C313.287 87.06 309.417 87.72 305.037 87.72ZM343.905 105.18C341.385 105.18 338.895 104.79 336.435 104.01C333.975 103.23 331.965 102.15 330.405 100.77L335.535 90.78C336.615 91.74 337.845 92.49 339.225 93.03C340.665 93.57 342.075 93.84 343.455 93.84C345.435 93.84 346.995 93.36 348.135 92.4C349.335 91.5 350.415 89.97 351.375 87.81L353.895 81.87L354.975 80.34L372.345 38.58H385.845L363.975 89.97C362.415 93.87 360.615 96.93 358.575 99.15C356.595 101.37 354.375 102.93 351.915 103.83C349.515 104.73 346.845 105.18 343.905 105.18ZM352.185 88.89L330.585 38.58H345.075L361.815 79.08L352.185 88.89ZM393.983 87.72C391.583 87.72 389.513 86.91 387.773 85.29C386.093 83.61 385.253 81.48 385.253 78.9C385.253 76.32 386.093 74.25 387.773 72.69C389.513 71.07 391.583 70.26 393.983 70.26C396.443 70.26 398.513 71.07 400.193 72.69C401.873 74.25 402.713 76.32 402.713 78.9C402.713 81.48 401.873 83.61 400.193 85.29C398.513 86.91 396.443 87.72 393.983 87.72Z"/>
</mask>
<path d="M11.29 85.74L10.4578 87.5586L10.4762 87.5671L10.4948 87.5751L11.29 85.74ZM2.56 78.9L1.02356 77.6196L-0.00587654 78.8549L0.97956 80.1256L2.56 78.9ZM10.66 69.18L12.2499 67.9667L10.7287 65.9734L9.12356 67.8996L10.66 69.18ZM16.15 74.4L15.09 76.096L15.1093 76.1081L15.1289 76.1197L16.15 74.4ZM31.27 35.7H33.27V33.7H31.27V35.7ZM9.13 35.7H7.13V37.7H9.13V35.7ZM9.13 24V22H7.13V24H9.13ZM45.76 24H47.76V22H45.76V24ZM40 82.32L38.5858 80.9058H38.5858L40 82.32ZM23.08 86.08C19.0699 86.08 15.4133 85.3471 12.0852 83.9049L10.4948 87.5751C14.3667 89.2529 18.5701 90.08 23.08 90.08V86.08ZM12.1222 83.9214C8.86179 82.4293 6.2133 80.3472 4.14044 77.6744L0.97956 80.1256C3.4667 83.3328 6.63821 85.8107 10.4578 87.5586L12.1222 83.9214ZM4.09644 80.1804L12.1964 70.4604L9.12356 67.8996L1.02356 77.6196L4.09644 80.1804ZM9.0701 70.3933C10.9189 72.8159 12.9194 74.7394 15.09 76.096L17.21 72.704C15.5406 71.6606 13.8811 70.1041 12.2499 67.9667L9.0701 70.3933ZM15.1289 76.1197C17.356 77.442 19.7784 78.11 22.36 78.11V74.11C20.5016 74.11 18.784 73.6379 17.1711 72.6803L15.1289 76.1197ZM22.36 78.11C25.7285 78.11 28.5923 77.1084 30.5638 74.7983C32.4835 72.5489 33.27 69.3876 33.27 65.67H29.27C29.27 68.9124 28.5715 70.9711 27.5212 72.2017C26.5227 73.3716 24.9315 74.11 22.36 74.11V78.11ZM33.27 65.67V35.7H29.27V65.67H33.27ZM31.27 33.7H9.13V37.7H31.27V33.7ZM11.13 35.7V24H7.13V35.7H11.13ZM9.13 26H45.76V22H9.13V26ZM43.76 24V64.86H47.76V24H43.76ZM43.76 64.86C43.76 72.3622 41.9132 77.5783 38.5858 80.9058L41.4142 83.7342C45.7668 79.3817 47.76 72.9578 47.76 64.86H43.76ZM38.5858 80.9058C35.2423 84.2493 30.1904 86.08 23.08 86.08V90.08C30.8496 90.08 37.0777 88.0707 41.4142 83.7342L38.5858 80.9058ZM68.4414 84.48L67.4837 86.2358L67.4948 86.2418L68.4414 84.48ZM58.9914 75.66L57.2788 76.693L57.2885 76.709L57.2985 76.7249L58.9914 75.66ZM58.9914 49.92L57.2909 48.8673L57.2862 48.8749L58.9914 49.92ZM68.4414 41.1L69.3784 42.8669L69.388 42.8618L68.4414 41.1ZM95.8914 41.1L94.9448 42.8618L94.955 42.8673L94.9654 42.8727L95.8914 41.1ZM105.341 75.66L107.047 76.7051L107.05 76.6991L107.054 76.693L105.341 75.66ZM95.8914 84.48L94.9448 82.7182L95.8914 84.48ZM88.5114 74.58L89.5157 76.3096L88.5114 74.58ZM92.9214 69.99L94.6772 70.9477L94.6832 70.9368L94.689 70.9258L92.9214 69.99ZM92.9214 55.59L91.1656 56.5477L92.9214 55.59ZM88.5114 51L87.5071 52.7296L88.5114 51ZM75.9114 51L76.9157 52.7296L75.9114 51ZM71.4114 55.59L69.6782 54.5921L69.6667 54.6121L69.6556 54.6323L71.4114 55.59ZM71.4114 69.99L69.6438 70.9258L69.6604 70.9572L69.6782 70.9879L71.4114 69.99ZM75.9114 74.58L76.9157 72.8504L75.9114 74.58ZM82.2114 85.72C77.338 85.72 73.0808 84.7024 69.388 82.7182L67.4948 86.2418C71.842 88.5776 76.7648 89.72 82.2114 89.72V85.72ZM69.3991 82.7242C65.7309 80.7234 62.8374 78.0179 60.6843 74.5951L57.2985 76.7249C59.8254 80.7421 63.2319 83.9166 67.4837 86.2358L69.3991 82.7242ZM60.704 74.627C58.6283 71.1858 57.5714 67.2588 57.5714 62.79H53.5714C53.5714 67.9212 54.7945 72.5742 57.2788 76.693L60.704 74.627ZM57.5714 62.79C57.5714 58.2557 58.6308 54.3357 60.6966 50.9651L57.2862 48.8749C54.792 52.9443 53.5714 57.6043 53.5714 62.79H57.5714ZM60.6919 50.9727C62.8436 47.4969 65.729 44.8022 69.3784 42.8669L67.5044 39.3331C63.2338 41.5978 59.8192 44.7831 57.2909 48.8673L60.6919 50.9727ZM69.388 42.8618C73.0808 40.8776 77.338 39.86 82.2114 39.86V35.86C76.7648 35.86 71.842 37.0024 67.4948 39.3382L69.388 42.8618ZM82.2114 39.86C87.0205 39.86 91.2487 40.8758 94.9448 42.8618L96.838 39.3382C92.4941 37.0042 87.6023 35.86 82.2114 35.86V39.86ZM94.9654 42.8727C98.6779 44.8121 101.553 47.4762 103.636 50.8751L107.047 48.7849C104.57 44.7438 101.145 41.5879 96.8174 39.3273L94.9654 42.8727ZM103.636 50.8751C105.7 54.2418 106.761 58.1906 106.761 62.79H110.761C110.761 57.5494 109.543 52.8582 107.047 48.7849L103.636 50.8751ZM106.761 62.79C106.761 67.2588 105.704 71.1858 103.629 74.627L107.054 76.693C109.538 72.5742 110.761 67.9212 110.761 62.79H106.761ZM103.636 74.6149C101.55 78.0189 98.6679 80.7177 94.9448 82.7182L96.838 86.2418C101.155 83.9223 104.573 80.7411 107.047 76.7051L103.636 74.6149ZM94.9448 82.7182C91.2487 84.7042 87.0205 85.72 82.2114 85.72V89.72C87.6023 89.72 92.4941 88.5758 96.838 86.2418L94.9448 82.7182ZM82.2114 78.2C84.8722 78.2 87.3241 77.5821 89.5157 76.3096L87.5071 72.8504C85.9787 73.7379 84.2306 74.2 82.2114 74.2V78.2ZM89.5157 76.3096C91.7078 75.0368 93.4309 73.2326 94.6772 70.9477L91.1656 69.0323C90.2519 70.7074 89.035 71.9632 87.5071 72.8504L89.5157 76.3096ZM94.689 70.9258C95.9488 68.5461 96.5414 65.8127 96.5414 62.79H92.5414C92.5414 65.2873 92.054 67.3539 91.1538 69.0542L94.689 70.9258ZM96.5414 62.79C96.5414 59.7177 95.9527 56.9708 94.6772 54.6323L91.1656 56.5477C92.0501 58.1692 92.5414 60.2223 92.5414 62.79H96.5414ZM94.6772 54.6323C93.4309 52.3474 91.7078 50.5433 89.5157 49.2704L87.5071 52.7296C89.035 53.6167 90.2519 54.8726 91.1656 56.5477L94.6772 54.6323ZM89.5157 49.2704C87.3241 47.9979 84.8722 47.38 82.2114 47.38V51.38C84.2306 51.38 85.9787 51.8421 87.5071 52.7296L89.5157 49.2704ZM82.2114 47.38C79.5506 47.38 77.0987 47.9979 74.9071 49.2704L76.9157 52.7296C78.4441 51.8421 80.1922 51.38 82.2114 51.38V47.38ZM74.9071 49.2704C72.7253 50.5373 70.9816 52.3282 69.6782 54.5921L73.1447 56.5879C74.1212 54.8918 75.3775 53.6227 76.9157 52.7296L74.9071 49.2704ZM69.6556 54.6323C68.3801 56.9708 67.7914 59.7177 67.7914 62.79H71.7914C71.7914 60.2223 72.2827 58.1692 73.1672 56.5477L69.6556 54.6323ZM67.7914 62.79C67.7914 65.8127 68.384 68.5461 69.6438 70.9258L73.179 69.0542C72.2788 67.3539 71.7914 65.2873 71.7914 62.79H67.7914ZM69.6782 70.9879C70.9816 73.2518 72.7253 75.0427 74.9071 76.3096L76.9157 72.8504C75.3775 71.9573 74.1212 70.6882 73.1447 68.9921L69.6782 70.9879ZM74.9071 76.3096C77.0987 77.5821 79.5506 78.2 82.2114 78.2V74.2C80.1922 74.2 78.4441 73.7379 76.9157 72.8504L74.9071 76.3096ZM127.776 85.38L126.882 87.1689L126.888 87.1722L126.895 87.1756L127.776 85.38ZM120.486 78.27L118.724 79.2163L118.728 79.2232L118.731 79.23L120.486 78.27ZM117.876 38.58V36.58H115.876V38.58H117.876ZM131.916 38.58H133.916V36.58H131.916V38.58ZM134.436 72.78L132.931 74.097L132.953 74.122L132.975 74.1463L134.436 72.78ZM147.486 74.22L148.43 75.983L148.455 75.97L148.478 75.9565L147.486 74.22ZM151.446 69.9L153.235 70.7944L153.24 70.7835L153.246 70.7725L151.446 69.9ZM152.886 38.58V36.58H150.886V38.58H152.886ZM166.926 38.58H168.926V36.58H166.926V38.58ZM166.926 87V89H168.926V87H166.926ZM153.606 87H151.606V89H153.606V87ZM153.606 73.68L155.3 72.6165L151.606 66.7338V73.68H153.606ZM156.036 77.55L157.838 78.4186L158.318 77.4227L157.73 76.4865L156.036 77.55ZM148.836 85.2L149.784 86.961L149.796 86.9545L148.836 85.2ZM138.576 85.72C134.82 85.72 131.528 84.9928 128.657 83.5844L126.895 87.1756C130.384 88.8872 134.292 89.72 138.576 89.72V85.72ZM128.67 83.5911C125.93 82.2208 123.793 80.1474 122.241 77.31L118.731 79.23C120.659 82.7526 123.382 85.4192 126.882 87.1689L128.67 83.5911ZM122.248 77.3237C120.71 74.4594 119.876 70.7016 119.876 65.94H115.876C115.876 71.1384 116.782 75.6006 118.724 79.2163L122.248 77.3237ZM119.876 65.94V38.58H115.876V65.94H119.876ZM117.876 40.58H131.916V36.58H117.876V40.58ZM129.916 38.58V63.87H133.916V38.58H129.916ZM129.916 63.87C129.916 68.1095 130.792 71.653 132.931 74.097L135.941 71.463C134.72 70.067 133.916 67.6705 133.916 63.87H129.916ZM132.975 74.1463C135.176 76.4989 138.186 77.57 141.726 77.57V73.57C139.026 73.57 137.176 72.7811 135.897 71.4137L132.975 74.1463ZM141.726 77.57C144.171 77.57 146.423 77.0583 148.43 75.983L146.542 72.457C145.189 73.1817 143.601 73.57 141.726 73.57V77.57ZM148.478 75.9565C150.538 74.7794 152.118 73.0275 153.235 70.7944L149.657 69.0056C148.854 70.6125 147.794 71.7406 146.494 72.4835L148.478 75.9565ZM153.246 70.7725C154.374 68.4451 154.886 65.6654 154.886 62.52H150.886C150.886 65.2546 150.438 67.3949 149.646 69.0275L153.246 70.7725ZM154.886 62.52V38.58H150.886V62.52H154.886ZM152.886 40.58H166.926V36.58H152.886V40.58ZM164.926 38.58V87H168.926V38.58H164.926ZM166.926 85H153.606V89H166.926V85ZM155.606 87V73.68H151.606V87H155.606ZM151.912 74.7435L154.342 78.6135L157.73 76.4865L155.3 72.6165L151.912 74.7435ZM154.234 76.6814C152.79 79.6772 150.679 81.9119 147.876 83.4455L149.796 86.9545C153.353 85.0081 156.042 82.1428 157.838 78.4186L154.234 76.6814ZM147.888 83.4391C145.074 84.9543 141.982 85.72 138.576 85.72V89.72C142.61 89.72 146.358 88.8057 149.784 86.9609L147.888 83.4391ZM179.933 87H177.933V89H179.933V87ZM179.933 38.58V36.58H177.933V38.58H179.933ZM193.343 38.58H195.343V36.58H193.343V38.58ZM193.343 52.26L191.538 53.1215L195.343 52.26H193.343ZM191.453 48.3L189.61 47.5239L189.261 48.3513L189.648 49.1615L191.453 48.3ZM198.383 40.56L199.343 42.3145L199.356 42.3076L199.368 42.3005L198.383 40.56ZM209.993 37.86H211.993V35.86H209.993V37.86ZM209.993 50.82L209.794 52.8101L211.993 53.03V50.82H209.993ZM208.373 50.73L208.125 52.7146L208.249 52.73H208.373V50.73ZM197.483 53.97L198.84 55.4396L198.841 55.4382L197.483 53.97ZM193.973 87V89H195.973V87H193.973ZM181.933 87V38.58H177.933V87H181.933ZM179.933 40.58H193.343V36.58H179.933V40.58ZM191.343 38.58V52.26H195.343V38.58H191.343ZM195.148 51.3985L193.258 47.4385L189.648 49.1615L191.538 53.1215L195.148 51.3985ZM193.296 49.0761C194.566 46.062 196.57 43.8321 199.343 42.3145L197.423 38.8055C193.837 40.7679 191.221 43.698 189.61 47.5239L193.296 49.0761ZM199.368 42.3005C202.182 40.7079 205.694 39.86 209.993 39.86V35.86C205.172 35.86 200.944 36.8121 197.398 38.8195L199.368 42.3005ZM207.993 37.86V50.82H211.993V37.86H207.993ZM210.192 48.8299C209.542 48.7649 208.934 48.73 208.373 48.73V52.73C208.772 52.73 209.244 52.7551 209.794 52.8101L210.192 48.8299ZM208.621 48.7454C208.05 48.6741 207.457 48.64 206.843 48.64V52.64C207.31 52.64 207.736 52.6659 208.125 52.7146L208.621 48.7454ZM206.843 48.64C202.593 48.64 198.958 49.8813 196.125 52.5018L198.841 55.4382C200.808 53.6187 203.413 52.64 206.843 52.64V48.64ZM196.127 52.5004C193.22 55.1829 191.973 59.2169 191.973 64.14H195.973C195.973 59.8231 197.066 57.077 198.84 55.4396L196.127 52.5004ZM191.973 64.14V87H195.973V64.14H191.973ZM193.973 85H179.933V89H193.973V85ZM218.429 87H216.429V89H218.429V87ZM218.429 38.58V36.58H216.429V38.58H218.429ZM231.839 38.58H233.839V36.58H231.839V38.58ZM231.839 51.99L230.141 53.0466L233.839 58.99V51.99H231.839ZM229.319 47.94L227.557 46.9937L227.009 48.0137L227.621 48.9966L229.319 47.94ZM236.789 40.47L237.735 42.232L236.789 40.47ZM258.119 40.2L257.197 41.9744L257.218 41.9854L257.239 41.9958L258.119 40.2ZM265.319 47.22L263.565 48.18L263.569 48.1871L263.573 48.1941L265.319 47.22ZM267.929 87V89H269.929V87H267.929ZM253.889 87H251.889V89H253.889V87ZM251.279 52.8L249.795 54.1406L249.807 54.1535L249.819 54.1663L251.279 52.8ZM238.049 51.45L238.968 53.2264L238.979 53.2206L238.99 53.2147L238.049 51.45ZM233.909 55.68L232.143 54.7417L232.131 54.7635L232.12 54.7856L233.909 55.68ZM232.469 87V89H234.469V87H232.469ZM220.429 87V38.58H216.429V87H220.429ZM218.429 40.58H231.839V36.58H218.429V40.58ZM229.839 38.58V51.99H233.839V38.58H229.839ZM233.537 50.9334L231.017 46.8834L227.621 48.9966L230.141 53.0466L233.537 50.9334ZM231.081 48.8863C232.635 45.9924 234.842 43.7861 237.735 42.232L235.843 38.708C232.257 40.6339 229.483 43.4076 227.557 46.9937L231.081 48.8863ZM237.735 42.232C240.65 40.667 244.007 39.86 247.859 39.86V35.86C243.431 35.86 239.409 36.793 235.843 38.708L237.735 42.232ZM247.859 39.86C251.422 39.86 254.518 40.5817 257.197 41.9744L259.042 38.4256C255.72 36.6983 251.976 35.86 247.859 35.86V39.86ZM257.239 41.9958C259.904 43.3023 262.01 45.3378 263.565 48.18L267.074 46.26C265.149 42.7422 262.454 40.0977 259 38.4042L257.239 41.9958ZM263.573 48.1941C265.095 50.925 265.929 54.5784 265.929 59.28H269.929C269.929 54.1416 269.023 49.755 267.066 46.2459L263.573 48.1941ZM265.929 59.28V87H269.929V59.28H265.929ZM267.929 85H253.889V89H267.929V85ZM255.889 87V61.44H251.889V87H255.889ZM255.889 61.44C255.889 57.2942 254.971 53.819 252.74 51.4337L249.819 54.1663C251.067 55.501 251.889 57.7858 251.889 61.44H255.889ZM252.763 51.4594C250.615 49.0805 247.616 48.01 244.079 48.01V52.01C246.782 52.01 248.584 52.7995 249.795 54.1406L252.763 51.4594ZM244.079 48.01C241.561 48.01 239.223 48.5574 237.108 49.6853L238.99 53.2147C240.476 52.4226 242.158 52.01 244.079 52.01V48.01ZM237.13 49.6736C234.99 50.7806 233.332 52.5038 232.143 54.7417L235.675 56.6183C236.527 55.0162 237.628 53.9194 238.968 53.2264L237.13 49.6736ZM232.12 54.7856C230.978 57.0712 230.469 59.8656 230.469 63.06H234.469C234.469 60.2544 234.921 58.1288 235.698 56.5744L232.12 54.7856ZM230.469 63.06V87H234.469V63.06H230.469ZM232.469 85H218.429V89H232.469V85ZM290.457 84.48L289.532 86.2532L289.543 86.2586L290.457 84.48ZM280.827 75.66L279.115 76.693L279.118 76.6991L279.122 76.7051L280.827 75.66ZM280.737 49.92L279.025 48.887L279.02 48.8951L280.737 49.92ZM290.007 41.1L290.956 42.8609L290.966 42.8553L290.976 42.8496L290.007 41.1ZM316.017 40.92L315.067 42.68L315.084 42.689L315.101 42.6976L316.017 40.92ZM325.107 49.56L323.383 50.5729L323.39 50.5849L325.107 49.56ZM328.347 64.86L330.339 65.0411L330.34 65.0336L330.34 65.0261L328.347 64.86ZM328.167 66.75V68.75H329.977L330.157 66.949L328.167 66.75ZM288.837 66.75H286.837V68.75H288.837V66.75ZM288.837 58.56V56.56H286.837V58.56H288.837ZM320.787 58.56L321.608 60.3838L320.787 56.56V58.56ZM315.387 60.99H313.387V64.0832L316.208 62.8138L315.387 60.99ZM313.857 54.42L312.104 55.3817L313.857 54.42ZM309.627 50.1L308.598 51.815L308.62 51.8278L308.641 51.84L309.627 50.1ZM296.937 50.1L297.923 51.84L297.933 51.8349L297.942 51.8296L296.937 50.1ZM292.707 54.51L294.461 55.4717L294.467 55.46L294.474 55.4483L292.707 54.51ZM292.887 70.35L291.141 71.3256L291.159 71.3564L291.177 71.3866L292.887 70.35ZM297.837 74.94L296.923 76.7186L296.953 76.734L296.983 76.7485L297.837 74.94ZM312.147 75.3L311.414 73.4392L311.404 73.4431L311.395 73.4471L312.147 75.3ZM317.547 71.79L319.018 70.4341L317.632 68.9318L316.16 70.3494L317.547 71.79ZM325.017 79.89L326.518 81.2121L327.71 79.8594L326.488 78.5341L325.017 79.89ZM316.647 85.74L317.379 87.6015L317.393 87.5959L317.407 87.59L316.647 85.74ZM305.037 85.72C299.782 85.72 295.245 84.6932 291.372 82.7014L289.543 86.2586C294.07 88.5868 299.253 89.72 305.037 89.72V85.72ZM291.382 82.7068C287.54 80.7022 284.61 78.0042 282.533 74.6149L279.122 76.7051C281.605 80.7558 285.094 83.9378 289.532 86.2532L291.382 82.7068ZM282.54 74.627C280.464 71.1858 279.407 67.2588 279.407 62.79H275.407C275.407 67.9212 276.63 72.5742 279.115 76.693L282.54 74.627ZM279.407 62.79C279.407 58.2458 280.441 54.3185 282.455 50.9449L279.02 48.8951C276.593 52.9615 275.407 57.6142 275.407 62.79H279.407ZM282.45 50.953C284.544 47.4808 287.37 44.7917 290.956 42.8609L289.059 39.3391C284.845 41.6083 281.49 44.7992 279.025 48.887L282.45 50.953ZM290.976 42.8496C294.55 40.8704 298.62 39.86 303.237 39.86V35.86C298.014 35.86 293.265 37.0096 289.038 39.3504L290.976 42.8496ZM303.237 39.86C307.681 39.86 311.609 40.8134 315.067 42.68L316.967 39.16C312.866 36.9466 308.274 35.86 303.237 35.86V39.86ZM315.101 42.6976C318.599 44.5016 321.351 47.114 323.383 50.5728L326.832 48.5472C324.423 44.446 321.115 41.2984 316.934 39.1424L315.101 42.6976ZM323.39 50.5849C325.39 53.937 326.437 58.0367 326.437 62.97H330.437C330.437 57.4633 329.264 52.623 326.825 48.5351L323.39 50.5849ZM326.437 62.97C326.437 63.4397 326.411 64.012 326.354 64.6939L330.34 65.0261C330.404 64.268 330.437 63.5803 330.437 62.97H326.437ZM326.356 64.6789C326.296 65.3335 326.237 65.9575 326.177 66.551L330.157 66.949C330.218 66.3425 330.279 65.7065 330.339 65.0411L326.356 64.6789ZM328.167 64.75H288.837V68.75H328.167V64.75ZM290.837 66.75V58.56H286.837V66.75H290.837ZM288.837 60.56H320.787V56.56H288.837V60.56ZM319.967 56.7362L314.567 59.1662L316.208 62.8138L321.608 60.3838L319.967 56.7362ZM317.387 60.99C317.387 58.197 316.82 55.6639 315.611 53.4583L312.104 55.3817C312.934 56.8961 313.387 58.743 313.387 60.99H317.387ZM315.611 53.4583C314.417 51.2813 312.745 49.5679 310.613 48.36L308.641 51.84C310.11 52.6721 311.258 53.8387 312.104 55.3817L315.611 53.4583ZM310.656 48.385C308.503 47.093 306.037 46.48 303.327 46.48V50.48C305.418 50.48 307.152 50.947 308.598 51.815L310.656 48.385ZM303.327 46.48C300.616 46.48 298.132 47.0934 295.933 48.3704L297.942 51.8296C299.462 50.9466 301.238 50.48 303.327 50.48V46.48ZM295.951 48.36C293.803 49.5773 292.13 51.3336 290.941 53.5717L294.474 55.4483C295.325 53.8464 296.472 52.6627 297.923 51.84L295.951 48.36ZM290.954 53.5483C289.741 55.7605 289.177 58.326 289.177 61.17H293.177C293.177 58.854 293.634 56.9795 294.461 55.4717L290.954 53.5483ZM289.177 61.17V63.33H293.177V61.17H289.177ZM289.177 63.33C289.177 66.2665 289.814 68.9505 291.141 71.3256L294.633 69.3744C293.681 67.6695 293.177 65.6735 293.177 63.33H289.177ZM291.177 71.3866C292.573 73.6893 294.501 75.4731 296.923 76.7186L298.752 73.1614C296.974 72.2469 295.602 70.9707 294.598 69.3134L291.177 71.3866ZM296.983 76.7485C299.46 77.9179 302.282 78.47 305.397 78.47V74.47C302.753 74.47 300.535 74.0021 298.691 73.1315L296.983 76.7485ZM305.397 78.47C308.174 78.47 310.69 78.0507 312.9 77.1529L311.395 73.4471C309.764 74.1093 307.78 74.47 305.397 74.47V78.47ZM312.88 77.1608C315.118 76.2795 317.137 74.9617 318.935 73.2306L316.16 70.3494C314.718 71.7383 313.137 72.7605 311.414 73.4392L312.88 77.1608ZM316.077 73.1459L323.547 81.2459L326.488 78.5341L319.018 70.4341L316.077 73.1459ZM323.517 78.5679C321.516 80.8389 318.987 82.617 315.888 83.89L317.407 87.59C321.028 86.103 324.079 83.9811 326.518 81.2121L323.517 78.5679ZM315.916 83.8785C312.833 85.0897 309.219 85.72 305.037 85.72V89.72C309.616 89.72 313.742 89.0303 317.379 87.6015L315.916 83.8785ZM336.435 104.01L337.039 102.104L336.435 104.01ZM330.405 100.77L328.626 99.8564L327.916 101.239L329.08 102.268L330.405 100.77ZM335.535 90.78L336.863 89.2852L334.934 87.5706L333.756 89.8664L335.535 90.78ZM339.225 93.03L338.496 94.8925L338.509 94.8977L338.522 94.9027L339.225 93.03ZM348.135 92.4L346.935 90.8L346.89 90.8338L346.846 90.8702L348.135 92.4ZM351.375 87.81L353.202 88.6223L353.209 88.6067L353.216 88.5911L351.375 87.81ZM353.895 81.87L352.261 80.7166L352.137 80.8917L352.054 81.0889L353.895 81.87ZM354.975 80.34L356.609 81.4934L356.736 81.3125L356.821 81.1081L354.975 80.34ZM372.345 38.58V36.58H371.01L370.498 37.8119L372.345 38.58ZM385.845 38.58L387.685 39.3632L388.869 36.58H385.845V38.58ZM363.975 89.97L362.134 89.1868L362.126 89.2069L362.118 89.2272L363.975 89.97ZM358.575 99.15L357.102 97.7968L357.092 97.8077L357.082 97.8188L358.575 99.15ZM351.915 103.83L351.228 101.952L351.22 101.955L351.212 101.957L351.915 103.83ZM352.185 88.89L350.347 89.679L351.523 92.4188L353.612 90.2911L352.185 88.89ZM330.585 38.58V36.58H327.549L328.747 39.369L330.585 38.58ZM345.075 38.58L346.923 37.816L346.412 36.58H345.075V38.58ZM361.815 79.08L363.242 80.4811L364.168 79.5377L363.663 78.316L361.815 79.08ZM343.905 103.18C341.595 103.18 339.308 102.823 337.039 102.104L335.83 105.916C338.481 106.757 341.175 107.18 343.905 107.18V103.18ZM337.039 102.104C334.783 101.388 333.037 100.428 331.73 99.272L329.08 102.268C330.892 103.872 333.166 105.072 335.83 105.916L337.039 102.104ZM332.184 101.684L337.314 91.6936L333.756 89.8664L328.626 99.8564L332.184 101.684ZM334.206 92.2748C335.467 93.3959 336.901 94.2686 338.496 94.8925L339.953 91.1675C338.788 90.7114 337.762 90.0841 336.863 89.2852L334.206 92.2748ZM338.522 94.9027C340.161 95.5173 341.809 95.84 343.455 95.84V91.84C342.34 91.84 341.168 91.6227 339.927 91.1573L338.522 94.9027ZM343.455 95.84C345.75 95.84 347.819 95.2809 349.423 93.9298L346.846 90.8702C346.171 91.4391 345.12 91.84 343.455 91.84V95.84ZM349.335 94C350.921 92.81 352.176 90.9316 353.202 88.6223L349.547 86.9977C348.653 89.0084 347.748 90.19 346.935 90.8L349.335 94ZM353.216 88.5911L355.736 82.6511L352.054 81.0889L349.534 87.0289L353.216 88.5911ZM355.529 83.0234L356.609 81.4934L353.341 79.1866L352.261 80.7166L355.529 83.0234ZM356.821 81.1081L374.191 39.3481L370.498 37.8119L353.128 79.5719L356.821 81.1081ZM372.345 40.58H385.845V36.58H372.345V40.58ZM384.004 37.7968L362.134 89.1868L365.815 90.7532L387.685 39.3632L384.004 37.7968ZM362.118 89.2272C360.615 92.9841 358.927 95.8104 357.102 97.7968L360.047 100.503C362.302 98.0496 364.214 94.7559 365.832 90.7128L362.118 89.2272ZM357.082 97.8188C355.291 99.8266 353.338 101.18 351.228 101.952L352.602 105.708C355.411 104.68 357.898 102.913 360.067 100.481L357.082 97.8188ZM351.212 101.957C349.067 102.762 346.64 103.18 343.905 103.18V107.18C347.05 107.18 349.962 106.698 352.617 105.703L351.212 101.957ZM354.022 88.101L332.422 37.791L328.747 39.369L350.347 89.679L354.022 88.101ZM330.585 40.58H345.075V36.58H330.585V40.58ZM343.226 39.344L359.966 79.844L363.663 78.316L346.923 37.816L343.226 39.344ZM360.387 77.6789L350.757 87.4889L353.612 90.2911L363.242 80.4811L360.387 77.6789ZM387.773 85.29L386.359 86.7042L386.384 86.7295L386.411 86.7538L387.773 85.29ZM387.773 72.69L389.134 74.1556L389.136 74.1538L387.773 72.69ZM400.193 72.69L398.805 74.1297L398.819 74.1428L398.832 74.1556L400.193 72.69ZM400.193 85.29L401.582 86.7297L401.595 86.7171L401.608 86.7042L400.193 85.29ZM393.983 85.72C392.084 85.72 390.502 85.098 389.136 83.8262L386.411 86.7538C388.525 88.722 391.083 89.72 393.983 89.72V85.72ZM389.188 83.8758C387.917 82.605 387.253 80.9998 387.253 78.9H383.253C383.253 81.9602 384.27 84.615 386.359 86.7042L389.188 83.8758ZM387.253 78.9C387.253 76.7991 387.915 75.2878 389.134 74.1556L386.412 71.2244C384.272 73.2122 383.253 75.8409 383.253 78.9H387.253ZM389.136 74.1538C390.502 72.882 392.084 72.26 393.983 72.26V68.26C391.083 68.26 388.525 69.258 386.411 71.2262L389.136 74.1538ZM393.983 72.26C395.956 72.26 397.52 72.8901 398.805 74.1297L401.582 71.2503C399.507 69.2499 396.93 68.26 393.983 68.26V72.26ZM398.832 74.1556C400.052 75.2878 400.713 76.7991 400.713 78.9H404.713C404.713 75.8409 403.695 73.2122 401.554 71.2244L398.832 74.1556ZM400.713 78.9C400.713 80.9998 400.05 82.605 398.779 83.8758L401.608 86.7042C403.697 84.615 404.713 81.9602 404.713 78.9H400.713ZM398.805 83.8503C397.52 85.0899 395.956 85.72 393.983 85.72V89.72C396.93 89.72 399.507 88.7301 401.582 86.7297L398.805 83.8503Z" fill="#2E2E2E" mask="url(#path-1-outside-1_348_1555)"/>
</svg>
