<?xml version="1.0" encoding="UTF-8"?>
<svg id="a" xmlns="http://www.w3.org/2000/svg" version="1.1" viewBox="0 0 47 47">
  <!-- Generator: Adobe Illustrator 29.1.0, SVG Export Plug-In . SVG Version: 2.1.0 Build 142)  -->
  <defs>
    <style>
      .st0 {
        fill: #2e2e2e;
      }

      .st1 {
        fill: #b49541;
      }

      .st2 {
        fill: #d3cbae;
        stroke: #2e2e2e;
        stroke-miterlimit: 10;
      }
    </style>
  </defs>
  <g>
    <rect class="st1" x=".5" y=".5" width="46" height="46" rx="9" ry="9"/>
    <path class="st0" d="M1,9.5C1,4.8,4.8,1,9.5,1h28c4.7,0,8.5,3.8,8.5,8.5v28c0,4.7-3.8,8.5-8.5,8.5H9.5c-4.7,0-8.5-3.8-8.5-8.5V9.5M0,9.5v28c0,5.2,4.3,9.5,9.5,9.5h28c5.2,0,9.5-4.3,9.5-9.5V9.5c0-5.2-4.3-9.5-9.5-9.5H9.5C4.3,0,0,4.3,0,9.5h0Z"/>
  </g>
  <path class="st2" d="M27.2,32.4V14.2c0-.4-.2-.7-.6-.9-.4,0-.8,0-1,.3l-7.3,9.1c-.1.2-.2.4-.2.6s0,.4.2.6l7.3,9.1c.2.3.6.4,1,.3.4,0,.6-.5.6-.9Z"/>
</svg>