<?xml version="1.0" encoding="UTF-8"?>
<svg id="a" data-name="Layer 1" xmlns="http://www.w3.org/2000/svg" viewBox="0 0 47 47">
  <defs>
    <style>
      .b {
        fill: #faf3db;
        stroke: #2e2e2e;
        stroke-miterlimit: 10;
      }

      .c {
        fill: #eec659;
      }

      .d {
        fill: #2e2e2e;
      }
    </style>
  </defs>
  <g>
    <rect class="c" x=".5" y=".5" width="46" height="46" rx="9" ry="9" transform="translate(0 47) rotate(-90)"/>
    <path class="d" d="M1,9.5c0-4.7,3.8-8.5,8.5-8.5h28c4.7,0,8.5,3.8,8.5,8.5v28c0,4.7-3.8,8.5-8.5,8.5H9.5c-4.7,0-8.5-3.8-8.5-8.5V9.5M0,9.5v28c0,5.2,4.3,9.5,9.5,9.5h28c5.2,0,9.5-4.3,9.5-9.5V9.5C47,4.3,42.7,0,37.5,0H9.5C4.3,0,0,4.3,0,9.5H0Z"/>
  </g>
  <path class="b" d="M27.2,32.4V14.2c0-.4-.2-.7-.6-.9-.4,0-.8,0-1,.3l-7.3,9.1c-.1.2-.2.4-.2.6s0,.4.2.6l7.3,9.1c.2.3.6.4,1,.3.4-.1.6-.5.6-.9Z"/>
</svg>