<?xml version="1.0" encoding="UTF-8"?>
<svg id="Layer_1" xmlns="http://www.w3.org/2000/svg" version="1.1" viewBox="0 0 189.2 47.7">
  <!-- Generator: Adobe Illustrator 29.1.0, SVG Export Plug-In . SVG Version: 2.1.0 Build 142)  -->
  <defs>
    <style>
      .st0 {
        fill: #faf3db;
      }
    </style>
  </defs>
  <path class="st0" d="M15.5,47.5c-2.9,0-5.6-.7-7.9-2s-4.2-3.2-5.6-5.6c-1.3-2.5-2-5.2-2-8.3s.7-5.9,2-8.3c1.4-2.4,3.2-4.2,5.6-5.6,2.3-1.3,5-2,7.9-2s5.2.6,7.5,1.9,4,3.1,5.3,5.5,2,5.2,2,8.5-.6,6.1-1.9,8.5-3,4.2-5.2,5.5-4.7,1.9-7.5,1.9h-.2ZM15.7,44.8c2.4,0,4.5-.5,6.5-1.7,1.9-1.1,3.4-2.7,4.5-4.7s1.6-4.3,1.6-6.9-.5-5-1.6-6.9-2.6-3.5-4.5-4.6-4-1.6-6.4-1.6-4.6.5-6.4,1.6c-1.9,1.1-3.4,2.6-4.5,4.6s-1.7,4.3-1.7,6.9.5,4.9,1.7,6.9c1.1,2,2.6,3.5,4.5,4.7,1.9,1.1,4.1,1.7,6.4,1.7h-.1ZM28.3,47.2v-10.3l.5-5.5-.6-5.5V2.7h3v44.5h-2.9Z"/>
  <path class="st0" d="M51.8,47.5c-2.6,0-5-.4-7.3-1.1-2.3-.8-4-1.7-5.2-2.9l1.4-2.4c1.2,1,2.8,1.9,4.8,2.7s4.2,1.1,6.5,1.1,5.6-.5,7.1-1.6,2.2-2.5,2.2-4.3-.4-2.3-1.1-3c-.7-.7-1.7-1.3-3-1.7-1.2-.4-2.6-.7-4.1-1s-3-.5-4.4-.9-2.8-.8-4.1-1.4c-1.2-.6-2.2-1.4-3-2.5s-1.1-2.5-1.1-4.2.4-3,1.3-4.3c.9-1.3,2.2-2.3,4-3.1s4-1.2,6.6-1.2,3.9.3,5.9.8,3.6,1.3,4.8,2.2l-1.4,2.4c-1.3-1-2.8-1.7-4.4-2.2-1.6-.4-3.3-.7-5-.7-3,0-5.3.6-6.7,1.7s-2.1,2.5-2.1,4.2.4,2.4,1.1,3.2c.7.8,1.7,1.4,3,1.8s2.6.8,4.1,1c1.5.3,3,.5,4.4.9s2.8.8,4.1,1.3c1.2.6,2.2,1.4,3,2.4s1.1,2.4,1.1,4.1-.5,3.2-1.4,4.5-2.3,2.3-4.2,3c-1.8.7-4.1,1.1-6.8,1.1h0Z"/>
  <path class="st0" d="M70.6,47.2V2.7h9.4v44.5h-9.4Z"/>
  <path class="st0" d="M118,22.3c1.5,2.5,2.2,5.5,2.2,8.9s0,.8,0,1.2,0,.9,0,1.3h-26.2v-5.5h21.3l-3.7,1.6c0-1.7-.3-3.1-1-4.4s-1.6-2.2-2.8-2.9-2.6-1-4.2-1-3,.3-4.2,1-2.2,1.7-2.8,2.9-1,2.8-1,4.5v1.4c0,1.8.4,3.4,1.2,4.7.8,1.3,1.9,2.3,3.3,3s3.1,1,5,1,3.2-.3,4.5-.8,2.5-1.3,3.6-2.3l5,5.4c-1.5,1.7-3.3,3-5.6,3.9-2.2.9-4.8,1.3-7.7,1.3s-6.9-.7-9.7-2.2-4.9-3.4-6.4-5.9-2.3-5.3-2.3-8.5.7-6.1,2.2-8.6,3.5-4.5,6.1-5.9,5.6-2.1,8.8-2.1,6,.7,8.6,2c2.6,1.3,4.6,3.3,6,5.8"/>
  <path class="st0" d="M134.7,47.2l-13.6-32.3h9.6l11.3,27.8h-4.8l11.8-27.8h8.9l-13.6,32.3h-9.6,0Z"/>
  <path class="st0" d="M166.4,10.4c-1.8,0-3.2-.5-4.3-1.5s-1.6-2.2-1.6-3.7.5-2.7,1.6-3.7S164.6,0,166.4,0s3.1.5,4.2,1.4c1.1.9,1.6,2.2,1.6,3.6s-.5,2.9-1.6,3.9-2.5,1.5-4.3,1.5h.1ZM161.8,47.2V14.9h9.4v32.3s-9.4,0-9.4,0Z"/>
  <path class="st0" d="M183.4,47.7c-1.6,0-3-.5-4.1-1.7-1.1-1.1-1.7-2.5-1.7-4.2s.6-3.2,1.7-4.3,2.5-1.6,4.1-1.6,3,.5,4.1,1.6,1.7,2.5,1.7,4.3-.6,3.1-1.7,4.2-2.5,1.7-4.1,1.7Z"/>
</svg>