<svg width="56" height="56" viewBox="0 0 56 56" fill="none" xmlns="http://www.w3.org/2000/svg">
<rect x="0.5" y="0.5" width="55" height="55" rx="27.5" fill="#D97D68"/>
<rect x="0.5" y="0.5" width="55" height="55" rx="27.5" stroke="#2E2E2E"/>
<path d="M30.6354 25.9L30.6356 25.9L39.4508 25.9C40.6435 25.9 41.5995 26.8528 41.6 27.9999C41.6005 29.147 40.645 30.0994 39.4508 30.0994L25.4598 30.1H25.4598H16.5455C15.9523 30.1 15.4147 29.8599 15.0241 29.478L15.0239 29.4778C14.6373 29.1002 14.3995 28.5723 14.4 27.997L14.4 27.9965C14.3995 26.8513 15.3554 25.906 16.5522 25.906L16.5524 25.906L30.6354 25.9Z" fill="#FAF3DB" stroke="#2E2E2E" stroke-width="0.8"/>
</svg>
