<svg width="56" height="56" viewBox="0 0 56 56" fill="none" xmlns="http://www.w3.org/2000/svg">
<rect x="0.5" y="0.5" width="55" height="55" rx="27.5" fill="#2E2E2E"/>
<rect x="0.5" y="0.5" width="55" height="55" rx="27.5" stroke="#2E2E2E"/>
<path fill-rule="evenodd" clip-rule="evenodd" d="M26.6769 18.7771C27.7414 17.3874 30 18.1245 30 19.8616V36.2395C30 37.986 27.7212 38.717 26.6657 37.3091L23.071 32.5146H20.7692C19.2398 32.5146 18 31.3007 18 29.8033V26.1881C18 24.6907 19.2398 23.4768 20.7692 23.4768H23.0769L26.6769 18.7771ZM28.1538 19.8616L24.5538 24.5613C24.2052 25.0165 23.658 25.2843 23.0769 25.2843H20.7692C20.2594 25.2843 19.8462 25.689 19.8462 26.1881V29.8033C19.8462 30.3024 20.2594 30.707 20.7692 30.707H23.071C23.6587 30.707 24.2114 30.9811 24.5592 31.445L28.1538 36.2395V19.8616Z" fill="#D3CBAE"/>
<path d="M32.0104 21.0945C31.9359 20.5523 32.2701 20.0505 32.7119 20.0505C33.0457 20.0505 33.3322 20.3421 33.3905 20.7512C33.5888 22.1425 34 25.3524 34 28.0505C34 30.7486 33.5888 33.9585 33.3905 35.3499C33.3322 35.759 33.0457 36.0505 32.7119 36.0505C32.2701 36.0505 31.9359 35.5488 32.0104 35.0066C32.2201 33.4792 32.5719 30.546 32.5719 28.0505C32.5719 25.5551 32.2201 22.6218 32.0104 21.0945Z" fill="#D3CBAE"/>
<path d="M36.792 22.0505C36.2789 22.0505 35.9033 22.6454 36.0221 23.2085C36.2342 24.2141 36.4805 25.8545 36.4805 28.0505C36.4805 30.2466 36.2342 31.887 36.0221 32.8925C35.9033 33.4557 36.2789 34.0505 36.792 34.0505C37.0667 34.0505 37.3143 33.8743 37.3999 33.5799C37.6227 32.8136 38 31.0705 38 28.0505C38 25.0306 37.6227 23.2874 37.3999 22.5212C37.3143 22.2267 37.0667 22.0505 36.792 22.0505Z" fill="#D3CBAE"/>
</svg>
