<svg width="56" height="56" viewBox="0 0 56 56" fill="none" xmlns="http://www.w3.org/2000/svg">
<rect x="0.5" y="0.5" width="55" height="55" rx="27.5" fill="#2E2E2E" fill-opacity="0.5"/>
<rect x="0.5" y="0.5" width="55" height="55" rx="27.5" stroke="#2E2E2E"/>
<path fill-rule="evenodd" clip-rule="evenodd" d="M26.6769 18.7773C27.7414 17.3876 30 18.1248 30 19.8619V36.2397C30 37.9863 27.7212 38.7173 26.6657 37.3093L23.071 32.5149H20.7692C19.2398 32.5149 18 31.301 18 29.8035V26.1884C18 24.6909 19.2398 23.477 20.7692 23.477H23.0769L26.6769 18.7773ZM28.1538 19.8619L24.5538 24.5615C24.2052 25.0167 23.658 25.2846 23.0769 25.2846H20.7692C20.2594 25.2846 19.8462 25.6892 19.8462 26.1884V29.8035C19.8462 30.3027 20.2594 30.7073 20.7692 30.7073H23.071C23.6587 30.7073 24.2114 30.9813 24.5592 31.4452L28.1538 36.2397V19.8619Z" fill="#FAF3DB"/>
<mask id="path-3-inside-1_233_1664" fill="white">
<path d="M33.1818 25.2028C32.9115 24.9324 32.4731 24.9324 32.2028 25.2028C31.9324 25.4731 31.9324 25.9115 32.2028 26.1818L34.0209 28L32.2028 29.8182C31.9324 30.0886 31.9324 30.5269 32.2028 30.7972C32.4731 31.0676 32.9115 31.0676 33.1818 30.7972L35 28.9791L36.8181 30.7972C37.0885 31.0676 37.5269 31.0676 37.7972 30.7972C38.0676 30.5269 38.0676 30.0885 37.7972 29.8182L35.979 28L37.7972 26.1818C38.0676 25.9115 38.0676 25.4732 37.7972 25.2028C37.5269 24.9324 37.0885 24.9324 36.8181 25.2028L35 27.021L33.1818 25.2028Z"/>
</mask>
<path d="M33.1818 25.2028L34.5961 23.7886L34.5961 23.7886L33.1818 25.2028ZM32.2028 26.1818L33.617 24.7676L33.6169 24.7675L32.2028 26.1818ZM34.0209 28L35.4352 29.4142L36.8493 28L35.4351 26.5858L34.0209 28ZM32.2028 29.8182L30.7885 28.404L30.7885 28.404L32.2028 29.8182ZM33.1818 30.7972L31.7677 29.383L31.7676 29.3831L33.1818 30.7972ZM35 28.9791L36.4142 27.5649L35.0001 26.1507L33.5858 27.5649L35 28.9791ZM36.8181 30.7972L38.2323 29.383V29.383L36.8181 30.7972ZM37.7972 29.8182L36.383 31.2324L36.3832 31.2327L37.7972 29.8182ZM35.979 28L34.5648 26.5858L33.1506 28L34.5648 29.4142L35.979 28ZM37.7972 26.1818L36.3832 24.7675L36.383 24.7676L37.7972 26.1818ZM36.8181 25.2028L35.4039 23.7886L35.4039 23.7886L36.8181 25.2028ZM35 27.021L33.5858 28.4352L35.0001 29.8495L36.4143 28.4352L35 27.021ZM34.5961 23.7886C33.5446 22.7371 31.84 22.7371 30.7886 23.7886L33.617 26.617C33.1063 27.1277 32.2783 27.1277 31.7676 26.617L34.5961 23.7886ZM30.7886 23.7886C29.7372 24.8399 29.7371 26.5447 30.7886 27.5961L33.6169 24.7675C34.1277 25.2783 34.1276 26.1063 33.617 26.617L30.7886 23.7886ZM30.7885 27.596L32.6067 29.4142L35.4351 26.5858L33.617 24.7676L30.7885 27.596ZM32.6067 26.5858L30.7885 28.404L33.617 31.2324L35.4352 29.4142L32.6067 26.5858ZM30.7885 28.404C29.7372 29.4554 29.7372 31.16 30.7885 32.2114L33.617 29.383C34.1277 29.8937 34.1277 30.7217 33.617 31.2324L30.7885 28.404ZM30.7885 32.2114C31.8399 33.2628 33.5447 33.2629 34.5961 32.2114L31.7676 29.3831C32.2783 28.8723 33.1064 28.8723 33.617 29.383L30.7885 32.2114ZM34.596 32.2115L36.4142 30.3934L33.5858 27.5649L31.7677 29.383L34.596 32.2115ZM33.5858 30.3933L35.4039 32.2114L38.2323 29.383L36.4142 27.5649L33.5858 30.3933ZM35.4039 32.2114C36.4553 33.2629 38.16 33.2629 39.2114 32.2114L36.383 29.383C36.8937 28.8723 37.7217 28.8723 38.2323 29.383L35.4039 32.2114ZM39.2114 32.2114C40.2627 31.1601 40.2631 29.4553 39.2112 28.4038L36.3832 31.2327C35.8721 30.7217 35.8725 29.8936 36.383 29.383L39.2114 32.2114ZM39.2114 28.404L37.3933 26.5858L34.5648 29.4142L36.383 31.2324L39.2114 28.404ZM37.3933 29.4142L39.2114 27.596L36.383 24.7676L34.5648 26.5858L37.3933 29.4142ZM39.2113 27.5962C40.263 26.5447 40.2628 24.8399 39.2114 23.7886L36.383 26.617C35.8724 26.1064 35.8722 25.2783 36.3832 24.7675L39.2113 27.5962ZM39.2114 23.7886C38.16 22.7372 36.4553 22.7372 35.4039 23.7886L38.2323 26.617C37.7216 27.1277 36.8937 27.1277 36.383 26.617L39.2114 23.7886ZM35.4039 23.7886L33.5858 25.6068L36.4143 28.4352L38.2324 26.617L35.4039 23.7886ZM36.4143 25.6068L34.5961 23.7886L31.7676 26.617L33.5858 28.4352L36.4143 25.6068Z" fill="#FAF3DB" mask="url(#path-3-inside-1_233_1664)"/>
</svg>
