<svg width="56" height="56" viewBox="0 0 56 56" fill="none" xmlns="http://www.w3.org/2000/svg">
<rect x="0.5" y="0.5" width="55" height="55" rx="27.5" fill="#2E2E2E"/>
<rect x="0.5" y="0.5" width="55" height="55" rx="27.5" stroke="#2E2E2E"/>
<path d="M35 21V35C35 36.2548 34.1574 37 33.4286 37H32.5714C31.8426 37 31 36.2548 31 35V21C31 19.7452 31.8426 19 32.5714 19H33.4286C34.1574 19 35 19.7452 35 21Z" stroke="#D3CBAE" stroke-width="2"/>
<path d="M23.4286 19C24.1574 19 25 19.7453 25 21V35C25 36.2548 24.1574 37 23.4286 37H22.5714C21.8426 37 21 36.2548 21 35V21C21 19.7453 21.8426 19 22.5714 19H23.4286Z" stroke="#D3CBAE" stroke-width="2"/>
</svg>
