<svg width="56" height="56" viewBox="0 0 56 56" fill="none" xmlns="http://www.w3.org/2000/svg">
<rect x="0.5" y="0.5" width="55" height="55" rx="27.5" fill="#B49541"/>
<rect x="0.5" y="0.5" width="55" height="55" rx="27.5" stroke="#2E2E2E"/>
<path d="M30.1476 25.4441V25.8441H30.5476H39.4508C40.6346 25.8441 41.5995 26.8149 41.6 28.0036C41.6005 29.1924 40.6361 30.1627 39.4508 30.1627H30.5476H30.1476V30.5627V39.4512C30.1476 40.638 29.187 41.6 28.0009 41.6C27.4074 41.6 26.8731 41.36 26.4834 40.9703L26.483 40.9699C26.0958 40.5838 25.8598 40.0476 25.8598 39.4512V30.5633V30.1633H25.4598H16.5455C15.9554 30.1633 15.4188 29.9188 15.0275 29.527L15.0273 29.5268C14.6398 29.1394 14.3995 28.5954 14.4 28.0007L14.4 28.0001C14.3995 26.8133 15.3644 25.8503 16.5522 25.8503H25.4598H25.8598V25.4503V16.5501C25.8598 15.3611 26.8175 14.4 28.0034 14.4C29.1895 14.4 30.1476 15.3613 30.1476 16.5494V25.4441Z" fill="#D3CBAE" stroke="#2E2E2E" stroke-width="0.8"/>
</svg>
