<svg width="76" height="77" viewBox="0 0 76 77" fill="none" xmlns="http://www.w3.org/2000/svg">
<g clip-path="url(#clip0_227_1635)">
<path d="M33.6615 31.3817C33.6615 35.6907 30.6342 38.1455 25.6613 38.1455C24.3094 38.1455 23.2289 38.0907 22.4179 37.8726V25.4363C23.1209 25.2725 24.4181 25.1089 26.2556 25.1089C30.8508 25.1089 33.6615 27.2908 33.6615 31.3817ZM76.0024 12.8334V64.1666C76.0024 71.225 70.2795 77 63.2847 77H12.414C5.41925 76.9999 -0.303711 71.2249 -0.303711 64.1665V12.8334C-0.303711 5.77499 5.41925 0 12.414 0H63.2848C70.2795 0 76.0024 5.77499 76.0024 12.8334ZM40.3098 31.1088C40.3098 27.6728 38.9051 24.7817 36.7428 22.9818C34.418 21.0179 30.851 19.9815 25.9856 19.9815C21.4991 19.9815 18.2017 20.309 15.8233 20.7454V57.0179H22.4182V43.1633C23.2833 43.3274 24.4184 43.382 25.6616 43.382C30.3643 43.382 34.5261 42.1268 37.1753 39.4548C39.2291 37.4908 40.3098 34.5998 40.3098 31.1088ZM59.8756 30.0182C59.3347 29.9088 58.9566 29.8544 58.3076 29.8544C55.4964 29.8544 52.4158 31.7637 51.1184 35.5272H50.9023L50.6863 30.4543H44.9025C45.064 32.8542 45.1186 35.4181 45.1186 39.0181V57.0179H51.7668V43.2721C51.7668 42.509 51.8749 41.7996 51.9829 41.1999C52.5776 38.1999 54.74 36.1271 57.9292 36.1271C58.7404 36.1271 59.3345 36.2362 59.8754 36.3451L59.8756 30.0182Z" fill="#FAF3DB"/>
</g>
<defs>
<clipPath id="clip0_227_1635">
<rect width="76" height="77" fill="white"/>
</clipPath>
</defs>
</svg>
