<?xml version="1.0" encoding="UTF-8"?>
<svg id="Layer_1" xmlns="http://www.w3.org/2000/svg" xmlns:xlink="http://www.w3.org/1999/xlink" version="1.1" viewBox="0 0 76 77">
  <!-- Generator: Adobe Illustrator 29.1.0, SVG Export Plug-In . SVG Version: 2.1.0 Build 142)  -->
  <defs>
    <style>
      .st0 {
        fill: none;
      }

      .st1 {
        fill: #faf3db;
      }

      .st2 {
        clip-path: url(#clippath);
      }
    </style>
    <clipPath id="clippath">
      <rect class="st0" width="76" height="77"/>
    </clipPath>
  </defs>
  <g class="st2">
    <path class="st1" d="M63.2.3H12.8C5.8.3.2,6,.2,13v50.9c0,7,5.7,12.7,12.6,12.7h50.5c6.9,0,12.6-5.7,12.6-12.7V13c0-7-5.7-12.7-12.6-12.7ZM36.4,39.2c-2.6,2.7-6.8,3.9-11.4,3.9s-2.4,0-3.2-.2v13.7h-6.5V20.6c2.4-.4,5.6-.8,10.1-.8s8.4,1,10.7,3c2.1,1.8,3.5,4.7,3.5,8.1,0,3.5-1.1,6.3-3.1,8.3ZM50.1,57.1c-3.2,0-6-.8-7.9-1.8l1.3-4.8c1.5.9,4.3,1.9,6.7,1.9s4.2-1.2,4.2-2.9-1.1-2.7-4.3-3.8c-5.1-1.8-7.2-4.6-7.2-7.7,0-4.7,3.8-8.3,9.9-8.3s5.4.8,6.9,1.6l-1.3,4.7c-1.1-.6-3.2-1.5-5.5-1.5s-3.6,1.1-3.6,2.8,1.2,2.5,4.6,3.7c4.7,1.7,6.9,4.2,7,8.1,0,4.8-3.7,8.2-10.6,8.2ZM32.9,31.2c0,4.3-3,6.7-7.9,6.7s-2.4,0-3.2-.3v-12.3c.7-.2,2-.3,3.8-.3,4.6,0,7.3,2.2,7.3,6.2Z"/>
  </g>
</svg>