<?xml version="1.0" encoding="UTF-8"?>
<svg id="a" data-name="Layer 1" xmlns="http://www.w3.org/2000/svg" viewBox="0 0 47 47">
  <defs>
    <style>
      .b {
        fill: #faf3db;
        stroke: #2e2e2e;
        stroke-miterlimit: 10;
      }

      .c {
        fill: #eec659;
      }

      .d {
        fill: #2e2e2e;
      }
    </style>
  </defs>
  <g>
    <rect class="c" x=".5" y=".5" width="46" height="46" rx="9" ry="9" transform="translate(47) rotate(90)"/>
    <path class="d" d="M46,37.5c0,4.7-3.8,8.5-8.5,8.5H9.5c-4.7,0-8.5-3.8-8.5-8.5V9.5C1,4.8,4.8,1,9.5,1h28c4.7,0,8.5,3.8,8.5,8.5v28M47,37.5V9.5c0-5.2-4.3-9.5-9.5-9.5H9.5C4.3,0,0,4.3,0,9.5v28c0,5.2,4.3,9.5,9.5,9.5h28c5.2,0,9.5-4.3,9.5-9.5h0Z"/>
  </g>
  <path class="b" d="M19.8,14.6v18.2c0,.4.2.7.6.9.4,0,.8,0,1-.3l7.3-9.1c.1-.2.2-.4.2-.6s0-.4-.2-.6l-7.3-9.1c-.2-.3-.6-.4-1-.3-.4.1-.6.5-.6.9Z"/>
</svg>