<svg width="76" height="77" viewBox="0 0 76 77" fill="none" xmlns="http://www.w3.org/2000/svg">
<path d="M33.9932 53.4454C35.2995 53.5056 36.6342 53.5489 37.9856 53.5489C39.3512 53.5489 40.7002 53.52 42.0231 53.4454C40.7002 55.1779 39.394 56.7107 38.0117 58.1713L38.0307 58.152C36.6556 56.7083 35.3351 55.1731 34.0906 53.5753L33.9932 53.4454ZM20.4605 51.5204C23.0326 52.1821 26.17 52.7452 29.3715 53.0917L29.6826 53.1181C31.642 55.8444 33.6227 58.2435 35.7483 60.5005L35.7222 60.4716C32.6086 63.992 28.4072 66.4656 23.6548 67.3535L23.5242 67.3728C23.5147 67.3728 23.5052 67.3728 23.4957 67.3728C22.9067 67.3728 22.351 67.226 21.8641 66.9661L21.8831 66.9757C19.9071 65.8328 19.0497 61.4606 19.7171 55.842C19.8762 54.4584 20.1375 53.0026 20.4581 51.518L20.4605 51.5204ZM55.5701 51.4891C55.8503 52.6297 56.114 54.0831 56.3016 55.5605L56.323 55.7674C57.0046 61.3836 56.1638 65.751 54.2045 66.918C53.7675 67.1634 53.245 67.3078 52.6892 67.3078C52.6346 67.3078 52.58 67.3054 52.5253 67.303H52.5325C47.6566 66.4007 43.4576 63.9439 40.3511 60.4668L40.3345 60.4476C42.4221 58.2266 44.3886 55.8324 46.1912 53.3131L46.329 53.1109C49.8345 52.7404 52.9766 52.1677 56.038 51.3856L55.5701 51.4867V51.4891ZM23.2368 42.509C23.8306 43.6881 24.4528 44.8623 25.1368 46.0414C25.8193 47.214 26.5167 48.3594 27.2292 49.4775C25.1677 49.1719 23.1775 48.7869 21.2751 48.3177C21.8095 46.424 22.4792 44.4629 23.2345 42.5042L23.2368 42.509ZM52.7533 42.4488C53.5395 44.4244 54.2068 46.3951 54.7602 48.3056C52.8602 48.7773 50.8533 49.1767 48.7776 49.4775C49.4901 48.349 50.2026 47.1867 50.87 45.9957C51.5373 44.8238 52.162 43.6255 52.7581 42.4464L52.7533 42.4488ZM18.095 29.5778C19.1305 33.1342 20.242 36.1084 21.5363 38.9766L21.3582 38.5387C20.2515 40.957 19.1566 43.9142 18.2588 46.9581L18.1353 47.4514C16.4586 46.9293 15.1096 46.4167 13.7962 45.8417L14.0693 45.9475C8.92984 43.7314 5.60484 40.8174 5.60484 38.5074C5.60484 36.1974 8.92984 33.269 14.0693 31.0625C15.3162 30.5211 16.6842 30.0326 18.095 29.5778ZM57.8501 29.5658C59.287 30.0157 60.6526 30.5187 61.9303 31.0625C67.0698 33.2882 70.3948 36.1974 70.3948 38.5074C70.3806 40.8174 67.0556 43.7386 61.9161 45.9499C60.6692 46.4913 59.3036 46.9774 57.8952 47.4322C56.8502 43.8637 55.7387 40.892 54.4491 38.0189L54.6296 38.4713C55.7316 36.0554 56.8288 33.0981 57.7242 30.0542L57.8501 29.5586V29.5658ZM48.7586 27.5373C50.8225 27.8477 52.8103 28.2279 54.7127 28.7019C54.1783 30.6029 53.511 32.5567 52.7533 34.5154C52.1596 33.3436 51.5373 32.1621 50.8533 30.9855C50.186 29.8064 49.4735 28.6586 48.761 27.5397L48.7586 27.5373ZM27.2126 27.5373C26.5001 28.6706 25.7876 29.8305 25.1226 31.0264C24.4552 32.1982 23.8306 33.3773 23.2368 34.5563C22.4507 32.5832 21.7833 30.6173 21.23 28.7019C23.13 28.252 25.1321 27.8501 27.2102 27.5421L27.2126 27.5373ZM37.9998 26.7721C40.1967 26.7721 42.3841 26.8732 44.5358 27.0512C45.7408 28.8014 46.9108 30.6654 48.0461 32.6434C49.1497 34.5684 50.1567 36.519 51.0671 38.4954C50.1527 40.4661 49.1505 42.4344 48.0603 44.3594C46.9322 46.3446 45.7661 48.2335 44.5572 49.9828C42.396 50.1729 40.2062 50.2764 37.9975 50.2764C35.8006 50.2764 33.6132 50.1705 31.4615 49.9972C30.2573 48.2479 29.0817 46.3758 27.9512 44.4051C26.8476 42.4801 25.8406 40.5294 24.9302 38.5531C25.8303 36.5776 26.8468 34.6045 27.937 32.6771C29.0651 30.6919 30.2312 28.8102 31.4401 27.0609C33.6013 26.8684 35.7911 26.7673 37.9998 26.7673V26.7721ZM37.9547 18.8772C39.3322 20.321 40.6527 21.8537 41.8948 23.4515L41.9898 23.579C40.6836 23.5189 39.3488 23.478 37.9975 23.478C36.6318 23.478 35.2828 23.5068 33.96 23.579C35.2805 21.8465 36.5867 20.3137 37.9713 18.8531L37.9523 18.8724L37.9547 18.8772ZM23.4648 9.70459C28.3407 10.6093 32.5373 13.0661 35.6462 16.5407L35.6628 16.56C33.5752 18.7834 31.6087 21.1776 29.8061 23.7017L29.6683 23.9039C26.1652 24.272 23.0231 24.8399 19.9641 25.6219L20.4296 25.5209C20.0971 24.0482 19.8501 22.6213 19.6767 21.2522C18.9951 15.636 19.8358 11.2686 21.7952 10.1064C22.2845 9.87302 22.8568 9.72865 23.4601 9.7094H23.4672L23.4648 9.70459ZM52.4636 9.64443V9.66368C52.4945 9.66368 52.5301 9.66127 52.5681 9.66127C53.1357 9.66127 53.6701 9.80324 54.1403 10.0535L54.1213 10.0439C56.0973 11.1916 56.9547 15.5614 56.2873 21.1824C56.1282 22.566 55.867 24.0242 55.5463 25.5112C52.9695 24.8423 49.8321 24.2768 46.6306 23.9327L46.3266 23.9063C44.3648 21.1776 42.3841 18.7786 40.2585 16.5191L40.287 16.548C43.4006 13.0348 47.5948 10.5612 52.3377 9.66849L52.4707 9.64684L52.4636 9.64443ZM52.4778 6.36712C46.6781 7.25984 41.6573 10.1136 37.9903 14.2307L37.9713 14.2524C34.2782 10.1377 29.2575 7.30315 23.6002 6.44412L23.4672 6.42727C23.4363 6.42727 23.3983 6.42727 23.3603 6.42727C22.1942 6.42727 21.0993 6.73768 20.1517 7.28149L20.185 7.26465C16.1047 9.64924 15.1903 17.0797 17.297 26.404C8.26247 29.2313 2.38672 33.7502 2.38672 38.5122C2.38672 43.2934 8.29334 47.8244 17.354 50.6301C15.264 59.9904 16.1973 67.4329 20.2871 69.8151C21.1848 70.3373 22.2631 70.6429 23.4102 70.6429C23.4625 70.6429 23.5147 70.6429 23.5646 70.6405H23.5575C29.3572 69.7477 34.378 66.8915 38.045 62.772L38.064 62.7504C41.7571 66.8675 46.7778 69.702 52.4351 70.5611L52.5681 70.5779C52.6037 70.5779 52.6488 70.5779 52.6916 70.5779C53.8506 70.5779 54.9407 70.2699 55.8836 69.7333L55.8503 69.7501C59.9282 67.368 60.845 59.9375 58.7383 50.6108C67.7396 47.8076 73.6153 43.279 73.6153 38.5098C73.6153 33.7286 67.7087 29.1976 58.6481 26.3847C60.7381 17.034 59.8047 9.58427 55.715 7.19968C54.8077 6.67271 53.72 6.3623 52.561 6.3623C52.5301 6.3623 52.4992 6.3623 52.4683 6.3623H52.4731L52.4778 6.36712ZM44.619 38.5122C44.619 42.2251 41.6478 45.2353 37.9832 45.2353C34.3186 45.2353 31.3475 42.2251 31.3475 38.5122C31.3475 34.7994 34.3186 31.7892 37.9832 31.7892C39.8167 31.7892 41.4745 32.5423 42.6762 33.7575C43.878 34.975 44.619 36.6546 44.619 38.5122Z" fill="#FAF3DB"/>
</svg>
