<svg width="56" height="56" viewBox="0 0 56 56" fill="none" xmlns="http://www.w3.org/2000/svg">
<rect x="0.5" y="0.5" width="55" height="55" rx="27.5" fill="#2E2E2E" fill-opacity="0.5"/>
<rect x="0.5" y="0.5" width="55" height="55" rx="27.5" stroke="#2E2E2E"/>
<path fill-rule="evenodd" clip-rule="evenodd" d="M26.6769 18.7773C27.7414 17.3876 30 18.1248 30 19.8619V36.2397C30 37.9863 27.7212 38.7173 26.6657 37.3093L23.071 32.5149H20.7692C19.2398 32.5149 18 31.301 18 29.8035V26.1884C18 24.6909 19.2398 23.477 20.7692 23.477H23.0769L26.6769 18.7773ZM28.1538 19.8619L24.5538 24.5615C24.2052 25.0167 23.658 25.2846 23.0769 25.2846H20.7692C20.2594 25.2846 19.8462 25.6892 19.8462 26.1884V29.8035C19.8462 30.3027 20.2594 30.7073 20.7692 30.7073H23.071C23.6587 30.7073 24.2114 30.9813 24.5592 31.4452L28.1538 36.2397V19.8619Z" fill="#FAF3DB"/>
<path d="M32.0104 21.0947C31.9359 20.5526 32.2701 20.0508 32.7119 20.0508C33.0457 20.0508 33.3322 20.3423 33.3905 20.7514C33.5888 22.1428 34 25.3527 34 28.0508C34 30.7488 33.5888 33.9588 33.3905 35.3502C33.3322 35.7592 33.0457 36.0508 32.7119 36.0508C32.2701 36.0508 31.9359 35.549 32.0104 35.0069C32.2201 33.4795 32.5719 30.5462 32.5719 28.0508C32.5719 25.5554 32.2201 22.6221 32.0104 21.0947Z" fill="#FAF3DB"/>
<path d="M36.792 22.0508C36.2789 22.0508 35.9033 22.6456 36.0221 23.2088C36.2342 24.2143 36.4805 25.8547 36.4805 28.0508C36.4805 30.2469 36.2342 31.8873 36.0221 32.8928C35.9033 33.4559 36.2789 34.0508 36.792 34.0508C37.0667 34.0508 37.3143 33.8746 37.3999 33.5801C37.6227 32.8138 38 31.0708 38 28.0508C38 25.0308 37.6227 23.2877 37.3999 22.5215C37.3143 22.227 37.0667 22.0508 36.792 22.0508Z" fill="#FAF3DB"/>
</svg>
