<svg width="81" height="80" viewBox="0 0 81 80" fill="none" xmlns="http://www.w3.org/2000/svg">
<ellipse cx="40.5005" cy="30.0525" rx="5.47509" ry="5.47509" transform="rotate(45 40.5005 30.0525)" fill="#2E2E2E"/>
<ellipse cx="50.0135" cy="40.0174" rx="5.47509" ry="5.47509" transform="rotate(45 50.0135 40.0174)" fill="#2E2E2E"/>
<ellipse cx="30.5462" cy="40.0076" rx="5.47509" ry="5.47509" transform="rotate(45 30.5462 40.0076)" fill="#2E2E2E"/>
<ellipse cx="15.8569" cy="40.0008" rx="5.47509" ry="5.47509" transform="rotate(45 15.8569 40.0008)" fill="#2E2E2E"/>
<ellipse cx="40.494" cy="64.6375" rx="5.47509" ry="5.47509" transform="rotate(45 40.494 64.6375)" fill="#2E2E2E"/>
<ellipse cx="64.5036" cy="40.0076" rx="5.47509" ry="5.47509" transform="rotate(45 64.5036 40.0076)" fill="#2E2E2E"/>
<ellipse cx="40.5002" cy="15.1199" rx="5.47509" ry="5.47509" transform="rotate(45 40.5002 15.1199)" fill="#2E2E2E"/>
<ellipse cx="40.5005" cy="49.9617" rx="5.47509" ry="5.47509" transform="rotate(45 40.5005 49.9617)" fill="#2E2E2E"/>
<ellipse cx="56.4279" cy="55.9334" rx="5.47509" ry="5.47509" transform="rotate(45 56.4279 55.9334)" fill="#2E2E2E"/>
<ellipse cx="56.4279" cy="24.0789" rx="5.47509" ry="5.47509" transform="rotate(45 56.4279 24.0789)" fill="#2E2E2E"/>
<ellipse cx="24.5728" cy="24.0779" rx="5.47509" ry="5.47509" transform="rotate(45 24.5728 24.0779)" fill="#2E2E2E"/>
<ellipse cx="24.5724" cy="55.9334" rx="5.47509" ry="5.47509" transform="rotate(45 24.5724 55.9334)" fill="#2E2E2E"/>
</svg>
