<svg width="77" height="77" viewBox="0 0 77 77" fill="none" xmlns="http://www.w3.org/2000/svg">
<path d="M62.4178 60.3032L49.4674 38.5025L62.4178 16.6923L68.6692 38.4977L62.4154 60.2984L62.4178 60.3032ZM33.5572 58.2097L17.2717 42.047H43.1606L56.1062 63.85L33.5548 58.2145L33.5572 58.2097ZM33.5572 18.7905L56.1062 13.1551L43.163 34.9581H17.2693L33.5572 18.7905ZM74.5838 31.0817L66.6865 2.41602L37.2075 10.0992L32.8474 17.5874L23.9924 17.5225L2.41797 38.5025L23.9948 59.485L32.845 59.4153L37.2172 66.9035L66.6841 74.5843L74.5838 45.9306L70.0986 38.5025L74.5838 31.0817Z" fill="#FAF3DB"/>
</svg>
