<svg width="75" height="77" viewBox="0 0 75 77" fill="none" xmlns="http://www.w3.org/2000/svg">
<path d="M24.2175 36.3731C24.2175 34.9918 22.9092 33.5248 20.6452 33.5248C18.1028 33.5248 15.3099 35.4395 14.8831 39.2595C14.447 43.1176 16.7852 44.8323 19.142 44.8323C21.4988 44.8323 22.7329 43.8893 23.9948 42.6318C22.9092 41.2315 21.5081 41.8792 21.239 42.0221C20.9421 42.1745 20.5617 42.3841 19.7823 42.3841C18.8729 42.3841 17.9451 41.965 17.9451 40.2217C23.7721 39.6311 24.2175 37.7544 24.2175 36.3731ZM21.3318 36.6017C21.2947 37.0304 21.1277 37.7639 18.177 38.1736C18.7987 35.9063 19.9864 35.7349 20.5338 35.7349C21.0442 35.7349 21.3689 36.1445 21.3318 36.6017ZM11.4592 36.9733C11.4592 36.9733 10.2066 41.0124 10.1045 41.3458C10.0674 41.0028 9.14883 33.7534 9.14883 33.7534C7.01472 33.7534 5.87344 35.3157 5.27032 36.9637C5.27032 36.9637 3.74861 41.0123 3.61871 41.3553C3.60943 41.0409 3.38674 37.0114 3.38674 37.0114C3.25684 34.9918 1.45676 33.7629 0 33.7629L1.76296 44.7466C3.99913 44.7371 5.20537 43.1843 5.83632 41.5363C5.83632 41.5363 7.18174 37.964 7.23741 37.802C7.24669 37.9545 8.2024 44.7466 8.2024 44.7466C10.4479 44.7466 11.6541 43.2891 12.3036 41.6982L15.4491 33.7629C13.2315 33.7629 12.0624 35.3157 11.4592 36.9733ZM32.457 33.5057C31.0745 33.5057 30.0167 34.2773 29.1259 35.411V35.4014L29.9239 28.7998C28.0867 28.7998 26.5928 30.4383 26.3052 32.877L24.9134 44.6609C25.9712 44.6609 27.0939 44.3465 27.697 43.5463C28.2352 44.2608 29.0424 44.8323 30.2394 44.8323C33.3385 44.8323 35.4633 41.1362 35.4633 37.6687C35.4448 34.506 33.9509 33.5057 32.457 33.5057ZM32.1694 39.1738C31.8446 41.1076 30.7961 42.4222 29.7847 42.4222C28.7641 42.4222 28.328 41.9554 28.328 41.9554C28.5228 40.2598 28.6434 39.2214 29.0146 38.326C29.3857 37.4305 30.2672 36.0016 31.1858 36.0016C32.0859 36.0016 32.4941 37.2305 32.1694 39.1738ZM43.2018 33.7629H41.0398L41.0491 33.6486C41.1976 32.2006 41.5316 31.4386 42.6358 31.3147C43.3874 31.2385 43.7214 30.8384 43.8049 30.4002C43.8699 30.0573 44.074 28.8665 44.074 28.8665C39.7315 28.8379 38.3676 30.7622 38.015 33.6963L38.0057 33.7629H37.9593C37.2541 33.7629 36.4747 34.5822 36.3448 35.6205L36.2984 36.0016H37.7459L36.5304 46.3089L36.1592 48.157C36.2056 48.157 36.2613 48.1665 36.3077 48.1665C38.3397 48.0903 39.6387 46.4423 39.9264 44.0512L40.8728 36.0016H41.5502C42.2182 36.0016 42.9977 35.3157 43.1368 34.1726L43.2018 33.7629ZM54.4476 33.5724C51.9516 33.5724 49.5948 35.4586 48.8711 38.4212C48.1473 41.3839 49.2422 44.8895 52.9166 44.8895C56.5817 44.8895 58.6973 41.241 58.6973 38.2021C58.6973 35.1823 56.7023 33.5724 54.4476 33.5724ZM55.459 39.0785C55.3291 40.4217 54.7538 42.4603 53.1764 42.4603C51.5898 42.4603 51.8124 40.0788 51.9702 38.9452C52.1372 37.7353 52.796 36.0111 54.2156 36.0111C55.4868 36.0111 55.6074 37.5639 55.459 39.0785ZM71.0287 36.9733C71.0287 36.9733 69.7761 41.0124 69.674 41.3458C69.6369 41.0028 68.7183 33.7534 68.7183 33.7534C66.5842 33.7534 65.4429 35.3157 64.8398 36.9637C64.8398 36.9637 63.3181 41.0123 63.1882 41.3553C63.1789 41.0409 62.9562 37.0114 62.9562 37.0114C62.8263 34.9918 61.0262 33.7629 59.5695 33.7629L61.3231 44.7466C63.5593 44.7371 64.7656 43.1843 65.3965 41.5363C65.3965 41.5363 66.7419 37.964 66.7883 37.802C66.7976 37.9545 67.7533 44.7466 67.7533 44.7466C69.9988 44.7466 71.205 43.2891 71.8545 41.6982L75 33.7629C72.7917 33.7629 71.6225 35.3157 71.0287 36.9733ZM45.2431 28.8665L43.4245 43.9274L43.0533 45.785C43.0997 45.785 43.1554 45.7945 43.2018 45.7945C45.1596 45.7659 46.5514 44.0036 46.8112 41.784L47.8597 33.1437C48.1752 30.505 46.6442 28.8665 45.2431 28.8665Z" fill="#FAF3DB"/>
</svg>
