<svg width="47" height="47" viewBox="0 0 47 47" fill="none" xmlns="http://www.w3.org/2000/svg">
<rect x="0.5" y="0.5" width="45.5" height="45.5" rx="9.75" fill="#707C5C"/>
<rect x="0.5" y="0.5" width="45.5" height="45.5" rx="9.75" stroke="#2E2E2E"/>
<path d="M10.2212 35.6094L11.2415 30.8594C7.0405 24.2304 9.0038 15.441 15.6396 11.2399C22.2684 7.03872 31.0574 9.00911 35.2585 15.6381C39.4595 22.267 37.4962 31.0564 30.8604 35.2576C26.4835 38.0372 20.9313 38.2061 16.3925 35.7079L11.713 37.0239C10.8475 37.2702 10.0241 36.5031 10.2141 35.6165H10.2212V35.6094Z" stroke="#A3B18B" stroke-width="3"/>
<path d="M27.9132 25.2038C27.6281 25.0141 27.343 24.916 27.0579 25.3019L25.9176 26.8325C25.6325 27.0222 25.4446 27.1203 25.0623 26.9307C23.6369 26.1654 21.6477 25.3019 19.9372 22.4304C19.84 22.0445 20.0344 21.8548 20.2223 21.6651L21.0776 20.3242C21.2655 20.1345 21.1748 19.9383 21.0776 19.7486L19.9372 16.9686C19.6521 16.2033 19.367 16.3014 19.0819 16.3014H18.3239C18.136 16.3014 17.7537 16.3996 17.3779 16.7789C15.2916 18.8852 16.1468 21.8548 17.663 23.7713C17.9481 24.1572 19.8465 27.6044 23.922 29.4228C26.9607 30.7637 27.6216 30.574 28.4769 30.3778C29.5201 30.2797 30.5632 29.4228 31.0362 28.5594C31.1334 28.2716 31.6064 27.0288 31.2241 26.8325" fill="#A3B18B"/>
</svg>
