<svg width="47" height="47" viewBox="0 0 47 47" fill="none" xmlns="http://www.w3.org/2000/svg">
<rect x="0.5" y="0.5" width="45.5" height="45.5" rx="9.75" fill="#AD6251"/>
<rect x="0.5" y="0.5" width="45.5" height="45.5" rx="9.75" stroke="#2E2E2E"/>
<g clip-path="url(#clip0_233_1825)">
<path d="M38.2041 31.9641C37.6109 33.3006 36.0794 34.5072 34.6372 34.7753C34.4909 34.8037 30.9728 35.4375 23.2622 35.4375H23.2419C15.5313 35.4375 12.0131 34.8037 11.8669 34.7753C10.4288 34.5072 8.89313 33.2966 8.3 31.96C8.24313 31.8422 7 28.9862 7 23.25C7 17.5137 8.24313 14.6578 8.29188 14.5359C8.885 13.1994 10.4206 11.9928 11.8588 11.7247C12.005 11.6963 15.5231 11.0625 23.2338 11.0625C30.9444 11.0625 34.4828 11.6963 34.6291 11.7247C36.0713 11.9928 37.6028 13.1994 38.1959 14.5359C38.2488 14.6578 39.4919 17.5137 39.4919 23.25C39.4919 28.9862 38.2488 31.8422 38.1959 31.9641H38.2041ZM35.8194 15.6775C35.5147 14.995 34.56 14.2434 33.8247 14.1053C33.7922 14.1012 30.4528 13.5041 23.2622 13.5041C16.0716 13.5041 12.7119 14.1012 12.6794 14.1053C11.94 14.2434 10.9894 14.995 10.6847 15.6816C10.6766 15.7019 9.61219 18.2125 9.61219 23.25C9.61219 28.2875 10.6766 30.7981 10.6888 30.8225C10.9934 31.505 11.9441 32.2566 12.6834 32.3947C12.7159 32.3987 16.0594 32.9959 23.2459 32.9959H23.2663C30.4569 32.9959 33.7963 32.3987 33.8288 32.3947C34.5681 32.2566 35.5188 31.505 35.8234 30.8184C35.8316 30.7981 36.9 28.2875 36.9 23.25C36.9 18.2125 35.8356 15.7019 35.8234 15.6775H35.8194ZM20.8938 28.9538C20.7353 29.0553 20.5525 29.1041 20.3738 29.1041C20.195 29.1041 20.0488 29.0634 19.9025 28.9822C19.5897 28.8116 19.3988 28.4825 19.3988 28.1291V18.375C19.3988 18.0216 19.5897 17.6966 19.8984 17.5219C20.2072 17.3472 20.5891 17.3553 20.8856 17.5422L28.71 22.3766C28.9944 22.5512 29.1731 22.8641 29.1731 23.2012C29.1731 23.5384 29.0025 23.8513 28.7181 24.03L20.8938 28.9497V28.9538Z" fill="#D97D68"/>
</g>
<defs>
<clipPath id="clip0_233_1825">
<rect width="32.5" height="32.5" fill="white" transform="translate(7 7)"/>
</clipPath>
</defs>
</svg>
